<svg width="20" height="20" viewBox="0 0 20 20" fill="none" xmlns="http://www.w3.org/2000/svg">
<mask id="mask0_467_7419" style="mask-type:alpha" maskUnits="userSpaceOnUse" x="0" y="0" width="20" height="20">
<rect width="20" height="20" fill="#D9D9D9"/>
</mask>
<g mask="url(#mask0_467_7419)">
<path d="M7.08333 4.63088C6.625 4.63088 6.23264 4.46799 5.90625 4.1422C5.57986 3.81642 5.41667 3.42478 5.41667 2.9673C5.41667 2.50981 5.57986 2.11817 5.90625 1.79239C6.23264 1.4666 6.625 1.30371 7.08333 1.30371C7.54167 1.30371 7.93403 1.4666 8.26042 1.79239C8.58681 2.11817 8.75 2.50981 8.75 2.9673C8.75 3.42478 8.58681 3.81642 8.26042 4.1422C7.93403 4.46799 7.54167 4.63088 7.08333 4.63088ZM11.6667 16.276H6.29167C5.83333 16.276 5.41319 16.1131 5.03125 15.7873C4.64931 15.4615 4.40972 15.0699 4.3125 14.6124L2.5 5.46268H4.20833L6.04167 14.6124H11.6667V16.276ZM16.25 17.9396L13.8333 13.7806H8.04167C7.63889 13.7806 7.28819 13.6593 6.98958 13.4167C6.69097 13.1741 6.5 12.8518 6.41667 12.4497L5.5 7.99964C5.34722 7.33421 5.50347 6.74502 5.96875 6.23208C6.43403 5.71915 7 5.46268 7.66667 5.46268C8.15278 5.46268 8.59375 5.60824 8.98958 5.89937C9.38542 6.19049 9.63889 6.5856 9.75 7.08467L10.6667 11.2852H13.375C13.6667 11.2852 13.9375 11.3615 14.1875 11.514C14.4375 11.6665 14.6389 11.8675 14.7917 12.117L17.7083 17.1078L16.25 17.9396Z" fill="#7E7E7E"/>
</g>
</svg>
