<svg width="20" height="20" viewBox="0 0 20 20" fill="none" xmlns="http://www.w3.org/2000/svg">
<mask id="mask0_467_7377" style="mask-type:alpha" maskUnits="userSpaceOnUse" x="0" y="0" width="20" height="20">
<rect width="20" height="20" fill="#D9D9D9"/>
</mask>
<g mask="url(#mask0_467_7377)">
<path d="M6.66671 16.276H13.3334V13.7806C13.3334 12.8656 13.007 12.0824 12.3542 11.4308C11.7014 10.7792 10.9167 10.4534 10 10.4534C9.08337 10.4534 8.29865 10.7792 7.64587 11.4308C6.9931 12.0824 6.66671 12.8656 6.66671 13.7806V16.276ZM3.33337 17.9396V16.276H5.00004V13.7806C5.00004 12.9349 5.19796 12.1413 5.59379 11.3996C5.98962 10.6579 6.54171 10.0653 7.25004 9.62164C6.54171 9.17802 5.98962 8.58537 5.59379 7.84368C5.19796 7.102 5.00004 6.30833 5.00004 5.46268V2.9673H3.33337V1.30371H16.6667V2.9673H15V5.46268C15 6.30833 14.8021 7.102 14.4063 7.84368C14.0105 8.58537 13.4584 9.17802 12.75 9.62164C13.4584 10.0653 14.0105 10.6579 14.4063 11.3996C14.8021 12.1413 15 12.9349 15 13.7806V16.276H16.6667V17.9396H3.33337Z" fill="#7E7E7E"/>
</g>
</svg>
