<svg width="20" height="20" viewBox="0 0 20 20" fill="none" xmlns="http://www.w3.org/2000/svg">
<mask id="mask0_494_10796" style="mask-type:alpha" maskUnits="userSpaceOnUse" x="0" y="0" width="20" height="20">
<rect width="20" height="20" fill="#D9D9D9"/>
</mask>
<g mask="url(#mask0_494_10796)">
<path d="M0.833374 14.1663V5.83301H2.50004V12.4997H9.16671V5.83301H15.8334C16.75 5.83301 17.5348 6.1594 18.1875 6.81217C18.8403 7.46495 19.1667 8.24967 19.1667 9.16634V14.1663H0.833374ZM5.83337 11.6663C6.52782 11.6663 7.1181 11.4233 7.60421 10.9372C8.09032 10.4511 8.33337 9.86079 8.33337 9.16634C8.33337 8.4719 8.09032 7.88162 7.60421 7.39551C7.1181 6.9094 6.52782 6.66634 5.83337 6.66634C5.13893 6.66634 4.54865 6.9094 4.06254 7.39551C3.57643 7.88162 3.33337 8.4719 3.33337 9.16634C3.33337 9.86079 3.57643 10.4511 4.06254 10.9372C4.54865 11.4233 5.13893 11.6663 5.83337 11.6663Z" fill="#7E7E7E"/>
</g>
</svg>
