<svg width="20" height="20" viewBox="0 0 20 20" fill="none" xmlns="http://www.w3.org/2000/svg">
<mask id="mask0_467_7371" style="mask-type:alpha" maskUnits="userSpaceOnUse" x="0" y="0" width="20" height="20">
<rect width="20" height="20" fill="#D9D9D9"/>
</mask>
<g mask="url(#mask0_467_7371)">
<path d="M9.99998 8.78985C10.9166 8.78985 11.7014 8.46406 12.3541 7.81249C13.0069 7.16092 13.3333 6.37765 13.3333 5.46268V2.9673H6.66665V5.46268C6.66665 6.37765 6.99304 7.16092 7.64581 7.81249C8.29859 8.46406 9.08331 8.78985 9.99998 8.78985ZM3.33331 17.9396V16.276H4.99998V13.7806C4.99998 12.9349 5.1979 12.1413 5.59373 11.3996C5.98956 10.6579 6.54165 10.0653 7.24998 9.62164C6.54165 9.17802 5.98956 8.58537 5.59373 7.84368C5.1979 7.102 4.99998 6.30833 4.99998 5.46268V2.9673H3.33331V1.30371H16.6666V2.9673H15V5.46268C15 6.30833 14.8021 7.102 14.4062 7.84368C14.0104 8.58537 13.4583 9.17802 12.75 9.62164C13.4583 10.0653 14.0104 10.6579 14.4062 11.3996C14.8021 12.1413 15 12.9349 15 13.7806V16.276H16.6666V17.9396H3.33331Z" fill="#7E7E7E"/>
</g>
</svg>
