<svg width="39" height="27" viewBox="0 0 39 27" fill="none" xmlns="http://www.w3.org/2000/svg">
<g id="Group 2456">
<rect id="Rectangle 262" x="0.25" y="0.25" width="37.8614" height="26.5" fill="#FFCD1E" stroke="black" stroke-width="0.5"/>
<rect id="Rectangle 263" x="1.85449" y="1.9873" width="34.6535" height="23.0248" fill="#FFCD1E" stroke="black" stroke-width="0.5"/>
<g id="Group 2458">
<path id="Vector" d="M6.67895 6.58997L7.57257 7.96728C7.65673 8.09731 7.81536 8.15803 7.96491 8.11796L9.55034 7.69314C9.885 7.60347 10.1378 7.99463 9.92068 8.26372L8.88845 9.53998C8.79069 9.66042 8.78229 9.82985 8.86645 9.95988L9.76008 11.3372C9.94888 11.6277 9.65591 11.99 9.33231 11.8658L7.80024 11.2767C7.65536 11.2212 7.49222 11.265 7.39446 11.3854L6.36223 12.6616C6.1441 12.931 5.71024 12.7634 5.72746 12.4177L5.8127 10.7781C5.82057 10.6234 5.72858 10.4809 5.58371 10.4255L4.05268 9.83605C3.72908 9.71183 3.75345 9.24641 4.08811 9.15674L5.67355 8.73193C5.8231 8.69185 5.93011 8.55996 5.93798 8.40526L6.02323 6.76567C6.04149 6.4197 6.49119 6.2992 6.67895 6.58997Z" fill="#FFA629" stroke="black" stroke-width="0.5"/>
<path id="Vector_2" d="M31.6786 6.58997L30.785 7.96728C30.7008 8.09731 30.5422 8.15803 30.3926 8.11796L28.8072 7.69314C28.4725 7.60347 28.2198 7.99463 28.4369 8.26372L29.4691 9.53998C29.5668 9.66042 29.5753 9.82985 29.4911 9.95988L28.5975 11.3372C28.4087 11.6277 28.7016 11.99 29.0252 11.8658L30.5573 11.2767C30.7022 11.2212 30.8653 11.265 30.9631 11.3854L31.9953 12.6616C32.2134 12.931 32.6473 12.7634 32.6301 12.4177L32.5448 10.7781C32.537 10.6234 32.629 10.4809 32.7738 10.4255L34.3049 9.83605C34.6285 9.71183 34.6041 9.24641 34.2694 9.15674L32.684 8.73193C32.5344 8.69185 32.4274 8.55996 32.4196 8.40526L32.3343 6.76567C32.3161 6.4197 31.8664 6.2992 31.6786 6.58997Z" fill="#FFA629" stroke="black" stroke-width="0.5"/>
</g>
<g id="Group 2457">
<path id="Rectangle 265" d="M5.88693 16.0098H13.6532V21.1236H5.88693L7.10949 18.6785C7.14469 18.6081 7.14469 18.5253 7.10949 18.4549L5.88693 16.0098Z" fill="#EAEAEA" stroke="black" stroke-width="0.5" stroke-linejoin="round"/>
<path id="Rectangle 267" d="M10.6787 18.5244V13.6011L13.654 15.8507V20.8703L10.6787 18.5244Z" fill="#EAEAEA" stroke="black" stroke-width="0.5"/>
<path id="Rectangle 266" d="M32.4773 16.0098H24.711V21.1236H32.4773L31.2548 18.6785C31.2196 18.6081 31.2196 18.5253 31.2548 18.4549L32.4773 16.0098Z" fill="#EAEAEA" stroke="black" stroke-width="0.5" stroke-linejoin="round"/>
<path id="Rectangle 268" d="M27.6885 18.5244V13.6011L24.7132 15.8507V20.8703L27.6885 18.5244Z" fill="#EAEAEA" stroke="black" stroke-width="0.5"/>
<rect id="Rectangle 264" x="10.6923" y="13.3486" width="16.9863" height="5.05766" fill="#EAEAEA" stroke="black" stroke-width="0.5"/>
</g>
<g id="Group 2453">
<path id="Vector_3" d="M23.9436 9.4223C23.9436 12.0518 21.8117 14.1835 19.1817 14.1835C16.5517 14.1835 14.4198 12.0518 14.4198 9.4223C14.4198 6.79282 16.5517 4.66113 19.1817 4.66113C21.8117 4.66113 23.9436 6.79282 23.9436 9.4223Z" fill="#BDE3FF" stroke="black" stroke-width="0.5"/>
<path id="Vector_4" d="M19.1166 10.4082C20.1588 10.4082 21.0514 11.0296 21.4362 11.9132H16.7968C17.1815 11.0296 18.0741 10.4082 19.1166 10.4082Z" fill="#0D99FF" stroke="black" stroke-width="0.5"/>
<path id="Vector_5" d="M20.335 8.15388C20.335 8.82783 19.7887 9.37419 19.1146 9.37419C18.4407 9.37419 17.8944 8.82785 17.8944 8.15388C17.8944 7.47994 18.4407 6.93359 19.1146 6.93359C19.7887 6.93359 20.335 7.47996 20.335 8.15388Z" fill="#0D99FF" stroke="black" stroke-width="0.5"/>
</g>
</g>
</svg>
