<svg width="20" height="20" viewBox="0 0 20 20" fill="none" xmlns="http://www.w3.org/2000/svg">
<path d="M8.71536 14.2163L15.1779 7.75384L13.8945 6.47051L8.71536 11.6497L6.10286 9.03717L4.81953 10.3205L8.71536 14.2163ZM9.9987 19.1663C8.73064 19.1663 7.53898 18.9257 6.4237 18.4445C5.30842 17.9632 4.33828 17.3101 3.51328 16.4851C2.68828 15.6601 2.03516 14.69 1.55391 13.5747C1.07266 12.4594 0.832031 11.2677 0.832031 9.99967C0.832031 8.73162 1.07266 7.53995 1.55391 6.42467C2.03516 5.3094 2.68828 4.33926 3.51328 3.51426C4.33828 2.68926 5.30842 2.03613 6.4237 1.55488C7.53898 1.07363 8.73064 0.833008 9.9987 0.833008C11.2668 0.833008 12.4584 1.07363 13.5737 1.55488C14.689 2.03613 15.6591 2.68926 16.4841 3.51426C17.3091 4.33926 17.9622 5.3094 18.4435 6.42467C18.9247 7.53995 19.1654 8.73162 19.1654 9.99967C19.1654 11.2677 18.9247 12.4594 18.4435 13.5747C17.9622 14.69 17.3091 15.6601 16.4841 16.4851C15.6591 17.3101 14.689 17.9632 13.5737 18.4445C12.4584 18.9257 11.2668 19.1663 9.9987 19.1663ZM9.9987 17.333C12.0459 17.333 13.7799 16.6226 15.2008 15.2018C16.6216 13.7809 17.332 12.0469 17.332 9.99967C17.332 7.95245 16.6216 6.21842 15.2008 4.79759C13.7799 3.37676 12.0459 2.66634 9.9987 2.66634C7.95148 2.66634 6.21745 3.37676 4.79661 4.79759C3.37578 6.21842 2.66536 7.95245 2.66536 9.99967C2.66536 12.0469 3.37578 13.7809 4.79661 15.2018C6.21745 16.6226 7.95148 17.333 9.9987 17.333Z" fill="#14E002"/>
</svg>
