<svg width="35" height="35" viewBox="0 0 35 35" fill="none" xmlns="http://www.w3.org/2000/svg">
<g id="Group 9170">
<circle id="Ellipse 9" cx="17.5" cy="17.5" r="17.5" fill="#6C63FF"/>
<g id="psychiatry">
<mask id="mask0_625_10626" style="mask-type:alpha" maskUnits="userSpaceOnUse" x="6" y="5" width="24" height="24">
<rect id="Bounding box" x="6" y="5" width="24" height="24" fill="#D9D9D9"/>
</mask>
<g mask="url(#mask0_625_10626)">
<path id="psychiatry_2" d="M17 26V18.025C15.9333 18.025 14.9083 17.8208 13.925 17.4125C12.9417 17.0042 12.075 16.425 11.325 15.675C10.575 14.925 10 14.0583 9.6 13.075C9.2 12.0917 9 11.0667 9 10V8H11C12.05 8 13.0667 8.20417 14.05 8.6125C15.0333 9.02083 15.9 9.6 16.65 10.35C17.1667 10.8667 17.5958 11.4333 17.9375 12.05C18.2792 12.6667 18.5417 13.325 18.725 14.025C18.8083 13.9083 18.9 13.7958 19 13.6875C19.1 13.5792 19.2083 13.4667 19.325 13.35C20.075 12.6 20.9417 12.0208 21.925 11.6125C22.9083 11.2042 23.9333 11 25 11H27V13C27 14.0667 26.7958 15.0917 26.3875 16.075C25.9792 17.0583 25.4 17.925 24.65 18.675C23.9 19.425 23.0375 20 22.0625 20.4C21.0875 20.8 20.0667 21 19 21V26H17Z" fill="white"/>
</g>
</g>
</g>
</svg>
