<svg width="35" height="35" viewBox="0 0 35 35" fill="none" xmlns="http://www.w3.org/2000/svg">
<g id="Group 9169">
<circle id="Ellipse 9" cx="17.5" cy="17.5" r="17.5" fill="#65BDFD"/>
<g id="carry_on_bag_checked">
<mask id="mask0_625_10618" style="mask-type:alpha" maskUnits="userSpaceOnUse" x="6" y="5" width="24" height="24">
<rect id="Bounding box" x="6" y="5" width="24" height="24" fill="#D9D9D9"/>
</mask>
<g mask="url(#mask0_625_10618)">
<path id="carry_on_bag_checked_2" d="M23.3 25.25L26.85 21.7L26.1 20.95L23.3 23.75L21.9 22.35L21.15 23.1L23.3 25.25ZM24 28C22.6167 28 21.4375 27.5125 20.4625 26.5375C19.4875 25.5625 19 24.3833 19 23C19 21.6167 19.4875 20.4375 20.4625 19.4625C21.4375 18.4875 22.6167 18 24 18C25.3833 18 26.5625 18.4875 27.5375 19.4625C28.5125 20.4375 29 21.6167 29 23C29 24.3833 28.5125 25.5625 27.5375 26.5375C26.5625 27.5125 25.3833 28 24 28ZM16.5 26V12H20V9C19.45 9 18.9792 8.80417 18.5875 8.4125C18.1958 8.02083 18 7.55 18 7H22V16.3C20.5167 16.7833 19.3125 17.6333 18.3875 18.85C17.4625 20.0667 17 21.45 17 23C17 23.5333 17.0583 24.0458 17.175 24.5375C17.2917 25.0292 17.4667 25.5167 17.7 26H16.5ZM14 26C13.45 26 12.9792 25.8042 12.5875 25.4125C12.1958 25.0208 12 24.55 12 24V14C12 13.45 12.1958 12.9792 12.5875 12.5875C12.9792 12.1958 13.45 12 14 12H15V26H14Z" fill="white"/>
</g>
</g>
</g>
</svg>
