<svg width="56" height="43" viewBox="0 0 56 43" fill="none" xmlns="http://www.w3.org/2000/svg">
<g id="undraw_happy_birthday_re_c16u 1" clip-path="url(#clip0_625_10793)">
<path id="Vector" d="M37.5282 12.1072C38.7295 8.88298 41.5679 6.09701 44.998 5.76562C42.9358 8.88924 42.0469 12.6403 42.4885 16.3552C42.6641 17.7872 43.0087 19.3618 42.2353 20.5806C41.7541 21.339 40.9061 21.8059 40.032 22.0166C39.1578 22.2273 38.2469 22.211 37.3477 22.1934L37.1464 22.2926C36.5141 18.911 36.3268 15.3315 37.5282 12.1072Z" fill="#F0F0F0"/>
<path id="Vector_2" d="M45.0148 5.83649C42.6764 7.46719 40.9123 9.7919 39.9729 12.4804C39.7751 13.0576 39.6249 13.6603 39.6162 14.2733C39.6123 14.8708 39.7689 15.4584 40.0695 15.9751C40.3401 16.4625 40.6734 16.9298 40.8206 17.4744C40.9757 18.0484 40.8493 18.6291 40.5323 19.125C40.1446 19.7318 39.5615 20.1633 38.9766 20.5655C38.3273 21.0121 37.6457 21.4657 37.2483 22.1672C37.2002 22.2522 37.0709 22.1727 37.1189 22.0878C37.8102 20.8672 39.2611 20.4239 40.1486 19.3871C40.5628 18.9033 40.8334 18.292 40.7053 17.6479C40.5934 17.0846 40.25 16.6024 39.9718 16.1113C39.6796 15.5956 39.4887 15.0604 39.4665 14.4637C39.4437 13.8533 39.5707 13.2435 39.7528 12.6638C40.1755 11.3523 40.8022 10.1152 41.6099 8.99805C42.5246 7.71791 43.652 6.6034 44.9432 5.70273C45.0232 5.64702 45.0942 5.78115 45.0148 5.83649Z" fill="white"/>
<path id="Vector_3" d="M40.2244 11.5964C39.7939 11.3778 39.4552 11.0136 39.2689 10.5689C39.0826 10.1241 39.0608 9.62764 39.2073 9.16825C39.2372 9.0754 39.3832 9.11752 39.3532 9.21049C39.216 9.63803 39.2364 10.1004 39.4107 10.5143C39.5851 10.9281 39.9018 11.2661 40.3039 11.4673C40.3912 11.5111 40.3112 11.64 40.2244 11.5964Z" fill="white"/>
<path id="Vector_4" d="M39.8994 15.746C40.8409 15.4492 41.6356 14.809 42.1253 13.9533C42.1737 13.8684 42.3031 13.9479 42.2547 14.0327C41.7435 14.9223 40.915 15.5867 39.9347 15.8935C39.8412 15.9226 39.8065 15.775 39.8994 15.746Z" fill="white"/>
<path id="Vector_5" d="M42.6284 7.88999C42.7773 8.00921 42.9535 8.08964 43.1413 8.12405C43.329 8.15847 43.5224 8.14581 43.704 8.08719C43.7971 8.05685 43.8317 8.20453 43.7392 8.23467C43.5383 8.2985 43.3247 8.31223 43.1172 8.27466C42.9097 8.23709 42.7145 8.14936 42.5488 8.01915C42.5322 8.00818 42.5203 7.9913 42.5157 7.97193C42.5111 7.95256 42.514 7.93216 42.5239 7.91487C42.5345 7.89782 42.5514 7.88564 42.571 7.88099C42.5906 7.87633 42.6112 7.87956 42.6284 7.88999Z" fill="white"/>
<path id="Vector_6" d="M53.2657 13.9851C53.2081 14.0057 53.1505 14.0263 53.0926 14.0482C52.3202 14.329 51.5719 14.6721 50.8551 15.0739C50.7992 15.1041 50.743 15.1355 50.6881 15.1673C48.9716 16.1537 47.4535 17.4498 46.2109 18.9895C45.717 19.6026 45.2706 20.2523 44.8755 20.9331C44.3299 21.8733 43.8132 22.936 43.0119 23.6211C42.9291 23.6936 42.8419 23.7608 42.7507 23.8224L37.2832 22.531C37.2723 22.5218 37.261 22.5139 37.25 22.5047L37.0293 22.4631C37.0472 22.4266 37.0666 22.3891 37.0845 22.3525C37.0948 22.3313 37.1063 22.3104 37.1167 22.2891C37.1239 22.2751 37.1312 22.261 37.137 22.2479C37.1394 22.2432 37.1418 22.2385 37.1439 22.2351C37.1497 22.222 37.1564 22.2104 37.1619 22.1986C37.2696 21.9886 37.379 21.7791 37.49 21.5699C37.4903 21.5687 37.4903 21.5687 37.4918 21.5677C38.342 19.9763 39.3328 18.4417 40.5254 17.1061C40.5613 17.0659 40.5974 17.0244 40.6358 16.9849C41.1767 16.3858 41.7658 15.8318 42.3971 15.3285C42.7437 15.0541 43.104 14.7973 43.4765 14.5592C44.4405 13.9458 45.495 13.4876 46.6016 13.2013C48.8076 12.631 51.1717 12.7713 53.1178 13.8976C53.1676 13.9265 53.2162 13.9551 53.2657 13.9851Z" fill="#F0F0F0"/>
<path id="Vector_7" d="M53.237 14.0514C50.3864 13.9481 47.5757 14.744 45.2041 16.326C44.6981 16.6681 44.2146 17.059 43.838 17.5432C43.4745 18.0179 43.245 18.5812 43.1734 19.1744C43.0955 19.7262 43.0798 20.2996 42.8689 20.8229C42.6465 21.3745 42.1953 21.7621 41.6432 21.9676C40.9676 22.219 40.2418 22.2132 39.5322 22.1828C38.7444 22.1491 37.9266 22.1016 37.1862 22.4229C37.0965 22.4619 37.0412 22.3207 37.1308 22.2818C38.4189 21.7227 39.8447 22.2407 41.1787 21.9463C41.8012 21.8089 42.3859 21.4835 42.6722 20.8922C42.9226 20.3751 42.9393 19.7838 43.0133 19.2244C43.0911 18.6371 43.2615 18.095 43.6036 17.6052C43.9535 17.1042 44.4227 16.6936 44.9178 16.3402C46.0464 15.5471 47.2928 14.936 48.6115 14.5294C50.114 14.0571 51.6863 13.8447 53.2605 13.9016C53.358 13.9052 53.3338 14.055 53.237 14.0514Z" fill="white"/>
<path id="Vector_8" d="M45.9376 15.7715C45.7257 15.3383 45.675 14.844 45.7945 14.3769C45.914 13.9098 46.196 13.5003 46.5901 13.2215C46.67 13.1654 46.7611 13.2867 46.6811 13.3429C46.3137 13.6018 46.051 13.9833 45.9406 14.4185C45.8302 14.8537 45.8793 15.314 46.079 15.7162C46.1223 15.8037 45.9807 15.8585 45.9376 15.7715Z" fill="white"/>
<path id="Vector_9" d="M43.176 18.8893C44.1067 19.2181 45.1273 19.1847 46.0345 18.7957C46.1243 18.7571 46.1796 18.8983 46.0899 18.9369C45.1451 19.3399 44.0829 19.3726 43.1151 19.0283C43.0229 18.9954 43.0842 18.8566 43.176 18.8893Z" fill="white"/>
<path id="Vector_10" d="M50.0932 14.257C50.1402 14.4417 50.2324 14.6118 50.3616 14.7522C50.4907 14.8925 50.6527 14.9986 50.8331 15.0609C50.9257 15.0926 50.8643 15.2313 50.7723 15.1999C50.5733 15.13 50.3945 15.0126 50.2515 14.8579C50.1085 14.7032 50.0056 14.5159 49.9518 14.3123C49.9451 14.2936 49.9458 14.273 49.9538 14.2547C49.9618 14.2365 49.9765 14.222 49.9948 14.2141C50.0136 14.2069 50.0344 14.2073 50.0529 14.2154C50.0713 14.2234 50.0858 14.2384 50.0932 14.257Z" fill="white"/>
<path id="Vector_11" d="M5.84881 41.6622C2.71876 40.2229 0.15013 37.1873 0.078125 33.748C3.04265 36.0366 6.72255 37.2046 10.4668 37.0456C11.9105 36.979 13.5094 36.7549 14.6685 37.6167C15.3897 38.1529 15.7921 39.0322 15.9366 39.9183C16.081 40.8043 15.9959 41.7098 15.9105 42.6034L15.9944 42.8113C12.5687 43.1854 8.97886 43.1014 5.84881 41.6622Z" fill="#F0F0F0"/>
<path id="Vector_12" d="M0.149541 33.7361C1.60189 36.1867 3.79087 38.1183 6.40556 39.2563C6.96721 39.4968 7.55793 39.6918 8.16954 39.7468C8.76612 39.7957 9.36494 39.6843 9.90379 39.4241C10.4111 39.1916 10.903 38.8951 11.4581 38.7897C12.0433 38.6786 12.6138 38.8483 13.0852 39.2012C13.6621 39.633 14.0491 40.246 14.4067 40.8585C14.8037 41.5386 15.2054 42.2513 15.8761 42.6998C15.9574 42.7541 15.8682 42.8768 15.787 42.8226C14.62 42.0423 14.2867 40.5647 13.3181 39.603C12.8661 39.1542 12.2759 38.8387 11.6227 38.9175C11.0516 38.9864 10.544 39.2917 10.0324 39.5316C9.49518 39.7835 8.94615 39.9331 8.34845 39.9102C7.73704 39.8867 7.13744 39.7143 6.57209 39.4892C5.29391 38.9694 4.10556 38.2522 3.05057 37.3639C1.84088 36.3567 0.812703 35.1504 0.0105184 33.7972C-0.0391003 33.7134 0.10025 33.6528 0.149541 33.7361Z" fill="white"/>
<path id="Vector_13" d="M5.54237 38.9398C5.29153 39.3518 4.90215 39.6613 4.44377 39.8132C3.98539 39.9651 3.48786 39.9493 3.04002 39.7688C2.94953 39.732 3.00262 39.5899 3.09323 39.6268C3.50995 39.7956 3.9734 39.8102 4.39996 39.668C4.82651 39.5257 5.18806 39.2359 5.41936 38.8509C5.46972 38.7672 5.59245 38.8567 5.54237 38.9398Z" fill="white"/>
<path id="Vector_14" d="M9.66249 39.5763C9.43709 38.6168 8.85767 37.7773 8.03979 37.2253C7.95871 37.1707 8.0479 37.048 8.12888 37.1025C8.97892 37.6785 9.58011 38.5533 9.81247 39.5523C9.83455 39.6476 9.68445 39.671 9.66249 39.5763Z" fill="white"/>
<path id="Vector_15" d="M2.02112 36.2667C2.15145 36.1275 2.2451 35.9582 2.29366 35.7739C2.34222 35.5896 2.34417 35.3962 2.29934 35.211C2.27606 35.1161 2.42619 35.0927 2.44932 35.187C2.4979 35.3919 2.49549 35.6055 2.44229 35.8092C2.38909 36.0129 2.28672 36.2006 2.14413 36.3557C2.13192 36.3714 2.11416 36.3819 2.09446 36.3851C2.07476 36.3882 2.0546 36.3838 2.03808 36.3726C2.02185 36.3607 2.01097 36.343 2.00779 36.3231C2.00462 36.3033 2.00941 36.283 2.02112 36.2667Z" fill="white"/>
<path id="Vector_16" d="M8.91226 26.1387C8.92848 26.1975 8.94471 26.2564 8.96213 26.3157C9.18437 27.1057 9.47054 27.8764 9.81781 28.6202C9.84375 28.6782 9.8709 28.7365 9.89845 28.7936C10.7542 30.5766 11.9342 32.1856 13.3784 33.5387C13.9536 34.0766 14.5689 34.57 15.2191 35.0147C16.1171 35.6288 17.1396 36.2233 17.7635 37.0726C17.8296 37.1605 17.8902 37.2524 17.9449 37.3478L16.2419 42.6925C16.232 42.7027 16.2232 42.7133 16.2132 42.7236L16.155 42.9401C16.1198 42.9195 16.0838 42.8974 16.0487 42.8768C16.0283 42.8649 16.0082 42.8519 15.9878 42.84C15.9743 42.8317 15.9608 42.8234 15.9481 42.8167C15.9436 42.8139 15.9391 42.8111 15.9359 42.8088C15.9232 42.802 15.9122 42.7945 15.9007 42.7882C15.6991 42.6651 15.4981 42.5404 15.2976 42.4141C15.2963 42.4137 15.2963 42.4137 15.2955 42.4121C13.77 41.4456 12.3119 40.3436 11.0677 39.0556C11.0303 39.0169 10.9916 38.9778 10.955 38.9366C10.3974 38.3529 9.88853 37.7248 9.43346 37.0584C9.18546 36.6926 8.95616 36.3147 8.74645 35.9258C8.20652 34.92 7.82843 33.8358 7.62604 32.7127C7.22292 30.4739 7.54158 28.1312 8.81368 26.2792C8.84625 26.2319 8.87846 26.1856 8.91226 26.1387Z" fill="#F0F0F0"/>
<path id="Vector_17" d="M8.97637 26.1721C8.6579 29.0016 9.24068 31.8595 10.6419 34.3396C10.9454 34.8691 11.2994 35.3799 11.7546 35.7913C12.2014 36.1889 12.7467 36.4599 13.3339 36.5759C13.8792 36.6952 14.4508 36.7541 14.9576 37.0036C15.4918 37.2665 15.8449 37.7449 16.0085 38.3101C16.2087 39.0015 16.148 39.7235 16.0641 40.4275C15.9709 41.2091 15.8617 42.0196 16.1268 42.7808C16.1589 42.873 16.0137 42.9174 15.9816 42.8253C15.5204 41.5009 16.1455 40.1208 15.9521 38.7708C15.8619 38.1408 15.581 37.5342 15.0119 37.2045C14.5143 36.9163 13.9249 36.855 13.3717 36.7391C12.7909 36.6173 12.2623 36.4068 11.7989 36.0293C11.3248 35.6431 10.9501 35.1451 10.6344 34.6256C9.9274 33.4424 9.41115 32.1555 9.10458 30.8122C8.74617 29.2811 8.6528 27.7 8.8285 26.1373C8.83942 26.0406 8.98721 26.076 8.97637 26.1721Z" fill="white"/>
<path id="Vector_18" d="M10.1432 33.568C9.69441 33.7462 9.19681 33.7594 8.73922 33.6052C8.28164 33.4509 7.89387 33.1393 7.64518 32.7261C7.59514 32.6423 7.72324 32.5607 7.77334 32.6446C8.00421 33.0299 8.36544 33.3201 8.79184 33.4628C9.21824 33.6056 9.68171 33.5915 10.0986 33.4231C10.1892 33.3866 10.2333 33.5318 10.1432 33.568Z" fill="white"/>
<path id="Vector_19" d="M13.0493 36.5522C13.4481 35.6506 13.4918 34.6321 13.1717 33.6998C13.1399 33.6075 13.2851 33.5631 13.3169 33.6553C13.6482 34.6261 13.6005 35.6859 13.1835 36.6232C13.1437 36.7125 13.0098 36.641 13.0493 36.5522Z" fill="white"/>
<path id="Vector_20" d="M8.94431 29.3167C9.13234 29.2839 9.30926 29.2049 9.45917 29.087C9.60909 28.969 9.72731 28.8158 9.80322 28.6409C9.84188 28.5512 9.97582 28.6228 9.93741 28.712C9.85264 28.9047 9.72187 29.0738 9.55653 29.2045C9.39118 29.3352 9.19629 29.4235 8.98888 29.4616C8.96963 29.4669 8.94911 29.4646 8.93149 29.4553C8.91386 29.4459 8.90046 29.4303 8.894 29.4114C8.88819 29.3922 8.89022 29.3715 8.89964 29.3537C8.90906 29.336 8.92511 29.3227 8.94431 29.3167Z" fill="white"/>
<path id="Vector_21" d="M13.0553 22.6558C10.2895 19.9379 9.12131 17.1025 9.76592 14.6718C10.5932 11.5527 14.2682 9.39601 19.8486 8.75488L19.8692 8.9338C14.3665 9.56597 10.7475 11.6742 9.94031 14.7179C9.31297 17.0834 10.4642 19.8569 13.1818 22.5275L13.0553 22.6558Z" fill="#F0F0F0"/>
<path id="Vector_22" d="M39.7409 32.3032C36.289 32.3032 32.5379 31.7911 28.812 30.8065C24.2044 29.5888 19.9797 27.751 16.5947 25.4914L16.695 25.3418C20.0637 27.5904 24.2696 29.4199 28.8582 30.6324C33.0047 31.7283 37.1824 32.236 40.938 32.102L40.9445 32.2819C40.5479 32.2961 40.1467 32.3032 39.7409 32.3032Z" fill="#F0F0F0"/>
<path id="Vector_23" d="M47.6598 31.1712L47.6021 31.0006C50.6893 29.9587 52.6203 28.2802 53.1862 26.1465C53.9055 23.434 52.3427 20.2864 48.7857 17.2834C45.2104 14.2652 40.0549 11.7608 34.2686 10.2317L34.3147 10.0576C40.1263 11.5934 45.307 14.1108 48.9021 17.146C52.5154 20.1963 54.0988 23.4092 53.3606 26.1926C52.7785 28.3875 50.8072 30.109 47.6598 31.1712Z" fill="#F0F0F0"/>
<path id="Vector_24" d="M19.3118 32.3783C12.529 29.3754 7.30237 25.4795 4.59473 21.4082L4.74499 21.3086C7.43391 25.3517 12.6331 29.2245 19.3849 32.2137L19.3118 32.3783Z" fill="#F0F0F0"/>
<path id="Vector_25" d="M43.1601 37.5806C42.4605 37.5806 41.7489 37.565 41.0254 37.5338L41.0331 37.3539C46.4325 37.5873 51.1964 36.9423 54.8108 35.4883L54.8783 35.6553C51.7253 36.9235 47.7066 37.5806 43.1601 37.5806Z" fill="#F0F0F0"/>
<path id="Vector_26" d="M39.2239 8.91581C38.1028 8.55146 36.9497 8.21221 35.7965 7.90747C29.1607 6.15386 22.6376 5.53124 16.9322 6.10726L16.9141 5.92808C22.6407 5.35017 29.1862 5.97428 35.8427 7.73339C36.9991 8.03901 38.1555 8.37922 39.2797 8.74463L39.2239 8.91581Z" fill="#F0F0F0"/>
<path id="Vector_27" d="M8.81699 22.9253C6.05118 20.2074 4.88303 17.372 5.52764 14.9414C6.35487 11.8222 10.0299 9.66554 15.6104 9.02441L15.631 9.20334C10.1282 9.8355 6.50923 11.9437 5.70203 14.9874C5.07469 17.3529 6.22588 20.1264 8.94356 22.7971L8.81699 22.9253Z" fill="#F0F0F0"/>
<path id="Vector_28" d="M35.5017 32.5737C32.0498 32.5737 28.2987 32.0616 24.5727 31.077C19.9651 29.8594 15.7405 28.0215 12.3555 25.7619L12.4557 25.6123C15.8244 27.8609 20.0304 29.6904 24.6189 30.9029C28.7655 31.9988 32.9432 32.5065 36.6988 32.3725L36.7053 32.5524C36.3087 32.5667 35.9075 32.5738 35.5017 32.5737Z" fill="#F0F0F0"/>
<path id="Vector_29" d="M43.4216 31.4407L43.3638 31.2702C46.451 30.2282 48.382 28.5497 48.9479 26.416C49.6672 23.7036 48.1044 20.556 44.5474 17.553C40.9722 14.5347 35.8166 12.0303 30.0303 10.5012L30.0764 10.3271C35.8881 11.863 41.0687 14.3803 44.6638 17.4155C48.2771 20.4659 49.8605 23.6787 49.1223 26.4621C48.5402 28.657 46.5689 30.3785 43.4216 31.4407Z" fill="#F0F0F0"/>
<path id="Vector_30" d="M15.0726 32.6488C8.28976 29.6459 3.06311 25.75 0.355469 21.6787L0.505732 21.5791C3.19465 25.6222 8.39387 29.495 15.1457 32.4842L15.0726 32.6488Z" fill="#F0F0F0"/>
<path id="Vector_31" d="M38.9207 37.8511C38.2211 37.8511 37.5095 37.8355 36.786 37.8043L36.7938 37.6244C42.1931 37.8578 46.957 37.2128 50.5714 35.7588L50.6389 35.9258C47.4859 37.194 43.4673 37.8511 38.9207 37.8511Z" fill="#F0F0F0"/>
<path id="Vector_32" d="M34.9856 9.18632C33.8645 8.82197 32.7114 8.48272 31.5583 8.17798C24.9224 6.42437 18.3993 5.80175 12.6939 6.37777L12.6758 6.19859C18.4025 5.62067 24.9479 6.24479 31.6044 8.0039C32.7608 8.30951 33.9172 8.64973 35.0414 9.01513L34.9856 9.18632Z" fill="#F0F0F0"/>
<path id="Vector_33" d="M17.0651 22.5566C16.6944 22.5571 16.3391 22.7042 16.077 22.9658C15.8149 23.2275 15.6675 23.5822 15.6671 23.9522C15.1356 27.8587 14.958 31.8051 15.1367 35.7434C15.1473 35.9949 15.1591 36.2249 15.1727 36.4468C15.1925 36.8133 15.2177 37.2001 15.2476 37.5968C15.2647 37.8309 15.2827 38.0656 15.3025 38.2996C15.3356 38.6806 15.372 39.0679 15.4107 39.4504C15.435 39.6841 15.4603 39.9189 15.4873 40.1528C15.5391 40.6122 15.5978 41.0831 15.6667 41.5925C15.666 41.9634 15.8129 42.3194 16.0751 42.5823C16.3374 42.8451 16.6935 42.9932 17.0651 42.994H40.5152C40.8859 42.9936 41.2412 42.8465 41.5033 42.5848C41.7654 42.3232 41.9128 41.9685 41.9132 41.5985L41.9143 41.5888C42.0187 41.1138 42.116 40.6297 42.2035 40.1499C42.2503 39.897 42.2906 39.6672 42.3269 39.4476C42.3927 39.0477 42.4513 38.6607 42.5008 38.2973C42.5346 38.0533 42.5653 37.8171 42.5918 37.5948C42.6354 37.2311 42.6749 36.8551 42.7125 36.4454C42.7331 36.2227 42.7519 35.9927 42.7702 35.7423V35.7422C43.0569 31.7947 42.7686 27.8267 41.9143 23.9618L41.9132 23.9521C41.9128 23.5822 41.7654 23.2274 41.5033 22.9658C41.2412 22.7042 40.8859 22.5571 40.5152 22.5566L17.0651 22.5566Z" fill="#3F3D56"/>
<path id="Vector_34" d="M29.7002 28.5303C24.6191 28.5303 19.235 28.0694 12.1884 27.1474H12.1877C11.8224 27.1469 11.4701 27.0118 11.1984 26.768C10.9267 26.5242 10.7547 26.1889 10.7154 25.8264C10.709 25.7719 10.7059 25.7171 10.7061 25.6622V21.4306C10.7059 21.4216 10.7063 21.4126 10.7073 21.4036C10.7153 21.0148 10.8753 20.6445 11.1531 20.3719C11.431 20.0994 11.8047 19.9462 12.1943 19.9451C24.4538 18.2812 31.9011 18.2813 45.3908 19.9455H45.3914C45.7808 19.948 46.1537 20.1025 46.4305 20.3758C46.7072 20.6492 46.8659 21.0198 46.8726 21.4084C46.8734 21.4158 46.8737 21.4232 46.8735 21.4306V25.6622C46.8737 25.7172 46.8706 25.7722 46.8641 25.8268C46.8242 26.1903 46.6511 26.5262 46.3782 26.7701C46.1052 27.0139 45.7516 27.1484 45.3853 27.1477C39.5571 28.0693 34.7801 28.5303 29.7002 28.5303Z" fill="#FF6363"/>
<path id="Vector_35" d="M30.516 31.4701H27.4331C27.0407 31.4696 26.6646 31.3138 26.3871 31.0369C26.1096 30.7599 25.9536 30.3844 25.9531 29.9927V18.8123C25.9536 18.4206 26.1096 18.0451 26.3871 17.7682C26.6646 17.4912 27.0407 17.3354 27.4331 17.335H30.516C30.9084 17.3354 31.2846 17.4912 31.5621 17.7682C31.8395 18.0451 31.9956 18.4206 31.9961 18.8123V29.9927C31.9956 30.3844 31.8395 30.7599 31.5621 31.0369C31.2846 31.3138 30.9084 31.4696 30.516 31.4701Z" fill="#3F3D56"/>
<path id="Vector_36" d="M37.5149 15.1953C37.4926 14.9857 37.4533 14.7782 37.3974 14.5749C37.337 14.3713 37.2606 14.1727 37.1689 13.9811C36.84 13.2766 36.2853 12.7017 35.5924 12.3471C34.7325 11.9246 33.7488 11.89 32.8242 12.0936C32.047 12.2674 31.3172 12.6084 30.6857 13.093C30.3584 13.3392 30.0592 13.6208 29.7938 13.9327C29.5199 14.2608 29.0103 15.1623 28.9736 15.2457C28.6854 14.5928 28.272 14.0024 27.7566 13.508C27.1576 12.9404 26.4425 12.509 25.6605 12.2435C25.2447 12.1036 24.8132 12.0161 24.3757 11.9828C23.9129 11.9444 23.4468 11.985 22.9976 12.1028C22.1907 12.3284 21.4927 12.8377 21.0325 13.5367C20.594 14.1864 20.3786 14.9606 20.4188 15.743C20.441 16.138 20.5264 16.5269 20.6716 16.895C20.7494 17.0943 20.8418 17.2876 20.9478 17.4735C21.0576 17.657 21.1803 17.8325 21.315 17.9987C21.8438 18.6464 22.556 19.1198 23.3585 19.357C24.2154 19.6214 25.1243 19.63 26.0053 19.5059C26.9101 19.3785 27.781 19.0861 28.6332 18.7659C28.7469 18.7232 28.8601 18.6792 28.9735 18.6357C29.731 18.9266 30.495 19.2072 31.2881 19.3853C32.1802 19.6004 33.1061 19.6374 34.0127 19.4944C34.8577 19.3559 35.6433 18.9728 36.2721 18.3927C36.8539 17.8461 37.2611 17.1403 37.4426 16.3636C37.5322 15.981 37.5567 15.586 37.5149 15.1953ZM25.77 18.6361C25.281 18.6987 24.7862 18.7016 24.2965 18.6447C23.9455 18.5939 23.6016 18.5026 23.2718 18.3725C22.4943 18.0493 21.8746 17.4351 21.5453 16.6613C21.4468 16.4174 21.3767 16.163 21.3363 15.9032C21.3104 15.672 21.3103 15.4386 21.3361 15.2074C21.3745 14.9642 21.4402 14.726 21.532 14.4975C21.6314 14.2752 21.7547 14.0645 21.8999 13.8689C22.0407 13.6939 22.1997 13.5344 22.3744 13.3931C22.54 13.2709 22.7182 13.1667 22.9059 13.0822C23.13 12.9948 23.3632 12.9326 23.6011 12.8966C23.9233 12.861 24.2486 12.8635 24.5703 12.9042C24.953 12.9632 25.3276 13.0662 25.6865 13.2113C26.0683 13.3767 26.4291 13.5867 26.7614 13.8369C27.0689 14.0801 27.3476 14.3574 27.5921 14.6636C27.8342 14.985 28.0372 15.334 28.1969 15.7032C28.3521 16.0884 28.4611 16.4906 28.5217 16.9013L28.5224 16.9073C28.4987 17.1137 28.4869 17.3213 28.4869 17.529C28.4871 17.609 28.4906 17.6889 28.4946 17.7688C28.4565 17.8054 28.4248 17.8481 28.4007 17.8951C27.7724 18.1411 27.1284 18.345 26.4729 18.5053C26.2406 18.5589 26.0063 18.6025 25.77 18.6361ZM36.6126 15.9032C36.5722 16.163 36.5021 16.4175 36.4036 16.6614C36.0759 17.4362 35.4556 18.0509 34.6771 18.3725C34.3473 18.5026 34.0034 18.594 33.6524 18.6447C33.1618 18.7017 32.6661 18.6987 32.1762 18.6358C31.306 18.5116 30.4666 18.2374 29.6456 17.9314C29.6118 17.9188 29.5782 17.9056 29.5445 17.8929C29.5216 17.8466 29.4912 17.8044 29.4545 17.768C29.469 17.4781 29.46 17.1875 29.4276 16.8991C29.4882 16.4891 29.5971 16.0877 29.752 15.7032C29.9117 15.334 30.1147 14.985 30.3568 14.6636C30.6013 14.3574 30.88 14.0801 31.1875 13.8369C31.5198 13.5867 31.8806 13.3767 32.2624 13.2113C32.6213 13.0662 32.9959 12.9632 33.3787 12.9042C33.7003 12.8635 34.0256 12.861 34.3478 12.8966C34.5857 12.9326 34.8189 12.9949 35.043 13.0822C35.2308 13.1667 35.409 13.2709 35.5746 13.3932C35.7492 13.5344 35.9083 13.6939 36.0491 13.8689C36.1942 14.0645 36.3175 14.2753 36.4169 14.4975C36.5087 14.7261 36.5745 14.9642 36.6128 15.2074C36.6386 15.4386 36.6385 15.672 36.6126 15.9032Z" fill="#3F3D56"/>
<path id="Vector_37" d="M19.591 31.9652C19.8898 31.9652 20.1321 31.7233 20.1321 31.425C20.1321 31.1266 19.8898 30.8848 19.591 30.8848C19.2921 30.8848 19.0498 31.1266 19.0498 31.425C19.0498 31.7233 19.2921 31.9652 19.591 31.9652Z" fill="#FF6363"/>
<path id="Vector_38" d="M23.4688 30.6146C23.7676 30.6146 24.0099 30.3727 24.0099 30.0744C24.0099 29.776 23.7676 29.5342 23.4688 29.5342C23.1699 29.5342 22.9276 29.776 22.9276 30.0744C22.9276 30.3727 23.1699 30.6146 23.4688 30.6146Z" fill="#FF6363"/>
<path id="Vector_39" d="M21.7551 34.846C22.054 34.846 22.2963 34.6042 22.2963 34.3058C22.2963 34.0075 22.054 33.7656 21.7551 33.7656C21.4563 33.7656 21.214 34.0075 21.214 34.3058C21.214 34.6042 21.4563 34.846 21.7551 34.846Z" fill="#FF6363"/>
<path id="Vector_40" d="M37.8095 31.9652C38.1083 31.9652 38.3506 31.7233 38.3506 31.425C38.3506 31.1266 38.1083 30.8848 37.8095 30.8848C37.5106 30.8848 37.2683 31.1266 37.2683 31.425C37.2683 31.7233 37.5106 31.9652 37.8095 31.9652Z" fill="#FF6363"/>
<path id="Vector_41" d="M33.9308 30.6146C34.2297 30.6146 34.472 30.3727 34.472 30.0744C34.472 29.776 34.2297 29.5342 33.9308 29.5342C33.6319 29.5342 33.3896 29.776 33.3896 30.0744C33.3896 30.3727 33.6319 30.6146 33.9308 30.6146Z" fill="#FF6363"/>
<path id="Vector_42" d="M35.6448 34.846C35.9437 34.846 36.186 34.6042 36.186 34.3058C36.186 34.0075 35.9437 33.7656 35.6448 33.7656C35.3459 33.7656 35.1036 34.0075 35.1036 34.3058C35.1036 34.6042 35.3459 34.846 35.6448 34.846Z" fill="#FF6363"/>
<path id="Vector_43" d="M38.2609 41.4183C38.5598 41.4183 38.802 41.1764 38.802 40.8781C38.802 40.5797 38.5598 40.3379 38.2609 40.3379C37.962 40.3379 37.7197 40.5797 37.7197 40.8781C37.7197 41.1764 37.962 41.4183 38.2609 41.4183Z" fill="#FF6363"/>
<path id="Vector_44" d="M39.6133 37.5472C39.9122 37.5472 40.1545 37.3053 40.1545 37.007C40.1545 36.7086 39.9122 36.4668 39.6133 36.4668C39.3144 36.4668 39.0721 36.7086 39.0721 37.007C39.0721 37.3053 39.3144 37.5472 39.6133 37.5472Z" fill="#FF6363"/>
<path id="Vector_45" d="M35.3743 39.2571C35.6732 39.2571 35.9154 39.0153 35.9154 38.717C35.9154 38.4186 35.6732 38.1768 35.3743 38.1768C35.0754 38.1768 34.8331 38.4186 34.8331 38.717C34.8331 39.0153 35.0754 39.2571 35.3743 39.2571Z" fill="#FF6363"/>
<path id="Vector_46" d="M22.7472 41.4183C23.0461 41.4183 23.2884 41.1764 23.2884 40.8781C23.2884 40.5797 23.0461 40.3379 22.7472 40.3379C22.4483 40.3379 22.2061 40.5797 22.2061 40.8781C22.2061 41.1764 22.4483 41.4183 22.7472 41.4183Z" fill="#FF6363"/>
<path id="Vector_47" d="M24.0998 37.5472C24.3986 37.5472 24.6409 37.3053 24.6409 37.007C24.6409 36.7086 24.3986 36.4668 24.0998 36.4668C23.8009 36.4668 23.5586 36.7086 23.5586 37.007C23.5586 37.3053 23.8009 37.5472 24.0998 37.5472Z" fill="#FF6363"/>
<path id="Vector_48" d="M19.8615 39.2571C20.1603 39.2571 20.4026 39.0153 20.4026 38.717C20.4026 38.4186 20.1603 38.1768 19.8615 38.1768C19.5626 38.1768 19.3203 38.4186 19.3203 38.717C19.3203 39.0153 19.5626 39.2571 19.8615 39.2571Z" fill="#FF6363"/>
<path id="Path 2961" d="M35.4097 3.26607C35.6147 3.35146 35.8382 3.38273 36.0587 3.35687C36.2792 3.331 36.4894 3.24888 36.6689 3.11841C37.1266 2.77769 37.2981 2.18293 37.4418 1.63147L37.8663 0L37.1494 0.43452C36.6337 0.746943 36.1063 1.06972 35.7341 1.54403C35.3619 2.01834 35.1736 2.683 35.4189 3.23341" fill="#F2F2F2"/>
<path id="Path 2961_2" d="M16.2337 17.2022C16.3721 17.0288 16.4635 16.8228 16.4989 16.604C16.5344 16.3852 16.5129 16.161 16.4363 15.9529C16.2334 15.4202 15.7073 15.0926 15.2154 14.8036L13.7598 13.9492L13.982 14.7565C14.1418 15.3371 14.3084 15.9319 14.6634 16.4192C15.0185 16.9064 15.6073 17.2692 16.2048 17.1845" fill="#F2F2F2"/>
<path id="Path 2961_3" d="M50.4172 42.3213C50.5556 42.148 50.6469 41.942 50.6824 41.7232C50.7179 41.5044 50.6963 41.2801 50.6198 41.072C50.4169 40.5393 49.8908 40.2117 49.3989 39.9227L47.9432 39.0684L48.1655 39.8757C48.3253 40.4563 48.4918 41.0511 48.8469 41.5383C49.2019 42.0255 49.7908 42.3883 50.3882 42.3036" fill="#F2F2F2"/>
<path id="Vector_49" d="M22.9276 10.4474C23.3261 10.4474 23.6491 10.1249 23.6491 9.7271C23.6491 9.32931 23.3261 9.00684 22.9276 9.00684C22.5291 9.00684 22.2061 9.32931 22.2061 9.7271C22.2061 10.1249 22.5291 10.4474 22.9276 10.4474Z" fill="#FF6363"/>
<path id="Vector_50" d="M3.71654 31.6944C4.11504 31.6944 4.43808 31.372 4.43808 30.9742C4.43808 30.5764 4.11504 30.2539 3.71654 30.2539C3.31804 30.2539 2.995 30.5764 2.995 30.9742C2.995 31.372 3.31804 31.6944 3.71654 31.6944Z" fill="#FF6363"/>
<path id="Vector_51" d="M53.3231 25.8429C53.7216 25.8429 54.0447 25.5204 54.0447 25.1226C54.0447 24.7248 53.7216 24.4023 53.3231 24.4023C52.9246 24.4023 52.6016 24.7248 52.6016 25.1226C52.6016 25.5204 52.9246 25.8429 53.3231 25.8429Z" fill="#FF6363"/>
<path id="Vector_52" d="M2.99498 13.5977C3.39348 13.5977 3.71653 13.2753 3.71653 12.8775C3.71653 12.4797 3.39348 12.1572 2.99498 12.1572C2.59648 12.1572 2.27344 12.4797 2.27344 12.8775C2.27344 13.2753 2.59648 13.5977 2.99498 13.5977Z" fill="#E6E6E6"/>
<path id="Vector_53" d="M47.6405 34.1261C48.039 34.1261 48.362 33.8036 48.362 33.4058C48.362 33.008 48.039 32.6855 47.6405 32.6855C47.242 32.6855 46.9189 33.008 46.9189 33.4058C46.9189 33.8036 47.242 34.1261 47.6405 34.1261Z" fill="#E6E6E6"/>
<path id="Vector_54" d="M49.0838 12.2481C49.4823 12.2481 49.8054 11.9257 49.8054 11.5279C49.8054 11.1301 49.4823 10.8076 49.0838 10.8076C48.6853 10.8076 48.3623 11.1301 48.3623 11.5279C48.3623 11.9257 48.6853 12.2481 49.0838 12.2481Z" fill="#E6E6E6"/>
<path id="Vector_55" d="M17.4463 23.7031C17.3839 23.8016 17.2327 23.7873 17.1478 23.7257C17.0299 23.6402 17.0681 23.4756 17.1492 23.3783C17.4072 23.0691 17.834 23.3956 17.8915 23.7026C17.9129 23.8523 17.8898 24.005 17.8251 24.1417C17.7604 24.2785 17.6569 24.3932 17.5274 24.4718C17.233 24.6459 16.8507 24.5586 16.5976 24.3502C16.0696 23.9154 16.2134 23.045 16.7998 22.7305C17.174 22.5297 17.6472 22.6178 18.0159 22.786C18.4309 22.9753 18.7878 23.2654 19.1715 23.5072C20.0136 24.0334 20.9662 24.3581 21.9549 24.4559C22.1279 24.4735 22.1267 24.2033 21.9549 24.1858C21.407 24.1293 20.8692 24 20.3556 23.8014C19.8474 23.5958 19.3651 23.3316 18.9185 23.014C18.4666 22.7048 17.9945 22.4045 17.4353 22.3534C17.2096 22.3271 16.981 22.3609 16.7726 22.4514C16.5643 22.5419 16.3837 22.6858 16.2491 22.8686C16.1295 23.0322 16.0493 23.2211 16.0151 23.4208C15.9808 23.6204 15.9933 23.8252 16.0516 24.0192C16.1219 24.2221 16.2448 24.4027 16.4077 24.5427C16.5707 24.6828 16.7679 24.7772 16.9793 24.8165C17.1828 24.8548 17.3932 24.8289 17.5812 24.7422C17.7692 24.6554 17.9255 24.5123 18.0281 24.3328C18.2339 23.9774 18.2272 23.5001 17.9163 23.2054C17.8272 23.115 17.7156 23.0498 17.593 23.0165C17.4704 22.9832 17.3411 22.983 17.2184 23.0159C17.1053 23.0541 17.0059 23.1243 16.9321 23.2179C16.8584 23.3116 16.8136 23.4247 16.8032 23.5434C16.7732 24.0047 17.4292 24.2354 17.6799 23.8394C17.7732 23.6921 17.5392 23.5564 17.4463 23.7031Z" fill="#3F3D56"/>
<path id="Vector_56" d="M40.585 23.7031C40.6474 23.8016 40.7986 23.7873 40.8836 23.7257C41.0015 23.6402 40.9633 23.4756 40.8821 23.3783C40.6241 23.0691 40.1974 23.3956 40.1398 23.7026C40.1184 23.8523 40.1415 24.005 40.2062 24.1417C40.271 24.2785 40.3745 24.3932 40.5039 24.4718C40.7983 24.6459 41.1807 24.5586 41.4338 24.3502C41.9617 23.9154 41.818 23.045 41.2316 22.7305C40.8573 22.5297 40.3842 22.6178 40.0155 22.786C39.6005 22.9753 39.2436 23.2654 38.8598 23.5072C38.0177 24.0334 37.0651 24.3581 36.0765 24.4559C35.9034 24.4735 35.9046 24.2033 36.0765 24.1858C36.6243 24.1293 37.1622 24 37.6758 23.8014C38.1839 23.5958 38.6662 23.3316 39.1128 23.014C39.5647 22.7048 40.0368 22.4045 40.5961 22.3534C40.8217 22.3271 41.0504 22.3609 41.2587 22.4514C41.4671 22.5419 41.6477 22.6858 41.7822 22.8686C41.9019 23.0322 41.982 23.2211 42.0163 23.4208C42.0505 23.6204 42.038 23.8252 41.9797 24.0192C41.9094 24.2221 41.7866 24.4027 41.6236 24.5427C41.4607 24.6828 41.2635 24.7772 41.0521 24.8165C40.8486 24.8548 40.6381 24.8289 40.4501 24.7422C40.2621 24.6554 40.1059 24.5123 40.0033 24.3328C39.7974 23.9774 39.8041 23.5001 40.115 23.2054C40.2041 23.115 40.3157 23.0498 40.4383 23.0165C40.5609 22.9832 40.6902 22.983 40.8129 23.0159C40.926 23.0541 41.0255 23.1243 41.0992 23.2179C41.173 23.3116 41.2177 23.4247 41.2281 23.5434C41.2581 24.0047 40.6021 24.2354 40.3514 23.8394C40.2581 23.6921 40.4921 23.5564 40.585 23.7031Z" fill="#3F3D56"/>
<path id="Vector_57" d="M8.03058 3.27371L7.67316 3.72132L6.40918 2.97495L6.76652 2.52734L8.03058 3.27371Z" fill="#E4E4E4"/>
<path id="Vector_58" d="M9.3491 5.19727L9.66474 5.66751L8.33688 6.32681L8.02124 5.85664L9.3491 5.19727Z" fill="#E4E4E4"/>
<path id="Vector_59" d="M10.724 3.15234L11.3548 3.17465L11.292 4.49216L10.6611 4.46993L10.724 3.15234Z" fill="#E4E4E4"/>
<path id="Vector_60" d="M52.6761 30.8235L52.3187 31.2711L51.0547 30.5248L51.4121 30.0771L52.6761 30.8235Z" fill="#E4E4E4"/>
<path id="Vector_61" d="M53.9946 32.7471L54.3103 33.2173L52.9824 33.8766L52.6667 33.4064L53.9946 32.7471Z" fill="#E4E4E4"/>
<path id="Vector_62" d="M55.3695 30.7021L56.0003 30.7245L55.9375 32.042L55.3066 32.0197L55.3695 30.7021Z" fill="#E4E4E4"/>
</g>
<defs>
<clipPath id="clip0_625_10793">
<rect width="56" height="43" fill="white"/>
</clipPath>
</defs>
</svg>
