<svg width="20" height="20" viewBox="0 0 20 20" fill="none" xmlns="http://www.w3.org/2000/svg">
<g id="view_week">
<mask id="mask0_494_8270" style="mask-type:alpha" maskUnits="userSpaceOnUse" x="0" y="0" width="20" height="20">
<rect id="Bounding box" width="20" height="20" fill="#D9D9D9"/>
</mask>
<g mask="url(#mask0_494_8270)">
<path id="view_week_2" d="M3.33341 14.9997H6.66675V4.99967H3.33341V14.9997ZM8.33341 14.9997H11.6667V4.99967H8.33341V14.9997ZM13.3334 14.9997H16.6667V4.99967H13.3334V14.9997ZM3.33341 16.6663C2.87508 16.6663 2.48272 16.5031 2.15633 16.1768C1.82994 15.8504 1.66675 15.458 1.66675 14.9997V4.99967C1.66675 4.54134 1.82994 4.14898 2.15633 3.82259C2.48272 3.4962 2.87508 3.33301 3.33341 3.33301H16.6667C17.1251 3.33301 17.5174 3.4962 17.8438 3.82259C18.1702 4.14898 18.3334 4.54134 18.3334 4.99967V14.9997C18.3334 15.458 18.1702 15.8504 17.8438 16.1768C17.5174 16.5031 17.1251 16.6663 16.6667 16.6663H3.33341Z" fill="#7E7E7E"/>
</g>
</g>
</svg>
