<svg width="35" height="35" viewBox="0 0 35 35" fill="none" xmlns="http://www.w3.org/2000/svg">
<g id="Group 9172">
<circle id="Ellipse 9" cx="17.5" cy="17.5" r="17.5" fill="#FFB300"/>
<g id="supervisor_account">
<mask id="mask0_625_10645" style="mask-type:alpha" maskUnits="userSpaceOnUse" x="6" y="5" width="24" height="24">
<rect id="Bounding box" x="6" y="5" width="24" height="24" fill="#D9D9D9"/>
</mask>
<g mask="url(#mask0_625_10645)">
<path id="supervisor_account_2" d="M8 25V22.2C8 21.6333 8.14167 21.1125 8.425 20.6375C8.70833 20.1625 9.1 19.8 9.6 19.55C10.6 19.05 11.6375 18.6667 12.7125 18.4C13.7875 18.1333 14.8833 18 16 18C16.4167 18 16.8333 18.0292 17.25 18.0875C17.6667 18.1458 18.0833 18.2167 18.5 18.3V19.875C17.75 20.2417 17.1458 20.725 16.6875 21.325C16.2292 21.925 16 22.7083 16 23.675V25H8ZM18 25V23.6C18 23.2 18.1042 22.8292 18.3125 22.4875C18.5208 22.1458 18.8167 21.9 19.2 21.75C19.8 21.5 20.4208 21.3125 21.0625 21.1875C21.7042 21.0625 22.35 21 23 21C23.65 21 24.2958 21.0625 24.9375 21.1875C25.5792 21.3125 26.2 21.5 26.8 21.75C27.1833 21.9 27.4792 22.1458 27.6875 22.4875C27.8958 22.8292 28 23.2 28 23.6V25H18ZM23 20C22.3 20 21.7083 19.7583 21.225 19.275C20.7417 18.7917 20.5 18.2 20.5 17.5C20.5 16.8 20.7417 16.2083 21.225 15.725C21.7083 15.2417 22.3 15 23 15C23.7 15 24.2917 15.2417 24.775 15.725C25.2583 16.2083 25.5 16.8 25.5 17.5C25.5 18.2 25.2583 18.7917 24.775 19.275C24.2917 19.7583 23.7 20 23 20ZM16 17C14.9 17 13.9583 16.6083 13.175 15.825C12.3917 15.0417 12 14.1 12 13C12 11.9 12.3917 10.9583 13.175 10.175C13.9583 9.39167 14.9 9 16 9C17.1 9 18.0417 9.39167 18.825 10.175C19.6083 10.9583 20 11.9 20 13C20 14.1 19.6083 15.0417 18.825 15.825C18.0417 16.6083 17.1 17 16 17Z" fill="white"/>
</g>
</g>
</g>
</svg>
