<svg width="17" height="18" viewBox="0 0 17 18" fill="none" xmlns="http://www.w3.org/2000/svg">
<path d="M8.49935 17.3337L4.33268 13.167L5.49935 12.0003L7.66602 14.1462V5.66699H9.33268V14.1462L11.4993 12.0003L12.666 13.167L8.49935 17.3337ZM1.54102 13.5837C1.09657 12.9031 0.756293 12.1739 0.520182 11.3962C0.284071 10.6184 0.166016 9.81977 0.166016 9.00033C0.166016 7.84755 0.384766 6.76421 0.822266 5.75033C1.25977 4.73644 1.85352 3.85449 2.60352 3.10449C3.35352 2.35449 4.23546 1.76074 5.24935 1.32324C6.26324 0.885742 7.34657 0.666992 8.49935 0.666992C9.65213 0.666992 10.7355 0.885742 11.7493 1.32324C12.7632 1.76074 13.6452 2.35449 14.3952 3.10449C15.1452 3.85449 15.7389 4.73644 16.1764 5.75033C16.6139 6.76421 16.8327 7.84755 16.8327 9.00033C16.8327 9.81977 16.7146 10.6184 16.4785 11.3962C16.2424 12.1739 15.9021 12.9031 15.4577 13.5837L14.2493 12.3753C14.5549 11.8614 14.7841 11.3198 14.9368 10.7503C15.0896 10.1809 15.166 9.59755 15.166 9.00033C15.166 7.13921 14.5202 5.56283 13.2285 4.27116C11.9368 2.97949 10.3605 2.33366 8.49935 2.33366C6.63824 2.33366 5.06185 2.97949 3.77018 4.27116C2.47852 5.56283 1.83268 7.13921 1.83268 9.00033C1.83268 9.59755 1.90907 10.1809 2.06185 10.7503C2.21463 11.3198 2.44379 11.8614 2.74935 12.3753L1.54102 13.5837Z" fill="white"/>
</svg>
