<svg width="20" height="20" viewBox="0 0 20 20" fill="none" xmlns="http://www.w3.org/2000/svg">
<mask id="mask0_494_10790" style="mask-type:alpha" maskUnits="userSpaceOnUse" x="0" y="0" width="20" height="20">
<rect width="20" height="20" fill="#D9D9D9"/>
</mask>
<g mask="url(#mask0_494_10790)">
<path d="M7.49996 11.6663V5.83301H15C15.9166 5.83301 16.7013 6.1594 17.3541 6.81217C18.0069 7.46495 18.3333 8.24967 18.3333 9.16634V11.6663H7.49996ZM1.66663 14.1663V12.4997H18.3333V14.1663H1.66663ZM4.16663 11.6663C3.47218 11.6663 2.8819 11.4233 2.39579 10.9372C1.90968 10.4511 1.66663 9.86079 1.66663 9.16634C1.66663 8.4719 1.90968 7.88162 2.39579 7.39551C2.8819 6.9094 3.47218 6.66634 4.16663 6.66634C4.86107 6.66634 5.45135 6.9094 5.93746 7.39551C6.42357 7.88162 6.66663 8.4719 6.66663 9.16634C6.66663 9.86079 6.42357 10.4511 5.93746 10.9372C5.45135 11.4233 4.86107 11.6663 4.16663 11.6663Z" fill="#7E7E7E"/>
</g>
</svg>
