<svg width="29" height="29" viewBox="0 0 29 29" fill="none" xmlns="http://www.w3.org/2000/svg">
<circle cx="14.5" cy="14.5" r="14.5" fill="#DAC5FF"/>
<mask id="mask0_630_10581" style="mask-type:alpha" maskUnits="userSpaceOnUse" x="5" y="4" width="20" height="20">
<rect x="5" y="4" width="20" height="20" fill="#D9D9D9"/>
</mask>
<g mask="url(#mask0_630_10581)">
<path d="M17.7084 7.79909C17.4167 7.79909 17.1702 7.69858 16.9688 7.49756C16.7674 7.29655 16.6667 7.05048 16.6667 6.75935C16.6667 6.46822 16.7674 6.22215 16.9688 6.02113C17.1702 5.82012 17.4167 5.71961 17.7084 5.71961C18 5.71961 18.2465 5.82012 18.4479 6.02113C18.6493 6.22215 18.75 6.46822 18.75 6.75935C18.75 7.05048 18.6493 7.29655 18.4479 7.49756C18.2465 7.69858 18 7.79909 17.7084 7.79909ZM17.7084 21.5237C17.4167 21.5237 17.1702 21.4232 16.9688 21.2221C16.7674 21.0211 16.6667 20.7751 16.6667 20.4839C16.6667 20.1928 16.7674 19.9467 16.9688 19.7457C17.1702 19.5447 17.4167 19.4442 17.7084 19.4442C18 19.4442 18.2465 19.5447 18.4479 19.7457C18.6493 19.9467 18.75 20.1928 18.75 20.4839C18.75 20.7751 18.6493 21.0211 18.4479 21.2221C18.2465 21.4232 18 21.5237 17.7084 21.5237ZM21.0417 10.7104C20.75 10.7104 20.5035 10.6099 20.3021 10.4088C20.1007 10.2078 20 9.96175 20 9.67062C20 9.3795 20.1007 9.13342 20.3021 8.93241C20.5035 8.73139 20.75 8.63088 21.0417 8.63088C21.3334 8.63088 21.5799 8.73139 21.7813 8.93241C21.9827 9.13342 22.0834 9.3795 22.0834 9.67062C22.0834 9.96175 21.9827 10.2078 21.7813 10.4088C21.5799 10.6099 21.3334 10.7104 21.0417 10.7104ZM21.0417 18.6124C20.75 18.6124 20.5035 18.5119 20.3021 18.3109C20.1007 18.1099 20 17.8638 20 17.5727C20 17.2815 20.1007 17.0355 20.3021 16.8344C20.5035 16.6334 20.75 16.5329 21.0417 16.5329C21.3334 16.5329 21.5799 16.6334 21.7813 16.8344C21.9827 17.0355 22.0834 17.2815 22.0834 17.5727C22.0834 17.8638 21.9827 18.1099 21.7813 18.3109C21.5799 18.5119 21.3334 18.6124 21.0417 18.6124ZM22.2917 14.6614C22 14.6614 21.7535 14.5609 21.5521 14.3599C21.3507 14.1588 21.25 13.9128 21.25 13.6216C21.25 13.3305 21.3507 13.0844 21.5521 12.8834C21.7535 12.6824 22 12.5819 22.2917 12.5819C22.5834 12.5819 22.8299 12.6824 23.0313 12.8834C23.2327 13.0844 23.3334 13.3305 23.3334 13.6216C23.3334 13.9128 23.2327 14.1588 23.0313 14.3599C22.8299 14.5609 22.5834 14.6614 22.2917 14.6614ZM15 21.9396C13.8472 21.9396 12.7639 21.7212 11.75 21.2845C10.7361 20.8478 9.85419 20.2552 9.10419 19.5066C8.35419 18.758 7.76044 17.8776 7.32294 16.8656C6.88544 15.8536 6.66669 14.7723 6.66669 13.6216C6.66669 12.471 6.88544 11.3897 7.32294 10.3776C7.76044 9.36563 8.35419 8.48532 9.10419 7.73671C9.85419 6.98809 10.7361 6.39544 11.75 5.95875C12.7639 5.52206 13.8472 5.30371 15 5.30371V6.9673C13.1389 6.9673 11.5625 7.61194 10.2709 8.90122C8.97919 10.1905 8.33335 11.764 8.33335 13.6216C8.33335 15.4793 8.97919 17.0528 10.2709 18.3421C11.5625 19.6313 13.1389 20.276 15 20.276V21.9396ZM15 15.2852C14.5417 15.2852 14.1493 15.1223 13.8229 14.7965C13.4965 14.4708 13.3334 14.0791 13.3334 13.6216C13.3334 13.5523 13.3368 13.4795 13.3438 13.4033C13.3507 13.327 13.3681 13.2543 13.3959 13.1849L11.6667 11.459L12.8334 10.2945L14.5625 12.0204C14.6181 12.0066 14.7639 11.9858 15 11.9581C15.4584 11.9581 15.8507 12.1209 16.1771 12.4467C16.5035 12.7725 16.6667 13.1642 16.6667 13.6216C16.6667 14.0791 16.5035 14.4708 16.1771 14.7965C15.8507 15.1223 15.4584 15.2852 15 15.2852Z" fill="#7E7E7E"/>
</g>
</svg>
