<svg width="20" height="20" viewBox="0 0 20 20" fill="none" xmlns="http://www.w3.org/2000/svg">
<mask id="mask0_494_10781" style="mask-type:alpha" maskUnits="userSpaceOnUse" x="0" y="0" width="20" height="20">
<rect width="20" height="20" fill="#D9D9D9"/>
</mask>
<g mask="url(#mask0_494_10781)">
<path d="M6.99996 9.66602L8.74996 7.91602L6.97913 6.14518L6.10413 7.02018L6.99996 7.89518L6.10413 8.79102L6.99996 9.66602ZM17.5 7.49935C17.0416 7.49935 16.6493 7.33615 16.3229 7.00977C15.9965 6.68338 15.8333 6.29102 15.8333 5.83268C15.8333 5.45768 15.9375 5.05838 16.1458 4.63477C16.3541 4.21115 16.8055 3.49935 17.5 2.49935C18.1944 3.49935 18.6458 4.21115 18.8541 4.63477C19.0625 5.05838 19.1666 5.45768 19.1666 5.83268C19.1666 6.29102 19.0034 6.68338 18.677 7.00977C18.3507 7.33615 17.9583 7.49935 17.5 7.49935ZM13.0208 9.68685L13.9166 8.79102L13.0208 7.89518L13.8958 7.02018L13.0208 6.14518L11.25 7.91602L13.0208 9.68685ZM9.99996 11.2493C9.63885 11.2493 9.28815 11.291 8.94788 11.3743C8.6076 11.4577 8.28468 11.5757 7.97913 11.7285L4.99996 9.99935C4.99996 9.77713 4.9444 9.56879 4.83329 9.37435C4.72218 9.1799 4.5694 9.02713 4.37496 8.91602C4.0694 8.74935 3.75343 8.71115 3.42704 8.80143C3.10065 8.89171 2.84718 9.08268 2.66663 9.37435C2.49996 9.6799 2.46176 9.99588 2.55204 10.3223C2.64232 10.6487 2.83329 10.9021 3.12496 11.0827C3.3194 11.1938 3.52774 11.2493 3.74996 11.2493C3.97218 11.2493 4.18051 11.1938 4.37496 11.0827L6.85413 12.5202C6.61801 12.7563 6.40621 13.0098 6.21871 13.2806C6.03121 13.5514 5.87496 13.8466 5.74996 14.166H7.12496C7.41663 13.666 7.81246 13.2632 8.31246 12.9577C8.81246 12.6521 9.37496 12.4993 9.99996 12.4993C10.625 12.4993 11.1875 12.6521 11.6875 12.9577C12.1875 13.2632 12.5833 13.666 12.875 14.166H14.25C13.9166 13.3049 13.3715 12.6035 12.6145 12.0618C11.8576 11.5202 10.9861 11.2493 9.99996 11.2493ZM9.99996 18.3327C8.83329 18.3327 7.74301 18.1139 6.72913 17.6764C5.71524 17.2389 4.83329 16.6452 4.08329 15.8952C3.33329 15.1452 2.74301 14.2632 2.31246 13.2493C1.8819 12.2355 1.66663 11.1521 1.66663 9.99935C1.66663 8.84657 1.8819 7.76324 2.31246 6.74935C2.74301 5.73546 3.33329 4.85352 4.08329 4.10352C4.83329 3.35352 5.71524 2.75977 6.72913 2.32227C7.74301 1.88477 8.83329 1.66602 9.99996 1.66602C11.0277 1.66602 11.9965 1.83268 12.9062 2.16602C13.8159 2.49935 14.6319 2.97157 15.3541 3.58268C15.1597 3.94379 14.9826 4.3049 14.8229 4.66602C14.6632 5.02713 14.5833 5.41602 14.5833 5.83268C14.5833 6.65213 14.868 7.3431 15.4375 7.9056C16.0069 8.4681 16.6944 8.74935 17.5 8.74935C17.625 8.74935 17.75 8.7424 17.875 8.72852C18 8.71463 18.118 8.69379 18.2291 8.66602C18.2569 8.88824 18.2812 9.10699 18.302 9.32227C18.3229 9.53754 18.3333 9.76324 18.3333 9.99935C18.3333 11.1521 18.1145 12.2355 17.677 13.2493C17.2395 14.2632 16.6458 15.1452 15.8958 15.8952C15.1458 16.6452 14.2638 17.2389 13.25 17.6764C12.2361 18.1139 11.1527 18.3327 9.99996 18.3327Z" fill="#7E7E7E"/>
</g>
</svg>
