<svg width="39" height="29" viewBox="0 0 39 29" fill="none" xmlns="http://www.w3.org/2000/svg">
<g id="undraw_things_to_say_re_jpcg 1" clip-path="url(#clip0_625_11342)">
<path id="Vector" d="M14.5943 4.87453C15.7417 5.83428 17.0209 5.03075 18.2469 4.96936C18.8154 4.94089 19.3828 5.0779 19.9432 5.18011C20.475 5.27713 21.0049 5.41824 21.4912 5.65888C22.0211 5.91199 22.472 6.30492 22.7949 6.79529C22.8591 6.89552 22.9559 6.82151 22.9551 6.7017C22.9474 5.42942 22.3971 5.53244 21.8225 5.62627C21.2763 5.71548 20.8119 5.17362 20.2728 5.05701C19.7088 4.94355 19.1387 4.86235 18.5654 4.81378C17.9438 4.7521 17.3208 4.71025 16.6961 4.68823C15.9957 4.66354 15.2951 4.66382 14.5943 4.68908C14.4752 4.69331 14.4747 4.87878 14.5943 4.87453Z" fill="#3F3D56"/>
<path id="Vector_2" d="M10.7239 15.1092C10.7403 15.1268 10.7493 15.15 10.7488 15.1741C10.7484 15.1981 10.7387 15.221 10.7217 15.238C10.7047 15.255 10.6817 15.2647 10.6577 15.2651C10.6337 15.2656 10.6104 15.2566 10.5928 15.2403C9.83467 14.5906 9.07649 13.9413 8.31831 13.2925C8.31744 13.2915 8.31639 13.2907 8.31522 13.29C8.26256 13.2505 8.21276 13.2074 8.16618 13.1608C7.46057 13.0786 6.68507 12.8066 5.9504 12.6886C5.30168 12.785 4.65482 12.9 4.00424 12.9853C3.43742 13.064 2.86597 13.1049 2.2937 13.1077C1.82804 13.1052 1.96276 11.912 1.54038 11.6919C1.10131 11.4632 0.220775 12.2034 0.108223 11.741C0.0526132 11.5043 0.0164189 11.2634 0 11.0209V9.51322C0.0599863 8.85675 1.10564 9.05926 1.60223 8.60122C2.34742 7.91385 2.60044 6.30137 3.55403 6.28221C4.69044 6.25825 5.82721 6.30801 6.95717 6.43118C7.87861 6.53255 8.84767 6.63084 9.69985 7.02336C10.0653 7.19211 10.4098 8.16815 10.6615 8.48525C10.9487 8.85568 11.1113 9.30748 11.1259 9.77592C11.1711 10.7705 10.7184 11.6804 10.4704 12.6194C10.2552 13.4322 10.134 14.4175 10.7239 15.1092Z" fill="#F2F2F2"/>
<path id="Vector_3" d="M8.40476 13.3884C9.17342 14.047 9.94219 14.7054 10.7111 15.3637C10.7287 15.3801 10.7519 15.3891 10.776 15.3886C10.8 15.3882 10.823 15.3785 10.84 15.3615C10.857 15.3445 10.8667 15.3215 10.8672 15.2975C10.8676 15.2735 10.8587 15.2502 10.8423 15.2326C10.2523 14.5414 10.3735 13.5561 10.5886 12.7428C10.8369 11.8037 11.2895 10.8942 11.2442 9.89982C11.2299 9.43126 11.0672 8.97931 10.7797 8.60897C10.5197 8.29734 10.1905 8.05077 9.81829 7.88896C8.96615 7.49645 7.99727 7.39773 7.07542 7.29661C5.9456 7.17333 4.80896 7.1235 3.67268 7.14743C2.7188 7.16703 1.60298 7.18444 0.857835 7.87201C0.179225 8.49818 0.0865374 9.48289 0.0930815 10.3523C0.0968724 10.856 0.10654 11.3733 0.226335 11.8649C0.338945 12.327 0.583149 12.7771 1.02236 13.0057C1.44482 13.2257 1.94672 13.2291 2.41195 13.2313C2.98422 13.2289 3.55566 13.1879 4.12241 13.1086C5.25671 12.9603 6.38018 12.7208 7.52366 12.6484C7.80348 12.6307 8.08414 12.6228 8.3645 12.6287C8.48393 12.6312 8.48391 12.4457 8.3645 12.4432C7.25267 12.42 6.15227 12.6108 5.05835 12.7846C4.00026 12.9527 2.91862 13.1112 1.84462 13.0262C1.60918 13.0152 1.37768 12.9616 1.16132 12.8682C0.952365 12.7689 0.775557 12.6129 0.651112 12.418C0.371511 11.9827 0.318536 11.4375 0.294384 10.9297C0.266831 10.4903 0.270912 10.0495 0.306594 9.61061C0.347801 9.1851 0.447036 8.75349 0.673718 8.38614C1.19079 7.54819 2.23624 7.1995 3.12849 7.35004C4.13325 7.51956 4.90182 8.32233 6.43502 7.42018C6.9163 7.13699 7.54698 7.53108 8.09922 7.61436C8.51193 7.67124 8.91901 7.76333 9.316 7.88962C9.69798 8.00614 10.0539 8.19523 10.3642 8.44652C10.689 8.72108 10.9151 9.09422 11.008 9.50912C11.221 10.4646 10.7989 11.4183 10.52 12.3124C10.2713 13.1094 10.0592 14.0455 10.394 14.8497C10.4721 15.0366 10.5791 15.2101 10.7111 15.3637L10.8423 15.2326C10.0736 14.5741 9.30482 13.9156 8.53594 13.2573C8.44574 13.18 8.31392 13.3106 8.40476 13.3884Z" fill="#E6E6E6"/>
<path id="Vector_4" d="M5.1296 9.0733H2.33308C2.30742 9.0733 2.28281 9.06311 2.26467 9.04498C2.24652 9.02684 2.23633 9.00224 2.23633 8.97659C2.23633 8.95094 2.24652 8.92634 2.26467 8.90821C2.28281 8.89007 2.30742 8.87988 2.33308 8.87988H5.1296C5.15526 8.87988 5.17986 8.89007 5.19801 8.90821C5.21615 8.92634 5.22635 8.95094 5.22635 8.97659C5.22635 9.00224 5.21615 9.02684 5.19801 9.04498C5.17986 9.06311 5.15526 9.0733 5.1296 9.0733Z" fill="white"/>
<path id="Vector_5" d="M5.1296 11.1358H2.33308C2.32038 11.1358 2.30779 11.1333 2.29606 11.1284C2.28432 11.1236 2.27365 11.1165 2.26467 11.1075C2.25568 11.0985 2.24855 11.0878 2.24369 11.0761C2.23883 11.0644 2.23633 11.0518 2.23633 11.0391C2.23633 11.0264 2.23883 11.0138 2.24369 11.0021C2.24855 10.9904 2.25568 10.9797 2.26467 10.9707C2.27365 10.9617 2.28432 10.9546 2.29606 10.9497C2.30779 10.9449 2.32038 10.9424 2.33308 10.9424H5.1296C5.15526 10.9424 5.17986 10.9526 5.19801 10.9707C5.21615 10.9888 5.22635 11.0134 5.22635 11.0391C5.22635 11.0647 5.21615 11.0893 5.19801 11.1075C5.17986 11.1256 5.15526 11.1358 5.1296 11.1358Z" fill="white"/>
<path id="Vector_6" d="M7.40081 10.1055H2.33308C2.30742 10.1055 2.28281 10.0953 2.26467 10.0772C2.24652 10.0591 2.23633 10.0345 2.23633 10.0088C2.23633 9.98317 2.24652 9.95857 2.26467 9.94043C2.28281 9.9223 2.30742 9.91211 2.33308 9.91211H7.40081C7.42647 9.91211 7.45108 9.9223 7.46922 9.94043C7.48737 9.95857 7.49756 9.98317 7.49756 10.0088C7.49756 10.0345 7.48737 10.0591 7.46922 10.0772C7.45108 10.0953 7.42647 10.1055 7.40081 10.1055Z" fill="white"/>
<path id="Vector_7" d="M13.8156 19.8079C13.832 19.8255 13.8409 19.8487 13.8405 19.8727C13.8401 19.8967 13.8303 19.9197 13.8133 19.9367C13.7963 19.9536 13.7734 19.9634 13.7494 19.9638C13.7253 19.9642 13.7021 19.9553 13.6845 19.9389C12.9263 19.2893 12.1681 18.64 11.41 17.9912C11.4091 17.9902 11.408 17.9893 11.4069 17.9887C11.3542 17.9492 11.3044 17.906 11.2578 17.8595C10.5522 17.7773 9.77672 17.5053 9.04204 17.3873C8.39333 17.4837 7.62278 18.2168 6.97221 18.3021C6.40538 18.3808 5.83394 18.4217 5.26167 18.4245C4.796 18.422 4.93073 16.9197 4.50835 16.6996C4.06927 16.4709 3.31242 16.902 3.19987 16.4396C3.14236 16.2041 2.8584 15.9624 2.83984 15.7195V14.2119C2.89983 13.5554 3.33468 12.9051 3.83127 12.4471C4.57646 11.7597 5.69208 11.7418 6.64568 11.7226C7.78209 11.6987 8.91886 11.7484 10.0488 11.8716C10.9703 11.973 11.9393 12.0713 12.7915 12.4638C13.1637 12.6258 13.493 12.8723 13.7531 13.1839C14.0404 13.5543 14.203 14.0061 14.2176 14.4746C14.2627 15.4692 13.81 16.3791 13.562 17.318C13.3468 18.1309 13.2256 19.1162 13.8156 19.8079Z" fill="#F2F2F2"/>
<path id="Vector_8" d="M11.4966 18.0857C12.2652 18.7443 13.034 19.4027 13.8029 20.061C13.8205 20.0774 13.8437 20.0863 13.8678 20.0859C13.8918 20.0855 13.9148 20.0757 13.9318 20.0587C13.9488 20.0417 13.9585 20.0188 13.959 19.9948C13.9594 19.9707 13.9505 19.9475 13.9341 19.9299C13.3441 19.2387 13.4653 18.2533 13.6804 17.44C13.9287 16.501 14.3813 15.5914 14.336 14.5971C14.3217 14.1285 14.159 13.6766 13.8715 13.3062C13.6115 12.9946 13.2823 12.748 12.9101 12.5862C12.0579 12.1937 11.0891 12.095 10.1672 11.9939C9.0374 11.8706 7.90076 11.8208 6.76448 11.8447C5.8106 11.8643 4.69477 11.8817 3.94963 12.5693C3.27102 13.1955 3.17833 14.1802 3.18488 15.0496C3.18867 15.5533 3.19834 16.0706 3.31813 16.5622C3.43074 17.0243 3.67495 17.4744 4.11416 17.703C4.53662 17.9229 5.03852 17.9264 5.50375 17.9286C6.07601 17.9262 6.64746 17.8852 7.2142 17.8059C8.34851 17.6576 9.47198 17.4181 10.6155 17.3457C10.8953 17.328 11.1759 17.3201 11.4563 17.3259C11.5757 17.3284 11.5757 17.143 11.4563 17.1405C10.3445 17.1173 9.24407 17.3081 8.15015 17.4819C7.09206 17.65 6.01042 17.8085 4.93642 17.7234C4.70098 17.7124 4.46948 17.6589 4.25312 17.5654C4.04416 17.4662 3.86735 17.3102 3.74291 17.1152C3.46331 16.68 3.41033 16.1348 3.38618 15.627C3.35863 15.1876 3.36271 14.7467 3.39839 14.3079C3.4396 13.8824 3.53883 13.4508 3.76551 13.0834C4.28259 12.2455 5.46143 11.5547 6.22029 12.0473C7.08731 12.6102 8.19618 12.6345 9.52682 12.1174C10.0473 11.9152 10.6388 12.2283 11.191 12.3116C11.6037 12.3685 12.0108 12.4606 12.4078 12.5869C12.7898 12.7034 13.1457 12.8925 13.456 13.1438C13.7808 13.4183 14.0069 13.7915 14.0998 14.2064C14.3128 15.1618 13.8907 16.1155 13.6118 17.0097C13.3631 17.8067 13.151 18.7428 13.4858 19.547C13.5639 19.7339 13.6709 19.9073 13.8029 20.061L13.9341 19.9299C13.1654 19.2713 12.3966 18.6129 11.6277 17.9546C11.5375 17.8773 11.4057 18.0079 11.4966 18.0857Z" fill="#E6E6E6"/>
<path id="Vector_9" d="M8.22127 13.7715H5.42476C5.3991 13.7715 5.37448 13.7614 5.35634 13.7432C5.3382 13.7251 5.328 13.7005 5.328 13.6748C5.328 13.6492 5.3382 13.6246 5.35634 13.6064C5.37448 13.5883 5.3991 13.5781 5.42476 13.5781H8.22127C8.24693 13.5781 8.27154 13.5883 8.28968 13.6064C8.30783 13.6246 8.31802 13.6492 8.31802 13.6748C8.31802 13.7005 8.30783 13.7251 8.28968 13.7432C8.27154 13.7614 8.24693 13.7715 8.22127 13.7715Z" fill="white"/>
<path id="Vector_10" d="M8.22127 15.834H5.42476C5.3991 15.834 5.37448 15.8239 5.35634 15.8057C5.3382 15.7876 5.328 15.763 5.328 15.7373C5.328 15.7117 5.3382 15.6871 5.35634 15.6689C5.37448 15.6508 5.3991 15.6406 5.42476 15.6406H8.22127C8.24693 15.6406 8.27154 15.6508 8.28968 15.6689C8.30783 15.6871 8.31802 15.7117 8.31802 15.7373C8.31802 15.763 8.30783 15.7876 8.28968 15.8057C8.27154 15.8239 8.24693 15.834 8.22127 15.834Z" fill="white"/>
<path id="Vector_11" d="M10.4925 14.8028H5.42476C5.3991 14.8028 5.37448 14.7926 5.35634 14.7745C5.3382 14.7563 5.328 14.7317 5.328 14.7061C5.328 14.6804 5.3382 14.6558 5.35634 14.6377C5.37448 14.6196 5.3991 14.6094 5.42476 14.6094H10.4925C10.5181 14.6094 10.5428 14.6196 10.5609 14.6377C10.579 14.6558 10.5892 14.6804 10.5892 14.7061C10.5892 14.7317 10.579 14.7563 10.5609 14.7745C10.5428 14.7926 10.5181 14.8028 10.4925 14.8028Z" fill="white"/>
<path id="Vector_12" d="M29.0592 23.2368H21.244C21.1723 23.2368 21.1035 23.2084 21.0528 23.1577C21.0021 23.107 20.9736 23.0382 20.9736 22.9666C20.9736 22.8949 21.0021 22.8261 21.0528 22.7755C21.1035 22.7248 21.1723 22.6963 21.244 22.6963H29.0592C29.1309 22.6963 29.1997 22.7248 29.2504 22.7755C29.3011 22.8261 29.3296 22.8949 29.3296 22.9666C29.3296 23.0382 29.3011 23.107 29.2504 23.1577C29.1997 23.2084 29.1309 23.2368 29.0592 23.2368Z" fill="#F2F2F2"/>
<path id="Vector_13" d="M29.0592 28.9995H21.244C21.1723 28.9995 21.1035 28.971 21.0528 28.9204C21.0021 28.8697 20.9736 28.8009 20.9736 28.7293C20.9736 28.6576 21.0021 28.5888 21.0528 28.5381C21.1035 28.4875 21.1723 28.459 21.244 28.459H29.0592C29.1309 28.459 29.1997 28.4875 29.2504 28.5381C29.3011 28.5888 29.3296 28.6576 29.3296 28.7293C29.3296 28.8009 29.3011 28.8697 29.2504 28.9204C29.1997 28.971 29.1309 28.9995 29.0592 28.9995Z" fill="#F2F2F2"/>
<path id="Vector_14" d="M35.4066 26.1206H21.2443C21.2088 26.1207 21.1736 26.1137 21.1407 26.1002C21.1079 26.0866 21.078 26.0667 21.0529 26.0416C21.0277 26.0165 21.0077 25.9867 20.9941 25.9539C20.9805 25.9211 20.9735 25.8859 20.9735 25.8503C20.9735 25.8148 20.9805 25.7796 20.9941 25.7468C21.0077 25.714 21.0277 25.6842 21.0529 25.6591C21.078 25.634 21.1079 25.6141 21.1407 25.6005C21.1736 25.587 21.2088 25.58 21.2443 25.5801H35.4066C35.4782 25.5802 35.5469 25.6087 35.5975 25.6594C35.6481 25.7101 35.6766 25.7787 35.6766 25.8503C35.6766 25.922 35.6481 25.9906 35.5975 26.0413C35.5469 26.092 35.4782 26.1205 35.4066 26.1206Z" fill="#F2F2F2"/>
<path id="Vector_15" d="M16.8333 25.8162L17.2773 26.2339L19.1362 24.6829L18.481 24.0664L16.8333 25.8162Z" fill="#FFB6B6"/>
<path id="Vector_16" d="M17.6412 27.6227L17.3945 26.4728L17.6935 26.1552L17.5325 26.0206L17.0327 25.6043L16.9104 25.502L15.7607 26.5355L16.094 26.8487L16.4493 26.5904L16.3051 27.0476L17.1878 27.8782C17.2301 27.918 17.284 27.9432 17.3417 27.9502C17.3994 27.9572 17.4578 27.9456 17.5084 27.9171C17.5591 27.8885 17.5992 27.8446 17.6231 27.7917C17.647 27.7387 17.6533 27.6795 17.6412 27.6227Z" fill="#2F2E41"/>
<path id="Vector_17" d="M14.6688 27.4314L15.2716 27.523L15.9197 25.1908L15.0301 25.0557L14.6688 27.4314Z" fill="#FFB6B6"/>
<path id="Vector_18" d="M16.3607 28.4591L15.504 27.6529L15.5696 27.2218L15.3606 27.2024L14.7127 27.1437L14.5539 27.1289L14.1953 28.6324L14.6476 28.7008L14.7931 28.2865L14.9344 28.7446L16.1328 28.9268C16.1903 28.9355 16.249 28.9256 16.3005 28.8986C16.3519 28.8716 16.3934 28.8289 16.4188 28.7767C16.4443 28.7245 16.4523 28.6655 16.4419 28.6084C16.4314 28.5512 16.403 28.4989 16.3607 28.4591Z" fill="#2F2E41"/>
<path id="Vector_19" d="M20.4674 10.8643L22.1961 13.9589C22.1961 13.9589 22.124 20.3235 22.3537 20.5596C22.5834 20.7957 22.7914 21.0074 22.5834 21.0055C22.3754 21.0036 22.4425 22.5092 22.4425 22.5092L18.6084 25.4763L17.6807 24.7345L20.0079 21.8633L18.7227 15.9863C18.7227 15.9863 17.7994 21.5442 17.633 21.7105C17.4666 21.8768 17.3662 21.8756 17.5412 22.0425C17.7162 22.2095 17.5412 22.587 17.5412 22.587L15.717 26.3713L14.7275 26.2465C14.7275 26.2465 14.8991 23.1572 15.4964 21.8309V15.5633C15.4514 16.1007 17.5559 10.6617 16.269 11.0699C16.6762 10.9408 20.4674 10.8643 20.4674 10.8643Z" fill="#2F2E41"/>
<path id="Vector_20" d="M19.6748 3.49023H18.2457L18.0434 4.29918L16.9446 4.60288C16.9446 4.60288 16.4011 8.20539 16.8576 8.49597C17.314 8.78655 16.9958 9.69551 16.9958 9.69551C16.9958 9.69551 15.8591 10.9226 15.9955 11.1044C16.1319 11.2862 16.4086 11.0096 16.0884 11.3297C15.7681 11.6498 15.5862 11.6043 15.6772 11.6952C15.7334 11.7529 15.777 11.8216 15.8052 11.8971L15.413 12.9178C15.413 12.9178 17.4959 13.3313 18.5417 12.7405C19.5875 12.1497 21.9063 13.2859 21.9063 13.2859C21.9063 13.2859 21.7871 12.6893 21.6876 12.6013C21.5881 12.5133 21.3561 12.7359 21.5175 12.4428C21.679 12.1497 21.8154 12.286 21.679 12.1497C21.5426 12.0134 20.9515 10.1954 20.9515 10.1954C20.9515 10.1954 20.4968 9.19558 20.997 8.78655C21.4971 8.37752 21.6876 7.03591 21.6876 7.03591L21.088 4.60288L20.0876 4.3781L19.6748 3.49023Z" fill="#E6E6E6"/>
<path id="Vector_21" d="M14.0174 12.7784L14.3606 11.4032L13.6021 11.0977L13.291 12.5644C13.22 12.6169 13.1651 12.6882 13.1324 12.7702C13.0997 12.8521 13.0905 12.9416 13.1059 13.0285C13.1213 13.1154 13.1606 13.1963 13.2195 13.2621C13.2784 13.3279 13.3544 13.376 13.4391 13.4009C13.5238 13.4259 13.6138 13.4267 13.699 13.4033C13.7841 13.3799 13.8611 13.3333 13.9211 13.2686C13.9812 13.2039 14.0221 13.1238 14.0391 13.0372C14.0561 12.9506 14.0486 12.8609 14.0174 12.7784Z" fill="#FFB6B6"/>
<path id="Vector_22" d="M17.3514 4.51017L17.3288 4.50628C17.1182 4.47012 16.902 4.4858 16.6988 4.55198C16.4957 4.61816 16.3117 4.73284 16.1629 4.88608C15.7743 5.28564 14.0399 8.25709 14.1023 8.7537C14.1605 9.21682 14.1829 9.1138 13.9711 9.35027C13.7592 9.58673 13.6786 9.22663 13.6753 9.71894C13.672 10.2113 13.8602 10.207 13.6602 10.3273C13.4602 10.4477 13.3279 10.3639 13.3644 10.696C13.401 11.0282 13.345 11.1163 13.3332 11.2324C13.3214 11.3485 13.0342 12.0934 13.0342 12.0934C13.0342 12.0934 13.8794 12.3203 14.2203 12.66C14.2203 12.66 14.2591 11.8194 14.4311 11.7431C14.6032 11.6668 14.7635 11.7065 14.7151 11.4905C14.6667 11.2744 14.4183 11.1787 14.7226 11.1863C15.027 11.1938 15.497 9.57612 15.497 9.57612L17.5297 5.86922L17.3514 4.51017Z" fill="#E6E6E6"/>
<path id="Vector_23" d="M21.939 13.4598L22 12.0438L22.8141 11.9658L22.6963 13.4606C22.7494 13.531 22.7819 13.6149 22.79 13.7028C22.7981 13.7907 22.7814 13.8791 22.742 13.9581C22.7026 14.037 22.6419 14.1035 22.5668 14.1499C22.4917 14.1962 22.4051 14.2208 22.3168 14.2207C22.2285 14.2206 22.142 14.1959 22.067 14.1493C21.9919 14.1028 21.9314 14.0362 21.8921 13.9572C21.8529 13.8781 21.8365 13.7897 21.8447 13.7018C21.853 13.6139 21.8856 13.5301 21.939 13.4598Z" fill="#FFB6B6"/>
<path id="Vector_24" d="M21.0879 4.58594L21.1108 4.58862C21.323 4.61365 21.5259 4.68999 21.7019 4.81105C21.8779 4.93211 22.0218 5.09423 22.121 5.28338C22.3802 5.77668 23.2003 9.11782 22.9995 9.57634C22.8122 10.0039 22.82 9.8988 22.956 10.1856C23.0921 10.4724 23.2716 10.15 23.1351 10.623C22.9985 11.096 22.8192 11.0386 22.9769 11.2107C23.1346 11.3828 23.2852 11.3399 23.1559 11.6481C23.0266 11.9562 23.0552 12.0566 23.0336 12.1713C23.012 12.286 23.0761 13.0817 23.0761 13.0817C23.0761 13.0817 22.2012 13.0596 21.7779 13.2887C21.7779 13.2887 21.9792 12.4717 21.8359 12.3497C21.6925 12.2278 21.5276 12.2205 21.6353 12.027C21.743 11.8335 22.0083 11.8122 21.7144 11.7332C21.4204 11.6541 21.4287 9.96956 21.4287 9.96956L20.5314 5.83863L21.0879 4.58594Z" fill="#E6E6E6"/>
<path id="Vector_25" d="M15.7134 2.53498C15.7021 3.02255 15.8844 3.49467 16.1462 3.90934C16.2337 3.66856 16.3562 3.44198 16.5098 3.2369C16.4363 3.69126 16.5146 4.15718 16.7327 4.56255C16.7404 4.56805 16.7483 4.57315 16.7565 4.57785C16.97 4.7062 17.2406 4.75818 17.4716 4.66548C16.9944 4.15141 16.9337 3.29966 17.3337 2.72305C17.447 2.55943 17.5935 2.41472 17.6636 2.22852C17.7744 1.93143 17.6679 1.60433 17.6007 1.29458C17.5379 1.00629 17.5269 0.663236 17.7204 0.451961C17.6998 0.422436 17.6716 0.398934 17.6389 0.383863C17.6061 0.368792 17.57 0.362695 17.5341 0.366196C17.4148 0.38304 17.3279 0.486688 17.2726 0.59344C17.2173 0.700188 17.1808 0.818503 17.1038 0.910704C16.961 1.08328 16.718 1.12409 16.5131 1.21504C16.017 1.43591 15.7253 1.99244 15.7134 2.53498Z" fill="#2F2E41"/>
<path id="Vector_26" d="M19.8891 2.25625C19.8607 2.15707 20.0561 2.76333 19.9618 2.77427C19.5324 2.82352 18.9429 3.07988 18.6438 3.19948C18.6303 3.19792 18.6168 3.19635 18.6037 3.1944C18.5717 3.19088 18.5404 3.1858 18.5095 3.17994C17.813 3.04822 17.5452 1.97885 17.5452 1.96908C17.5452 1.921 17.6606 0.60062 17.8424 0.581078C17.8902 0.575898 17.9382 0.573288 17.9862 0.57326H18.4375C18.5309 0.553149 18.6255 0.539437 18.7207 0.532222H18.7215C19.63 0.463041 20.3462 1.01648 20.2793 1.68991C20.2789 1.69069 20.2781 1.69148 20.2777 1.69226C20.2583 1.72118 20.2412 1.74854 20.2262 1.77473C20.2115 1.79935 20.1993 1.8228 20.1886 1.84508C20.1058 2.01705 20.3186 2.23345 20.1775 2.27384C19.9898 2.32756 20.6711 4.09324 19.9282 4.09324C20.2896 4.19594 19.9673 2.52984 19.8891 2.25625Z" fill="#2F2E41"/>
<path id="Vector_27" d="M19.0781 3.29299C19.6682 3.29299 20.1465 2.81488 20.1465 2.22511C20.1465 1.63533 19.6682 1.15723 19.0781 1.15723C18.4881 1.15723 18.0098 1.63533 18.0098 2.22511C18.0098 2.81488 18.4881 3.29299 19.0781 3.29299Z" fill="#FFB6B6"/>
<path id="Vector_28" d="M20.2792 1.74797C20.2614 1.75735 20.2439 1.76595 20.2261 1.77455C20.2075 1.78354 20.1889 1.79253 20.1702 1.80074C19.8125 1.96294 19.5213 1.98092 19.3446 1.74797C19.3399 1.6254 19.3123 1.50479 19.2634 1.3923C19.272 1.51801 19.2389 1.64304 19.1691 1.74797H18.8134C18.4469 1.99108 18.2587 2.01649 18.5131 2.8146C18.584 3.03699 18.8659 4.33109 18.755 4.523C18.7229 4.51948 18.3815 3.10204 18.3506 3.09618C17.6542 2.96446 17.2116 1.81754 17.2683 1.75266C17.268 1.56816 17.3105 1.3861 17.3923 1.22072C17.4958 1.0112 17.6572 0.835694 17.8574 0.714964C17.9767 0.657135 18.1011 0.610426 18.229 0.575431C18.2322 0.574648 18.2349 0.573865 18.2381 0.573085C18.2773 0.562532 18.3173 0.552761 18.3574 0.544552C18.44 0.527106 18.5236 0.514448 18.6077 0.506641C18.6137 0.506251 18.6196 0.505859 18.6252 0.505859C18.6588 0.505938 18.6917 0.514978 18.7207 0.532046C18.721 0.532046 18.721 0.532436 18.7214 0.532436C18.7421 0.544509 18.7602 0.560588 18.7745 0.579729C18.7998 0.611934 18.8135 0.651737 18.8134 0.692685H19.2095C19.2242 0.692685 19.2388 0.693075 19.2535 0.693856C19.5179 0.702888 19.7694 0.810219 19.9588 0.994845C20.1483 1.17947 20.2619 1.4281 20.2776 1.69208C20.2788 1.71084 20.2792 1.72921 20.2792 1.74797Z" fill="#2F2E41"/>
<path id="Vector_29" d="M17.9433 1.40705C18.3321 1.40705 18.6472 1.09207 18.6472 0.703527C18.6472 0.31498 18.3321 0 17.9433 0C17.5546 0 17.2395 0.31498 17.2395 0.703527C17.2395 1.09207 17.5546 1.40705 17.9433 1.40705Z" fill="#2F2E41"/>
<path id="Vector_30" d="M24.6309 21.8999C24.6596 21.9012 24.6881 21.8937 24.7124 21.8783C24.7367 21.8629 24.7557 21.8404 24.7668 21.8139C24.7779 21.7874 24.7806 21.7581 24.7744 21.73C24.7683 21.7019 24.7537 21.6763 24.7326 21.6568L24.723 21.6186C24.7242 21.6155 24.7255 21.6125 24.7268 21.6094C24.7557 21.541 24.8043 21.4827 24.8663 21.4418C24.9283 21.401 25.001 21.3793 25.0752 21.3796C25.1495 21.3798 25.2221 21.402 25.2837 21.4434C25.3454 21.4847 25.3935 21.5434 25.422 21.612C25.5357 21.8857 25.6804 22.1599 25.7161 22.4493C25.7318 22.5772 25.7252 22.7069 25.6965 22.8326C25.9636 22.2503 26.1022 21.6174 26.1031 20.9769C26.1032 20.8161 26.0942 20.6555 26.0764 20.4958C26.0616 20.3648 26.0411 20.2348 26.0149 20.1057C25.8717 19.4053 25.5644 18.7488 25.1181 18.1901C24.9022 18.0723 24.7275 17.8912 24.6177 17.6711C24.5779 17.592 24.5498 17.5076 24.5342 17.4204C24.5585 17.4236 24.626 17.0527 24.6077 17.0299C24.6416 16.9784 24.7024 16.9528 24.7395 16.9026C24.9239 16.6526 25.178 16.6963 25.3107 17.0359C25.594 17.1789 25.5968 17.4159 25.4229 17.644C25.3123 17.789 25.2971 17.9853 25.2 18.1406C25.21 18.1534 25.2204 18.1658 25.2304 18.1786C25.4129 18.4132 25.572 18.6651 25.7054 18.9307C25.673 18.6332 25.7117 18.3321 25.8183 18.0524C25.9264 17.7917 26.1291 17.5722 26.3075 17.3468C26.3547 17.2863 26.4188 17.2411 26.4917 17.2169C26.5646 17.1928 26.643 17.1908 26.717 17.2112C26.7911 17.2316 26.8574 17.2735 26.9076 17.3315C26.9578 17.3896 26.9897 17.4612 26.9992 17.5374C26.9995 17.5407 26.9999 17.544 27.0002 17.5474C26.9737 17.5623 26.9478 17.5782 26.9224 17.5949C26.8905 17.6162 26.8658 17.6467 26.8515 17.6822C26.8372 17.7178 26.834 17.7569 26.8423 17.7943C26.8506 17.8317 26.87 17.8658 26.898 17.892C26.926 17.9182 26.9612 17.9354 26.9991 17.9412L27.003 17.9418C26.9936 18.0373 26.9769 18.1319 26.9531 18.2249C27.182 19.1098 26.6878 19.4321 25.9821 19.4466C25.9665 19.4546 25.9513 19.4625 25.9358 19.4701C26.0698 19.8497 26.1538 20.2451 26.1858 20.6463C26.2039 20.883 26.2028 21.1208 26.1826 21.3574L26.1838 21.349C26.2349 21.0859 26.3753 20.8486 26.5812 20.677C26.8871 20.4259 27.3192 20.3334 27.6491 20.1316C27.6842 20.1091 27.725 20.0971 27.7666 20.097C27.8083 20.0969 27.8491 20.1087 27.8843 20.131C27.9195 20.1533 27.9476 20.1853 27.9652 20.223C27.9828 20.2608 27.9892 20.3028 27.9838 20.344L27.9824 20.3529C27.9332 20.3729 27.8853 20.396 27.839 20.4219C27.8125 20.4369 27.7866 20.4527 27.7612 20.4695C27.7293 20.4908 27.7046 20.5212 27.6903 20.5568C27.676 20.5924 27.6728 20.6315 27.6811 20.6689C27.6894 20.7063 27.7088 20.7404 27.7368 20.7666C27.7648 20.7928 27.8 20.8099 27.8379 20.8158L27.8418 20.8164C27.8446 20.8168 27.847 20.8172 27.8498 20.8176C27.7658 21.0182 27.6478 21.2028 27.5011 21.3633C27.358 22.1358 26.7432 22.2091 26.0855 21.9842H26.0851C26.013 22.2976 25.9084 22.6027 25.7732 22.8945H24.6588C24.6548 22.8821 24.6512 22.8693 24.6476 22.8569C24.7508 22.8634 24.8543 22.8572 24.956 22.8386C24.8733 22.7372 24.7906 22.635 24.7079 22.5335C24.7061 22.5316 24.7043 22.5297 24.7027 22.5276C24.6608 22.4757 24.6185 22.4242 24.5765 22.3723L24.5765 22.3722C24.5743 22.2131 24.5926 22.0543 24.6309 21.8999Z" fill="#F2F2F2"/>
<path id="Vector_31" d="M8.34668 28.9163C8.34665 28.926 8.34853 28.9356 8.35222 28.9445C8.35591 28.9535 8.36133 28.9616 8.36817 28.9684C8.37501 28.9752 8.38314 28.9807 8.39208 28.9844C8.40102 28.988 8.4106 28.9899 8.42028 28.9899H38.9261C38.9456 28.9899 38.9643 28.9821 38.9781 28.9683C38.9919 28.9545 38.9997 28.9358 38.9997 28.9163C38.9997 28.8968 38.9919 28.8781 38.9781 28.8643C38.9643 28.8505 38.9456 28.8428 38.9261 28.8428H8.42028C8.4106 28.8427 8.40102 28.8446 8.39208 28.8483C8.38314 28.852 8.37501 28.8574 8.36817 28.8643C8.36133 28.8711 8.35591 28.8792 8.35222 28.8881C8.34854 28.8971 8.34665 28.9067 8.34668 28.9163Z" fill="#CCCCCC"/>
<path id="Vector_32" d="M22.1614 13.1319C22.2474 13.2227 22.117 13.3405 22.0166 13.2628C21.1796 12.6141 20.3426 11.9659 19.5056 11.3181C19.5046 11.3171 19.5034 11.3163 19.5022 11.3156C19.4444 11.2765 19.3894 11.2334 19.3376 11.1867C18.5586 11.1046 17.7025 10.833 16.8914 10.7152C16.1753 10.8114 15.4611 10.9262 14.7429 11.0114C14.1165 11.0901 13.4858 11.1309 12.8545 11.1336C12.3404 11.1311 11.7867 11.128 11.3204 10.9083C10.8357 10.68 10.566 10.2307 10.4417 9.76906C10.3805 9.53345 10.3405 9.29282 10.3223 9.05007V7.54483C10.3885 6.88941 10.5906 6.24017 11.1388 5.78286C11.9615 5.09658 13.1931 5.07868 14.2459 5.05955C15.5 5.03561 16.7545 5.08528 18.0029 5.20829C19.0202 5.3095 20.09 5.40763 21.0308 5.79952C21.4343 5.968 21.8145 6.20191 22.0924 6.51851C22.4051 6.87717 22.586 7.33177 22.6051 7.80712C22.655 8.80012 22.1552 9.70858 21.8815 10.646C21.6439 11.4576 21.51 12.4413 22.1614 13.1319Z" fill="#6C63FF"/>
<path id="Vector_33" d="M15.9519 6.72467H13.1553C13.1426 6.72467 13.1301 6.72217 13.1183 6.71731C13.1066 6.71245 13.0959 6.70532 13.0869 6.69634C13.0779 6.68736 13.0708 6.6767 13.066 6.66497C13.0611 6.65324 13.0586 6.64066 13.0586 6.62796C13.0586 6.61526 13.0611 6.60268 13.066 6.59095C13.0708 6.57922 13.0779 6.56855 13.0869 6.55957C13.0959 6.55059 13.1066 6.54347 13.1183 6.53861C13.1301 6.53375 13.1426 6.53125 13.1553 6.53125H15.9519C15.9775 6.53125 16.0021 6.54144 16.0203 6.55957C16.0384 6.57771 16.0486 6.60231 16.0486 6.62796C16.0486 6.65361 16.0384 6.67821 16.0203 6.69634C16.0021 6.71448 15.9775 6.72467 15.9519 6.72467Z" fill="white"/>
<path id="Vector_34" d="M15.9519 8.78717H13.1553C13.1297 8.78717 13.1051 8.77698 13.0869 8.75884C13.0688 8.74071 13.0586 8.71611 13.0586 8.69046C13.0586 8.66481 13.0688 8.64021 13.0869 8.62207C13.1051 8.60394 13.1297 8.59375 13.1553 8.59375H15.9519C15.9775 8.59375 16.0021 8.60394 16.0203 8.62207C16.0384 8.64021 16.0486 8.66481 16.0486 8.69046C16.0486 8.71611 16.0384 8.74071 16.0203 8.75884C16.0021 8.77698 15.9775 8.78717 15.9519 8.78717Z" fill="white"/>
<path id="Vector_35" d="M18.2231 7.75592H13.1553C13.1297 7.75592 13.1051 7.74573 13.0869 7.72759C13.0688 7.70946 13.0586 7.68486 13.0586 7.65921C13.0586 7.63356 13.0688 7.60896 13.0869 7.59082C13.1051 7.57269 13.1297 7.5625 13.1553 7.5625H18.2231C18.2487 7.5625 18.2733 7.57269 18.2915 7.59082C18.3096 7.60896 18.3198 7.63356 18.3198 7.65921C18.3198 7.68486 18.3096 7.70946 18.2915 7.72759C18.2733 7.74573 18.2487 7.75592 18.2231 7.75592Z" fill="white"/>
<path id="Vector_36" d="M22.7953 6.79527C23.0546 7.20867 23.2012 7.6845 23.1563 8.17495C23.1175 8.59815 22.9439 8.99615 22.754 9.37121C22.5572 9.75989 22.3369 10.1373 22.176 10.5431C21.9994 10.9855 21.9341 11.4644 21.9859 11.9378C22.0178 12.2452 22.0798 12.5484 22.1383 12.8516L22.3167 13.7769L22.4718 13.6867L19.9067 11.4702C19.8168 11.3925 19.685 11.5231 19.7755 11.6013L22.3406 13.8179C22.3553 13.8317 22.374 13.8403 22.3941 13.8426C22.4141 13.8449 22.4343 13.8407 22.4517 13.8305C22.4692 13.8204 22.4828 13.8049 22.4908 13.7864C22.4987 13.7678 22.5004 13.7472 22.4956 13.7277C22.3908 13.184 22.2669 12.64 22.1901 12.0915C22.146 11.8149 22.1398 11.5336 22.1717 11.2553C22.2031 11.0432 22.2589 10.8355 22.3379 10.6361C22.6455 9.8326 23.2218 9.12968 23.3328 8.25605C23.4024 7.70869 23.2459 7.16476 22.9555 6.70167C22.8923 6.60078 22.7317 6.69375 22.7953 6.79527Z" fill="#3F3D56"/>
<path id="Vector_37" d="M20.0689 10.6584L16.2754 11.107L14.3787 11.3313C13.8008 11.3996 13.1986 11.4956 12.6212 11.3747C11.6492 11.1711 11.0456 10.2907 10.8557 9.36287C10.7382 8.78852 10.7798 8.18759 10.8787 7.61379C10.9314 7.30789 11.001 7.00517 11.0762 6.70409C11.1432 6.43576 11.1932 6.14683 11.3089 5.89425C11.4013 5.68887 11.5388 5.50693 11.7111 5.36192C11.8835 5.2169 12.0863 5.11254 12.3045 5.05658C12.4408 5.02867 12.5789 5.01038 12.7178 5.00185C12.8738 4.9862 13.0299 4.9718 13.1862 4.95864C13.4987 4.93232 13.8115 4.91101 14.1247 4.89471C14.2813 4.88655 14.438 4.87965 14.5947 4.87399C14.7137 4.86964 14.7143 4.68418 14.5947 4.68855C13.9426 4.71241 13.2918 4.75759 12.6423 4.82409C12.3777 4.85134 12.133 4.89072 11.8941 5.01461C11.6877 5.12252 11.5065 5.27279 11.3622 5.45558C11.2143 5.64415 11.1059 5.86049 11.0433 6.09174C10.9579 6.39902 10.8804 6.70934 10.8097 7.02031C10.6672 7.64713 10.5648 8.2932 10.6124 8.9376C10.6828 9.89071 11.1393 10.9076 12.0252 11.3613C12.5484 11.6293 13.1454 11.6413 13.7187 11.5901C14.358 11.5331 14.9956 11.4438 15.633 11.3684L19.5794 10.9018L20.0689 10.8439C20.186 10.83 20.1874 10.6444 20.0689 10.6584Z" fill="#3F3D56"/>
</g>
<defs>
<clipPath id="clip0_625_11342">
<rect width="39" height="29" fill="white"/>
</clipPath>
</defs>
</svg>
