<svg width="222" height="222" viewBox="0 0 222 222" fill="none" xmlns="http://www.w3.org/2000/svg">
<path d="M110.062 7.74544C83.0116 7.99117 57.1379 18.8423 38.0045 37.9655C18.8711 57.0887 8.0061 82.9567 7.74595 110.007C7.48579 137.057 17.8512 163.129 36.6133 182.617C55.3753 202.105 81.0356 213.451 108.076 214.217L108.953 183.252C90.0249 182.716 72.0627 174.773 58.9293 161.132C45.7958 147.491 38.5401 129.24 38.7222 110.305C38.9043 91.3697 46.5097 73.2621 59.9031 59.8759C73.2965 46.4896 91.4081 38.8938 110.343 38.7218L110.062 7.74544Z" fill="#FFB300"/>
<path d="M181.172 186.751C171.224 195.967 159.559 203.132 146.842 207.839C134.125 212.546 120.605 214.702 107.055 214.183L108.238 183.228C117.723 183.591 127.187 182.082 136.089 178.787C144.991 175.492 153.157 170.477 160.12 164.026L181.172 186.751Z" fill="#6C63FF"/>
<path d="M110.062 7.74544C136.902 7.50162 162.782 17.7184 182.217 36.2305L160.852 58.6613C147.247 45.7029 129.131 38.5511 110.343 38.7218L110.062 7.74544Z" fill="#FF4C51"/>
<path d="M182.088 36.1072C192.326 45.8257 200.464 57.5404 205.997 70.5276C211.53 83.5147 214.341 97.4985 214.257 111.615C214.173 125.731 211.195 139.681 205.508 152.601C199.821 165.521 191.544 177.138 181.191 186.734L160.133 164.014C167.381 157.297 173.174 149.165 177.156 140.121C181.137 131.076 183.221 121.312 183.28 111.43C183.339 101.549 181.371 91.7603 177.498 82.6693C173.625 73.5783 167.928 65.378 160.761 58.5751L182.088 36.1072Z" fill="#16B1FF"/>
<path d="M96.184 104.664C94.9567 104.664 93.8658 104.454 92.9113 104.034C91.9624 103.613 91.2124 103.028 90.6613 102.278C90.1102 101.528 89.8175 100.662 89.7835 99.6786H92.988C93.0164 100.15 93.1727 100.562 93.4567 100.914C93.7408 101.261 94.1187 101.531 94.5903 101.724C95.0619 101.917 95.5903 102.014 96.1755 102.014C96.8005 102.014 97.3545 101.906 97.8374 101.69C98.3204 101.468 98.6982 101.162 98.971 100.77C99.2437 100.377 99.3772 99.9258 99.3715 99.4144C99.3772 98.886 99.2408 98.4201 98.9624 98.0167C98.684 97.6133 98.2806 97.2979 97.7522 97.0707C97.2295 96.8434 96.5988 96.7298 95.8602 96.7298H94.3175V94.2923H95.8602C96.4681 94.2923 96.9994 94.1871 97.4539 93.9769C97.9141 93.7667 98.2749 93.4712 98.5363 93.0906C98.7977 92.7042 98.9255 92.2582 98.9198 91.7525C98.9255 91.2582 98.8147 90.8292 98.5874 90.4656C98.3658 90.0962 98.0505 89.8093 97.6414 89.6048C97.238 89.4002 96.7636 89.2979 96.2181 89.2979C95.684 89.2979 95.1897 89.3945 94.7352 89.5877C94.2806 89.7809 93.9141 90.0565 93.6357 90.4144C93.3573 90.7667 93.2096 91.1871 93.1925 91.6758H90.1499C90.1727 90.6985 90.4539 89.8406 90.9937 89.1019C91.5391 88.3576 92.2664 87.7781 93.1755 87.3633C94.0846 86.9428 95.1045 86.7326 96.2352 86.7326C97.3999 86.7326 98.4113 86.9513 99.2692 87.3888C100.133 87.8207 100.8 88.4031 101.272 89.136C101.744 89.869 101.979 90.6786 101.979 91.565C101.985 92.5479 101.695 93.3718 101.11 94.0366C100.531 94.7013 99.7692 95.136 98.8261 95.3406V95.4769C100.053 95.6474 100.994 96.1019 101.647 96.8406C102.306 97.5735 102.633 98.4854 102.627 99.5763C102.627 100.554 102.349 101.429 101.792 102.201C101.241 102.968 100.479 103.571 99.5079 104.008C98.542 104.446 97.434 104.664 96.184 104.664ZM111.945 104.664C111.109 104.659 110.294 104.514 109.499 104.23C108.703 103.94 107.987 103.471 107.351 102.824C106.715 102.17 106.209 101.304 105.834 100.224C105.459 99.1388 105.274 97.7951 105.28 96.1928C105.28 94.6985 105.439 93.3661 105.757 92.1957C106.075 91.0252 106.533 90.0366 107.129 89.2298C107.726 88.4173 108.445 87.7979 109.286 87.3718C110.132 86.9457 111.078 86.7326 112.124 86.7326C113.22 86.7326 114.192 86.9485 115.038 87.3803C115.891 87.8121 116.578 88.4031 117.101 89.1531C117.624 89.8974 117.948 90.7383 118.073 91.6758H114.962C114.803 91.0053 114.476 90.4712 113.982 90.0735C113.493 89.6701 112.874 89.4684 112.124 89.4684C110.913 89.4684 109.982 89.994 109.328 91.0451C108.68 92.0962 108.354 93.5394 108.348 95.3746H108.467C108.746 94.8746 109.107 94.4457 109.55 94.0877C109.993 93.7298 110.493 93.4542 111.05 93.261C111.612 93.0621 112.206 92.9627 112.831 92.9627C113.854 92.9627 114.771 93.207 115.584 93.6957C116.402 94.1843 117.05 94.8576 117.527 95.7156C118.004 96.5678 118.24 97.5451 118.234 98.6474C118.24 99.7951 117.979 100.826 117.45 101.741C116.922 102.65 116.186 103.366 115.243 103.889C114.3 104.412 113.2 104.67 111.945 104.664ZM111.928 102.108C112.547 102.108 113.101 101.957 113.59 101.656C114.078 101.355 114.465 100.949 114.749 100.437C115.033 99.9258 115.172 99.3519 115.166 98.7156C115.172 98.0906 115.036 97.5252 114.757 97.0195C114.484 96.5138 114.107 96.1133 113.624 95.8178C113.141 95.5224 112.59 95.3746 111.97 95.3746C111.51 95.3746 111.081 95.4627 110.683 95.6388C110.286 95.815 109.939 96.0593 109.644 96.3718C109.348 96.6786 109.115 97.0366 108.945 97.4457C108.78 97.8491 108.695 98.2809 108.689 98.7411C108.695 99.3491 108.837 99.9087 109.115 100.42C109.394 100.931 109.777 101.341 110.266 101.647C110.754 101.954 111.308 102.108 111.928 102.108ZM127.507 104.664C126.672 104.659 125.857 104.514 125.061 104.23C124.266 103.94 123.55 103.471 122.913 102.824C122.277 102.17 121.771 101.304 121.396 100.224C121.021 99.1388 120.837 97.7951 120.842 96.1928C120.842 94.6985 121.001 93.3661 121.32 92.1957C121.638 91.0252 122.095 90.0366 122.692 89.2298C123.288 88.4173 124.007 87.7979 124.848 87.3718C125.695 86.9457 126.641 86.7326 127.686 86.7326C128.783 86.7326 129.754 86.9485 130.601 87.3803C131.453 87.8121 132.141 88.4031 132.663 89.1531C133.186 89.8974 133.51 90.7383 133.635 91.6758H130.524C130.365 91.0053 130.038 90.4712 129.544 90.0735C129.055 89.6701 128.436 89.4684 127.686 89.4684C126.476 89.4684 125.544 89.994 124.891 91.0451C124.243 92.0962 123.916 93.5394 123.911 95.3746H124.03C124.308 94.8746 124.669 94.4457 125.112 94.0877C125.555 93.7298 126.055 93.4542 126.612 93.261C127.175 93.0621 127.769 92.9627 128.394 92.9627C129.416 92.9627 130.334 93.207 131.146 93.6957C131.965 94.1843 132.612 94.8576 133.09 95.7156C133.567 96.5678 133.803 97.5451 133.797 98.6474C133.803 99.7951 133.541 100.826 133.013 101.741C132.484 102.65 131.749 103.366 130.805 103.889C129.862 104.412 128.763 104.67 127.507 104.664ZM127.49 102.108C128.109 102.108 128.663 101.957 129.152 101.656C129.641 101.355 130.027 100.949 130.311 100.437C130.595 99.9258 130.734 99.3519 130.729 98.7156C130.734 98.0906 130.598 97.5252 130.32 97.0195C130.047 96.5138 129.669 96.1133 129.186 95.8178C128.703 95.5224 128.152 95.3746 127.533 95.3746C127.073 95.3746 126.644 95.4627 126.246 95.6388C125.848 95.815 125.501 96.0593 125.206 96.3718C124.911 96.6786 124.678 97.0366 124.507 97.4457C124.342 97.8491 124.257 98.2809 124.251 98.7411C124.257 99.3491 124.399 99.9087 124.678 100.42C124.956 100.931 125.34 101.341 125.828 101.647C126.317 101.954 126.871 102.108 127.49 102.108Z" fill="#565656" fill-opacity="0.9"/>
<path d="M67.4857 122.222V121.129H75.1221V122.222H71.9204V131.311H70.6874V122.222H67.4857ZM78.8607 131.47C78.1713 131.47 77.5664 131.306 77.0461 130.977C76.529 130.649 76.1247 130.19 75.833 129.6C75.5447 129.01 75.4005 128.321 75.4005 127.532C75.4005 126.737 75.5447 126.042 75.833 125.449C76.1247 124.856 76.529 124.395 77.0461 124.067C77.5664 123.739 78.1713 123.575 78.8607 123.575C79.5501 123.575 80.1533 123.739 80.6704 124.067C81.1907 124.395 81.5951 124.856 81.8834 125.449C82.1751 126.042 82.3209 126.737 82.3209 127.532C82.3209 128.321 82.1751 129.01 81.8834 129.6C81.5951 130.19 81.1907 130.649 80.6704 130.977C80.1533 131.306 79.5501 131.47 78.8607 131.47ZM78.8607 130.416C79.3844 130.416 79.8153 130.281 80.1533 130.013C80.4914 129.744 80.7416 129.392 80.904 128.954C81.0664 128.517 81.1476 128.043 81.1476 127.532C81.1476 127.022 81.0664 126.546 80.904 126.105C80.7416 125.664 80.4914 125.308 80.1533 125.036C79.8153 124.765 79.3844 124.629 78.8607 124.629C78.337 124.629 77.9062 124.765 77.5681 125.036C77.23 125.308 76.9798 125.664 76.8174 126.105C76.655 126.546 76.5738 127.022 76.5738 127.532C76.5738 128.043 76.655 128.517 76.8174 128.954C76.9798 129.392 77.23 129.744 77.5681 130.013C77.9062 130.281 78.337 130.416 78.8607 130.416ZM87.433 123.674V124.669H83.4756V123.674H87.433ZM84.629 121.845H85.8023V129.123C85.8023 129.454 85.8503 129.703 85.9465 129.869C86.0459 130.031 86.1718 130.141 86.3243 130.197C86.4801 130.25 86.6441 130.276 86.8165 130.276C86.9458 130.276 87.0518 130.27 87.1347 130.257C87.2175 130.24 87.2838 130.227 87.3335 130.217L87.5722 131.271C87.4926 131.301 87.3816 131.33 87.2391 131.36C87.0966 131.393 86.9159 131.41 86.6972 131.41C86.3657 131.41 86.0409 131.339 85.7227 131.196C85.4079 131.054 85.146 130.837 84.9372 130.545C84.7317 130.253 84.629 129.885 84.629 129.441V121.845ZM91.445 131.49C90.9611 131.49 90.522 131.398 90.1276 131.216C89.7332 131.03 89.42 130.764 89.1879 130.416C88.9559 130.064 88.8399 129.64 88.8399 129.143C88.8399 128.705 88.9261 128.351 89.0985 128.079C89.2708 127.804 89.5012 127.588 89.7895 127.433C90.0779 127.277 90.396 127.161 90.7441 127.085C91.0954 127.005 91.4484 126.942 91.803 126.896C92.267 126.836 92.6432 126.791 92.9316 126.762C93.2232 126.728 93.4353 126.674 93.5679 126.597C93.7038 126.521 93.7718 126.389 93.7718 126.2V126.16C93.7718 125.669 93.6375 125.288 93.3691 125.017C93.1039 124.745 92.7012 124.609 92.161 124.609C91.6008 124.609 91.1617 124.731 90.8435 124.977C90.5253 125.222 90.3016 125.484 90.1723 125.762L89.0587 125.365C89.2575 124.901 89.5227 124.539 89.8541 124.281C90.1889 124.019 90.5535 123.837 90.9479 123.734C91.3456 123.628 91.7367 123.575 92.1212 123.575C92.3664 123.575 92.6482 123.605 92.9664 123.664C93.2878 123.721 93.5977 123.838 93.896 124.017C94.1977 124.196 94.4479 124.466 94.6468 124.828C94.8456 125.189 94.945 125.673 94.945 126.279V131.311H93.7718V130.276H93.7121C93.6325 130.442 93.5 130.619 93.3144 130.808C93.1288 130.997 92.8818 131.158 92.5736 131.291C92.2654 131.423 91.8892 131.49 91.445 131.49ZM91.624 130.436C92.088 130.436 92.4791 130.344 92.7973 130.162C93.1188 129.98 93.3608 129.744 93.5232 129.456C93.6889 129.168 93.7718 128.865 93.7718 128.546V127.472C93.722 127.532 93.6127 127.587 93.4436 127.637C93.2779 127.683 93.0857 127.724 92.8669 127.761C92.6515 127.794 92.441 127.824 92.2355 127.85C92.0334 127.874 91.8693 127.893 91.7433 127.91C91.4384 127.95 91.1534 128.014 90.8882 128.104C90.6264 128.19 90.4143 128.321 90.2519 128.497C90.0928 128.669 90.0132 128.904 90.0132 129.203C90.0132 129.61 90.164 129.919 90.4656 130.127C90.7706 130.333 91.1567 130.436 91.624 130.436ZM98.2599 121.129V131.311H97.0866V121.129H98.2599ZM104.346 134.174V123.674H105.48V124.887H105.619C105.705 124.755 105.825 124.586 105.977 124.38C106.133 124.171 106.355 123.986 106.643 123.823C106.935 123.658 107.329 123.575 107.826 123.575C108.469 123.575 109.036 123.735 109.527 124.057C110.017 124.378 110.4 124.834 110.675 125.424C110.95 126.014 111.088 126.71 111.088 127.512C111.088 128.321 110.95 129.022 110.675 129.615C110.4 130.205 110.019 130.663 109.532 130.987C109.044 131.309 108.483 131.47 107.846 131.47C107.356 131.47 106.963 131.388 106.668 131.226C106.373 131.06 106.146 130.873 105.987 130.664C105.828 130.452 105.705 130.276 105.619 130.137H105.52V134.174H104.346ZM105.5 127.492C105.5 128.069 105.584 128.578 105.753 129.019C105.922 129.456 106.169 129.799 106.494 130.048C106.819 130.293 107.217 130.416 107.687 130.416C108.178 130.416 108.587 130.286 108.915 130.028C109.247 129.766 109.495 129.415 109.661 128.974C109.83 128.53 109.915 128.036 109.915 127.492C109.915 126.955 109.832 126.472 109.666 126.041C109.504 125.606 109.257 125.263 108.925 125.012C108.597 124.756 108.184 124.629 107.687 124.629C107.21 124.629 106.809 124.75 106.484 124.992C106.159 125.23 105.914 125.565 105.748 125.996C105.583 126.423 105.5 126.922 105.5 127.492ZM116.079 131.47C115.343 131.47 114.709 131.307 114.175 130.982C113.645 130.654 113.236 130.197 112.947 129.61C112.662 129.02 112.52 128.334 112.52 127.552C112.52 126.77 112.662 126.08 112.947 125.484C113.236 124.884 113.637 124.417 114.15 124.082C114.667 123.744 115.271 123.575 115.96 123.575C116.358 123.575 116.75 123.641 117.138 123.774C117.526 123.906 117.879 124.122 118.197 124.42C118.515 124.715 118.769 125.106 118.958 125.593C119.147 126.08 119.241 126.68 119.241 127.393V127.89H113.355V126.876H118.048C118.048 126.445 117.962 126.061 117.79 125.722C117.62 125.384 117.379 125.118 117.064 124.922C116.752 124.727 116.384 124.629 115.96 124.629C115.493 124.629 115.088 124.745 114.747 124.977C114.409 125.205 114.149 125.504 113.966 125.872C113.784 126.24 113.693 126.634 113.693 127.055V127.731C113.693 128.308 113.792 128.797 113.991 129.198C114.193 129.595 114.473 129.899 114.831 130.107C115.189 130.313 115.605 130.416 116.079 130.416C116.388 130.416 116.666 130.373 116.915 130.286C117.166 130.197 117.383 130.064 117.566 129.889C117.748 129.71 117.889 129.488 117.988 129.222L119.122 129.541C119.003 129.925 118.802 130.263 118.52 130.555C118.239 130.843 117.891 131.069 117.476 131.231C117.062 131.39 116.596 131.47 116.079 131.47ZM122.199 126.717V131.311H121.026V123.674H122.16V124.867H122.259C122.438 124.48 122.71 124.168 123.074 123.933C123.439 123.694 123.91 123.575 124.486 123.575C125.003 123.575 125.456 123.681 125.843 123.893C126.231 124.102 126.533 124.42 126.748 124.847C126.964 125.272 127.071 125.809 127.071 126.458V131.311H125.898V126.538C125.898 125.938 125.742 125.471 125.431 125.136C125.119 124.798 124.692 124.629 124.148 124.629C123.774 124.629 123.439 124.71 123.144 124.872C122.852 125.035 122.622 125.272 122.453 125.583C122.284 125.895 122.199 126.273 122.199 126.717ZM132.099 131.47C131.463 131.47 130.901 131.309 130.414 130.987C129.926 130.663 129.545 130.205 129.27 129.615C128.995 129.022 128.858 128.321 128.858 127.512C128.858 126.71 128.995 126.014 129.27 125.424C129.545 124.834 129.928 124.378 130.419 124.057C130.909 123.735 131.476 123.575 132.119 123.575C132.616 123.575 133.009 123.658 133.297 123.823C133.589 123.986 133.811 124.171 133.963 124.38C134.119 124.586 134.24 124.755 134.326 124.887H134.426V121.129H135.599V131.311H134.465V130.137H134.326C134.24 130.276 134.117 130.452 133.958 130.664C133.799 130.873 133.572 131.06 133.277 131.226C132.982 131.388 132.59 131.47 132.099 131.47ZM132.258 130.416C132.729 130.416 133.126 130.293 133.451 130.048C133.776 129.799 134.023 129.456 134.192 129.019C134.361 128.578 134.446 128.069 134.446 127.492C134.446 126.922 134.363 126.423 134.197 125.996C134.031 125.565 133.786 125.23 133.461 124.992C133.136 124.75 132.735 124.629 132.258 124.629C131.761 124.629 131.347 124.756 131.015 125.012C130.687 125.263 130.44 125.606 130.274 126.041C130.112 126.472 130.031 126.955 130.031 127.492C130.031 128.036 130.114 128.53 130.279 128.974C130.448 129.415 130.697 129.766 131.025 130.028C131.357 130.286 131.768 130.416 132.258 130.416ZM137.911 131.311V123.674H139.084V131.311H137.911ZM138.507 122.401C138.279 122.401 138.081 122.324 137.916 122.168C137.753 122.012 137.672 121.825 137.672 121.606C137.672 121.387 137.753 121.2 137.916 121.044C138.081 120.888 138.279 120.811 138.507 120.811C138.736 120.811 138.932 120.888 139.094 121.044C139.26 121.2 139.343 121.387 139.343 121.606C139.343 121.825 139.26 122.012 139.094 122.168C138.932 122.324 138.736 122.401 138.507 122.401ZM142.406 126.717V131.311H141.233V123.674H142.367V124.867H142.466C142.645 124.48 142.917 124.168 143.281 123.933C143.646 123.694 144.117 123.575 144.693 123.575C145.21 123.575 145.663 123.681 146.051 123.893C146.438 124.102 146.74 124.42 146.955 124.847C147.171 125.272 147.278 125.809 147.278 126.458V131.311H146.105V126.538C146.105 125.938 145.949 125.471 145.638 125.136C145.326 124.798 144.899 124.629 144.355 124.629C143.981 124.629 143.646 124.71 143.351 124.872C143.059 125.035 142.829 125.272 142.66 125.583C142.491 125.895 142.406 126.273 142.406 126.717ZM152.505 134.333C151.938 134.333 151.451 134.26 151.043 134.115C150.636 133.972 150.296 133.783 150.024 133.548C149.756 133.316 149.542 133.067 149.383 132.802L150.317 132.146C150.423 132.285 150.558 132.444 150.72 132.623C150.882 132.805 151.105 132.963 151.386 133.095C151.671 133.231 152.044 133.299 152.505 133.299C153.121 133.299 153.63 133.15 154.031 132.852C154.432 132.553 154.633 132.086 154.633 131.45V129.899H154.533C154.447 130.038 154.324 130.21 154.165 130.416C154.01 130.618 153.784 130.798 153.489 130.958C153.198 131.113 152.803 131.191 152.306 131.191C151.69 131.191 151.136 131.045 150.646 130.754C150.158 130.462 149.772 130.038 149.487 129.481C149.205 128.924 149.065 128.248 149.065 127.453C149.065 126.67 149.202 125.989 149.477 125.409C149.752 124.826 150.135 124.375 150.626 124.057C151.116 123.735 151.683 123.575 152.326 123.575C152.823 123.575 153.217 123.658 153.509 123.823C153.804 123.986 154.03 124.171 154.185 124.38C154.344 124.586 154.467 124.755 154.553 124.887H154.672V123.674H155.806V131.529C155.806 132.186 155.657 132.719 155.359 133.13C155.064 133.544 154.666 133.848 154.165 134.04C153.668 134.235 153.115 134.333 152.505 134.333ZM152.465 130.137C152.936 130.137 153.333 130.03 153.658 129.814C153.983 129.599 154.23 129.289 154.399 128.884C154.568 128.48 154.653 127.996 154.653 127.433C154.653 126.883 154.57 126.397 154.404 125.976C154.238 125.555 153.993 125.225 153.668 124.987C153.343 124.748 152.942 124.629 152.465 124.629C151.968 124.629 151.554 124.755 151.222 125.007C150.894 125.258 150.647 125.597 150.481 126.021C150.319 126.445 150.238 126.916 150.238 127.433C150.238 127.963 150.321 128.432 150.486 128.84C150.655 129.244 150.904 129.562 151.232 129.794C151.564 130.023 151.975 130.137 152.465 130.137Z" fill="#A8A8A8"/>
</svg>
