<svg width="35" height="35" viewBox="0 0 35 35" fill="none" xmlns="http://www.w3.org/2000/svg">
<circle cx="17.5" cy="17.5" r="17.5" fill="#FF6363"/>
<mask id="mask0_815_28018" style="mask-type:alpha" maskUnits="userSpaceOnUse" x="6" y="5" width="24" height="24">
<rect x="6" y="5" width="24" height="24" fill="#D9D9D9"/>
</mask>
<g mask="url(#mask0_815_28018)">
<path d="M17.1 24H18.85V22.75C19.6833 22.6 20.4 22.275 21 21.775C21.6 21.275 21.9 20.5333 21.9 19.55C21.9 18.85 21.7 18.2083 21.3 17.625C20.9 17.0417 20.1 16.5333 18.9 16.1C17.9 15.7667 17.2083 15.475 16.825 15.225C16.4417 14.975 16.25 14.6333 16.25 14.2C16.25 13.7667 16.4042 13.425 16.7125 13.175C17.0208 12.925 17.4667 12.8 18.05 12.8C18.5833 12.8 19 12.9292 19.3 13.1875C19.6 13.4458 19.8167 13.7667 19.95 14.15L21.55 13.5C21.3667 12.9167 21.0292 12.4083 20.5375 11.975C20.0458 11.5417 19.5 11.3 18.9 11.25V10H17.15V11.25C16.3167 11.4333 15.6667 11.8 15.2 12.35C14.7333 12.9 14.5 13.5167 14.5 14.2C14.5 14.9833 14.7292 15.6167 15.1875 16.1C15.6458 16.5833 16.3667 17 17.35 17.35C18.4 17.7333 19.1292 18.075 19.5375 18.375C19.9458 18.675 20.15 19.0667 20.15 19.55C20.15 20.1 19.9542 20.5042 19.5625 20.7625C19.1708 21.0208 18.7 21.15 18.15 21.15C17.6 21.15 17.1125 20.9792 16.6875 20.6375C16.2625 20.2958 15.95 19.7833 15.75 19.1L14.1 19.75C14.3333 20.55 14.6958 21.1958 15.1875 21.6875C15.6792 22.1792 16.3167 22.5167 17.1 22.7V24ZM18 27C16.6167 27 15.3167 26.7375 14.1 26.2125C12.8833 25.6875 11.825 24.975 10.925 24.075C10.025 23.175 9.3125 22.1167 8.7875 20.9C8.2625 19.6833 8 18.3833 8 17C8 15.6167 8.2625 14.3167 8.7875 13.1C9.3125 11.8833 10.025 10.825 10.925 9.925C11.825 9.025 12.8833 8.3125 14.1 7.7875C15.3167 7.2625 16.6167 7 18 7C19.3833 7 20.6833 7.2625 21.9 7.7875C23.1167 8.3125 24.175 9.025 25.075 9.925C25.975 10.825 26.6875 11.8833 27.2125 13.1C27.7375 14.3167 28 15.6167 28 17C28 18.3833 27.7375 19.6833 27.2125 20.9C26.6875 22.1167 25.975 23.175 25.075 24.075C24.175 24.975 23.1167 25.6875 21.9 26.2125C20.6833 26.7375 19.3833 27 18 27Z" fill="white"/>
</g>
</svg>
