<svg width="20" height="20" viewBox="0 0 20 20" fill="none" xmlns="http://www.w3.org/2000/svg">
<mask id="mask0_228_8758" style="mask-type:alpha" maskUnits="userSpaceOnUse" x="0" y="0" width="20" height="20">
<rect width="20" height="20" fill="#D9D9D9"/>
</mask>
<g mask="url(#mask0_228_8758)">
<path d="M3.33335 16.6663C2.87502 16.6663 2.48266 16.5031 2.15627 16.1768C1.82988 15.8504 1.66669 15.458 1.66669 14.9997V4.99967C1.66669 4.54134 1.82988 4.14898 2.15627 3.82259C2.48266 3.4962 2.87502 3.33301 3.33335 3.33301H16.6667C17.125 3.33301 17.5174 3.4962 17.8438 3.82259C18.1702 4.14898 18.3334 4.54134 18.3334 4.99967V14.9997C18.3334 15.458 18.1702 15.8504 17.8438 16.1768C17.5174 16.5031 17.125 16.6663 16.6667 16.6663H3.33335ZM10 10.833L3.33335 6.66634V14.9997H16.6667V6.66634L10 10.833ZM10 9.16634L16.6667 4.99967H3.33335L10 9.16634ZM3.33335 6.66634V4.99967V14.9997V6.66634Z" fill="#A8A8A8"/>
</g>
</svg>
