<svg width="41" height="39" viewBox="0 0 41 39" fill="none" xmlns="http://www.w3.org/2000/svg">
<g id="undraw_resume_re_hkth 1" clip-path="url(#clip0_625_11063)">
<path id="Vector" d="M19.3297 0.325686L18.0751 1.02313L2.61823 9.61576L1.36364 10.3132C0.754873 10.6525 0.303072 11.224 0.107358 11.9023C-0.0883547 12.5806 -0.0119972 13.3103 0.31968 13.9313L11.83 35.425C12.1631 36.0452 12.724 36.5056 13.3898 36.705C14.0555 36.9044 14.7717 36.8266 15.3812 36.4886L15.3844 36.4868L33.344 26.5029L33.3472 26.5011C33.956 26.1618 34.4078 25.5903 34.6035 24.912C34.7992 24.2337 34.7229 23.504 34.3912 22.883L22.8809 1.38934C22.5478 0.769094 21.9869 0.308772 21.3211 0.109366C20.6554 -0.0900391 19.9392 -0.0122433 19.3297 0.325686Z" fill="#F2F2F2"/>
<path id="Vector_2" d="M19.6904 0.998805L18.2044 1.82488L3.21025 10.1603L1.7243 10.9863C1.29078 11.228 0.969037 11.6349 0.829664 12.118C0.690291 12.601 0.744667 13.1206 0.980863 13.5629L12.4912 35.0565C12.7284 35.4982 13.1278 35.826 13.6019 35.968C14.076 36.1101 14.586 36.0546 15.0201 35.814L15.0233 35.8122L32.9829 25.8283L32.9862 25.8265C33.4197 25.5848 33.7414 25.1778 33.8808 24.6948C34.0201 24.2118 33.9658 23.6922 33.7296 23.2499L22.2192 1.75627C21.982 1.31458 21.5826 0.98677 21.1085 0.844767C20.6344 0.702764 20.1244 0.758162 19.6904 0.998805Z" fill="white"/>
<path id="Vector_3" d="M19.9376 7.67081L13.2393 11.3944C13.1379 11.4508 13.0186 11.4639 12.9077 11.4306C12.7968 11.3974 12.7033 11.3207 12.648 11.2173C12.5926 11.1139 12.5798 10.9923 12.6124 10.8794C12.645 10.7664 12.7203 10.6712 12.8218 10.6148L19.52 6.89117C19.6215 6.83476 19.7408 6.82173 19.8517 6.85494C19.9626 6.88816 20.0561 6.9649 20.1114 7.06829C20.1668 7.17168 20.1796 7.29324 20.147 7.40623C20.1144 7.51923 20.039 7.6144 19.9376 7.67081Z" fill="#F2F2F2"/>
<path id="Vector_4" d="M22.2209 8.10928L13.9444 12.7103C13.8429 12.7667 13.7236 12.7797 13.6127 12.7465C13.5018 12.7133 13.4084 12.6365 13.3531 12.5331C13.2977 12.4298 13.2849 12.3082 13.3175 12.1952C13.3501 12.0822 13.4254 11.987 13.5269 11.9306L21.8034 7.32964C21.8536 7.30171 21.9088 7.28413 21.9657 7.27792C22.0226 7.2717 22.0802 7.27697 22.1351 7.29342C22.19 7.30987 22.2412 7.33717 22.2857 7.37378C22.3303 7.41039 22.3673 7.45557 22.3947 7.50677C22.4222 7.55796 22.4394 7.61415 22.4455 7.67214C22.4516 7.73012 22.4464 7.78876 22.4303 7.84471C22.4142 7.90066 22.3874 7.95282 22.3514 7.99822C22.3155 8.04361 22.2711 8.08135 22.2209 8.10928Z" fill="#F2F2F2"/>
<path id="Vector_5" d="M10.4861 9.84433L4.3107 13.2773C4.26208 13.3043 4.226 13.3499 4.21038 13.4041C4.19476 13.4582 4.20089 13.5164 4.2274 13.566L6.85703 18.4764C6.88357 18.5259 6.92833 18.5627 6.98146 18.5786C7.0346 18.5945 7.09176 18.5883 7.14038 18.5613L13.3158 15.1283C13.3644 15.1013 13.4005 15.0557 13.4161 15.0015C13.4317 14.9474 13.4256 14.8891 13.3991 14.8396L10.7694 9.92921C10.7429 9.87968 10.6981 9.84292 10.645 9.827C10.5919 9.81108 10.5347 9.81732 10.4861 9.84433Z" fill="#F2F2F2"/>
<path id="Vector_6" d="M23.2612 13.9013L14.1759 18.9519C14.1256 18.9798 14.0705 18.9974 14.0136 19.0036C13.9566 19.0098 13.8991 19.0046 13.8442 18.9881C13.7893 18.9717 13.7381 18.9444 13.6935 18.9078C13.649 18.8712 13.6119 18.826 13.5845 18.7748C13.5571 18.7236 13.5398 18.6674 13.5337 18.6094C13.5276 18.5514 13.5328 18.4928 13.5489 18.4368C13.5651 18.3809 13.5919 18.3287 13.6278 18.2833C13.6637 18.2379 13.7081 18.2002 13.7583 18.1723L22.8437 13.1216C22.9451 13.0652 23.0644 13.0522 23.1753 13.0854C23.2862 13.1186 23.3797 13.1954 23.435 13.2988C23.4904 13.4021 23.5032 13.5237 23.4706 13.6367C23.438 13.7497 23.3626 13.8449 23.2612 13.9013Z" fill="#F2F2F2"/>
<path id="Vector_7" d="M25.5443 14.3398L14.8807 20.2677C14.7792 20.3241 14.6599 20.3372 14.549 20.304C14.4381 20.2707 14.3447 20.194 14.2893 20.0906C14.234 19.9872 14.2212 19.8657 14.2538 19.7527C14.2864 19.6397 14.3617 19.5445 14.4632 19.4881L25.1267 13.5601C25.2282 13.5037 25.3475 13.4907 25.4584 13.5239C25.5693 13.5571 25.6627 13.6338 25.7181 13.7372C25.7735 13.8406 25.7863 13.9622 25.7537 14.0752C25.7211 14.1882 25.6457 14.2833 25.5443 14.3398Z" fill="#F2F2F2"/>
<path id="Vector_8" d="M10.7161 23.0883C11.7373 23.0883 12.5652 22.2448 12.5652 21.2043C12.5652 20.1638 11.7373 19.3203 10.7161 19.3203C9.69482 19.3203 8.86694 20.1638 8.86694 21.2043C8.86694 22.2448 9.69482 23.0883 10.7161 23.0883Z" fill="#F2F2F2"/>
<path id="Vector_9" d="M38.3827 9.18164H17.9164C17.2225 9.18244 16.5572 9.46365 16.0665 9.96357C15.5759 10.4635 15.2999 11.1413 15.2991 11.8483V36.3332C15.2999 37.0402 15.5759 37.718 16.0665 38.2179C16.5572 38.7179 17.2225 38.9991 17.9164 38.9999H38.3827C39.0766 38.9991 39.7419 38.7179 40.2326 38.2179C40.7232 37.718 40.9992 37.0402 41 36.3332V11.8483C40.9992 11.1413 40.7232 10.4635 40.2326 9.96357C39.7419 9.46365 39.0766 9.18244 38.3827 9.18164Z" fill="#E6E6E6"/>
<path id="Vector_10" d="M38.3827 9.94922H17.9163C17.4222 9.94978 16.9484 10.15 16.599 10.506C16.2496 10.8621 16.053 11.3447 16.0525 11.8482V36.3331C16.053 36.8366 16.2496 37.3193 16.599 37.6753C16.9484 38.0313 17.4222 38.2315 17.9163 38.2321H38.3827C38.8769 38.2315 39.3506 38.0313 39.7 37.6753C40.0494 37.3193 40.246 36.8366 40.2465 36.3331V11.8482C40.246 11.3447 40.0494 10.8621 39.7 10.5061C39.3506 10.15 38.8769 9.94979 38.3827 9.94922Z" fill="white"/>
<path id="Vector_11" d="M35.464 15.9272H27.8336C27.718 15.9272 27.6071 15.8804 27.5254 15.7971C27.4436 15.7139 27.3977 15.6009 27.3977 15.4831C27.3977 15.3654 27.4436 15.2524 27.5254 15.1691C27.6071 15.0858 27.718 15.0391 27.8336 15.0391H35.464C35.5212 15.039 35.578 15.0504 35.6309 15.0727C35.6838 15.095 35.7319 15.1277 35.7725 15.169C35.813 15.2102 35.8451 15.2592 35.8671 15.3131C35.889 15.367 35.9003 15.4248 35.9003 15.4831C35.9003 15.5415 35.889 15.5993 35.8671 15.6532C35.8451 15.7071 35.813 15.7561 35.7725 15.7973C35.7319 15.8386 35.6838 15.8713 35.6309 15.8935C35.578 15.9158 35.5212 15.9273 35.464 15.9272Z" fill="#FF6363"/>
<path id="Vector_12" d="M37.2619 17.4253H27.8336C27.718 17.4253 27.6071 17.3785 27.5254 17.2952C27.4436 17.2119 27.3977 17.099 27.3977 16.9812C27.3977 16.8634 27.4436 16.7505 27.5254 16.6672C27.6071 16.5839 27.718 16.5371 27.8336 16.5371H37.2619C37.3775 16.5371 37.4883 16.5839 37.5701 16.6672C37.6518 16.7505 37.6977 16.8634 37.6977 16.9812C37.6977 17.099 37.6518 17.2119 37.5701 17.2952C37.4883 17.3785 37.3775 17.4253 37.2619 17.4253Z" fill="#FF6363"/>
<path id="Vector_13" d="M26.1448 13.2227H19.11C19.0546 13.2227 19.0015 13.2451 18.9623 13.285C18.9231 13.3249 18.9011 13.379 18.9011 13.4354V19.0292C18.9011 19.0856 18.9231 19.1397 18.9623 19.1796C19.0015 19.2195 19.0546 19.242 19.11 19.242H26.1448C26.2001 19.242 26.2532 19.2195 26.2924 19.1796C26.3316 19.1397 26.3536 19.0856 26.3536 19.0292V13.4354C26.3536 13.379 26.3316 13.3249 26.2924 13.285C26.2532 13.2451 26.2001 13.2227 26.1448 13.2227Z" fill="#E6E6E6"/>
<path id="Vector_14" d="M21.0396 16.6574C21.0425 17.1297 20.8717 17.5859 20.5608 17.9361C20.2532 18.28 19.7953 18.5082 19.3331 18.4138C18.9076 18.3269 18.5618 17.9479 18.605 17.4895C18.6121 17.3903 18.6404 17.2937 18.688 17.2068C18.7355 17.1198 18.801 17.0444 18.8801 16.9858C18.9591 16.9273 19.0498 16.8871 19.1456 16.8679C19.2415 16.8487 19.3404 16.851 19.4353 16.8747C19.8395 16.9816 20.0006 17.5752 19.6637 17.8538C19.5829 17.9207 19.4668 17.8037 19.5483 17.7363C19.771 17.5521 19.7022 17.1492 19.4335 17.0481C19.1205 16.9305 18.789 17.1835 18.7665 17.5094C18.7398 17.8959 19.0304 18.1869 19.3867 18.2554C19.7722 18.3296 20.1544 18.1285 20.4156 17.8511C20.7149 17.5289 20.8801 17.1011 20.8765 16.6574C20.8772 16.6359 20.8861 16.6155 20.9013 16.6005C20.9165 16.5855 20.9369 16.5771 20.958 16.5771C20.9792 16.5771 20.9995 16.5855 21.0147 16.6005C21.03 16.6155 21.0389 16.6359 21.0396 16.6574Z" fill="#FF6363"/>
<path id="Vector_15" d="M22.6333 17.7143C24.2409 17.7143 25.544 16.3866 25.544 14.7488C25.544 13.1109 24.2409 11.7832 22.6333 11.7832C21.0258 11.7832 19.7227 13.1109 19.7227 14.7488C19.7227 16.3866 21.0258 17.7143 22.6333 17.7143Z" fill="#FF6363"/>
<path id="Vector_16" d="M22.4835 16.0135L22.4805 15.9027C22.6828 15.897 22.8612 15.884 22.9953 15.7843C23.0333 15.7544 23.0645 15.7165 23.0869 15.6732C23.1092 15.6299 23.1221 15.5822 23.1248 15.5333C23.1271 15.5035 23.1227 15.4735 23.1118 15.4457C23.101 15.4179 23.0839 15.393 23.0621 15.3729C22.9731 15.2964 22.8299 15.3212 22.7255 15.3699L22.6356 15.412L22.8081 14.127L22.9159 14.142L22.7691 15.2351C22.9109 15.1926 23.0423 15.2109 23.1323 15.2883C23.1669 15.3191 23.194 15.3575 23.2115 15.4007C23.2291 15.4439 23.2366 15.4906 23.2335 15.5372C23.2303 15.6029 23.2131 15.667 23.183 15.7251C23.1529 15.7833 23.1108 15.834 23.0594 15.8738C22.8872 16.002 22.6634 16.0084 22.4835 16.0135Z" fill="#FF6363"/>
<path id="Vector_17" d="M24.035 14.2363H23.4492V14.3472H24.035V14.2363Z" fill="#FF6363"/>
<path id="Vector_18" d="M22.1864 14.2363H21.6006V14.3472H22.1864V14.2363Z" fill="#FF6363"/>
<path id="Vector_19" d="M21.0205 19.2422C21.2387 19.1011 21.4745 18.9906 21.7215 18.9136C21.698 18.8282 21.6983 18.7378 21.7226 18.6526C21.7554 18.545 21.8215 18.451 21.911 18.3848C22.0005 18.3186 22.1086 18.2837 22.2192 18.2852H22.9284C23.0391 18.2838 23.1474 18.3188 23.2371 18.3851C23.3267 18.4514 23.393 18.5454 23.426 18.6531C23.4503 18.7381 23.4507 18.8284 23.4271 18.9136C23.6741 18.9907 23.9099 19.1012 24.1281 19.2422H21.0205Z" fill="#FF6363"/>
<path id="Vector_20" d="M25.9671 13.6482C25.914 13.5828 25.8488 13.5287 25.7751 13.4892C25.7105 13.4548 25.6386 13.4367 25.5657 13.4365C25.4656 13.4378 25.3683 13.4711 25.2878 13.5318C25.0664 13.6914 24.9131 14.0355 24.9131 14.4339C24.9131 14.9337 25.1546 15.3482 25.4684 15.4202C25.5003 15.4276 25.533 15.4313 25.5657 15.4313C25.9252 15.4313 26.2183 14.9842 26.2183 14.4339C26.2183 14.1148 26.1199 13.8305 25.9671 13.6482Z" fill="#3F3D56"/>
<path id="Vector_21" d="M19.9889 13.508H19.9884C19.9157 13.462 19.832 13.4373 19.7464 13.4365C19.6734 13.4367 19.6016 13.4548 19.537 13.4892C19.4633 13.5287 19.398 13.5828 19.345 13.6482L19.3445 13.6487C19.1922 13.8311 19.0938 14.1153 19.0938 14.4339C19.0938 14.8639 19.2721 15.2307 19.5223 15.3709C19.5908 15.41 19.6679 15.4308 19.7464 15.4313C19.7638 15.4313 19.7813 15.4302 19.7986 15.428H19.7991C20.1341 15.387 20.399 14.957 20.399 14.4339C20.399 14.015 20.2288 13.6554 19.9889 13.508Z" fill="#3F3D56"/>
<path id="Vector_22" d="M19.5635 15.2758C19.5764 15.2758 19.5892 15.2726 19.6007 15.2666C19.6122 15.2606 19.6222 15.2518 19.6297 15.2411C19.6373 15.2304 19.6422 15.218 19.6441 15.205C19.646 15.1919 19.6449 15.1786 19.6408 15.1661C19.4849 14.6937 19.438 14.191 19.5037 13.6972C19.5695 13.2033 19.7461 12.7315 20.0199 12.3185C20.2937 11.9055 20.6573 11.5624 21.0824 11.3159C21.5075 11.0693 21.9827 10.9259 22.471 10.8969C22.9593 10.8679 23.4477 10.954 23.898 11.1485C24.3484 11.343 24.7487 11.6407 25.0678 12.0185C25.3868 12.3962 25.6161 12.8439 25.7378 13.3266C25.8595 13.8093 25.8703 14.3141 25.7693 14.8018C25.7649 14.8233 25.769 14.8458 25.7808 14.8643C25.7926 14.8828 25.8112 14.8957 25.8323 14.9002C25.8535 14.9048 25.8756 14.9006 25.8937 14.8886C25.9118 14.8765 25.9245 14.8576 25.929 14.8361C26.0352 14.3234 26.0239 13.7926 25.896 13.285C25.7681 12.7775 25.5271 12.3068 25.1916 11.9096C24.8561 11.5125 24.4353 11.1994 23.9618 10.9949C23.4883 10.7904 22.9748 10.6999 22.4614 10.7304C21.948 10.7609 21.4484 10.9117 21.0014 11.171C20.5545 11.4302 20.1722 11.791 19.8844 12.2253C19.5966 12.6595 19.4109 13.1556 19.3418 13.6748C19.2728 14.1941 19.3221 14.7226 19.4862 15.2192C19.4916 15.2357 19.502 15.25 19.5159 15.2602C19.5297 15.2703 19.5464 15.2758 19.5635 15.2758Z" fill="#3F3D56"/>
<path id="Vector_23" d="M24.0953 12.8269C24.2106 12.9872 24.1538 13.2032 24.0323 13.3414C23.8743 13.5213 23.6223 13.5326 23.4035 13.4992C23.158 13.4618 22.8976 13.3446 22.649 13.4236C22.4372 13.4909 22.2861 13.6867 22.066 13.7358C21.8708 13.7794 21.6374 13.7217 21.5689 13.5098C21.5361 13.4079 21.6936 13.3642 21.7263 13.4656C21.7705 13.6027 21.9617 13.6 22.0712 13.562C22.2467 13.5011 22.3819 13.353 22.5544 13.2823C22.7578 13.1989 22.9784 13.2366 23.1854 13.2841C23.3806 13.3288 23.6052 13.3952 23.7996 13.3116C23.9435 13.2497 24.0579 13.0547 23.9544 12.9108C23.8923 12.8244 24.0338 12.7414 24.0953 12.8269Z" fill="#FF6363"/>
<path id="Vector_24" d="M35.4523 23.018H25.1026C25.0454 23.018 24.9887 23.0065 24.9358 22.9842C24.8829 22.9619 24.8349 22.9292 24.7944 22.888C24.7539 22.8467 24.7218 22.7978 24.6999 22.7439C24.678 22.69 24.6667 22.6323 24.6667 22.574C24.6667 22.5156 24.678 22.4579 24.6999 22.404C24.7218 22.3501 24.7539 22.3012 24.7944 22.2599C24.8349 22.2187 24.8829 22.186 24.9358 22.1637C24.9887 22.1414 25.0454 22.1299 25.1026 22.1299H35.4523C35.5678 22.13 35.6785 22.1769 35.7602 22.2601C35.8418 22.3434 35.8877 22.4563 35.8877 22.574C35.8877 22.6916 35.8418 22.8045 35.7602 22.8878C35.6785 22.9711 35.5678 23.0179 35.4523 23.018Z" fill="#E6E6E6"/>
<path id="Vector_25" d="M37.2499 24.517H25.1024C25.0451 24.5171 24.9884 24.5057 24.9354 24.4834C24.8825 24.4611 24.8344 24.4284 24.7938 24.3872C24.7533 24.3459 24.7212 24.2969 24.6992 24.243C24.6773 24.1891 24.666 24.1313 24.666 24.073C24.666 24.0146 24.6773 23.9568 24.6992 23.9029C24.7212 23.849 24.7533 23.8 24.7938 23.7588C24.8344 23.7176 24.8825 23.6849 24.9354 23.6626C24.9884 23.6403 25.0451 23.6288 25.1024 23.6289H37.2499C37.3072 23.6288 37.364 23.6403 37.4169 23.6626C37.4698 23.6849 37.5179 23.7176 37.5585 23.7588C37.599 23.8 37.6311 23.849 37.6531 23.9029C37.675 23.9568 37.6863 24.0146 37.6863 24.073C37.6863 24.1313 37.675 24.1891 37.6531 24.243C37.6311 24.2969 37.599 24.3459 37.5585 24.3872C37.5179 24.4284 37.4698 24.4611 37.4169 24.4834C37.364 24.5057 37.3072 24.5171 37.2499 24.517Z" fill="#E6E6E6"/>
<path id="Vector_26" d="M35.4523 28.4047H25.1026C24.987 28.4047 24.8761 28.358 24.7944 28.2747C24.7127 28.1914 24.6667 28.0785 24.6667 27.9607C24.6667 27.8429 24.7127 27.7299 24.7944 27.6467C24.8761 27.5634 24.987 27.5166 25.1026 27.5166H35.4523C35.5679 27.5166 35.6787 27.5634 35.7605 27.6467C35.8422 27.7299 35.8881 27.8429 35.8881 27.9607C35.8881 28.0785 35.8422 28.1914 35.7605 28.2747C35.6787 28.358 35.5679 28.4047 35.4523 28.4047Z" fill="#E6E6E6"/>
<path id="Vector_27" d="M37.2502 29.9038H25.1026C24.987 29.9038 24.8761 29.857 24.7944 29.7737C24.7127 29.6904 24.6667 29.5775 24.6667 29.4597C24.6667 29.3419 24.7127 29.229 24.7944 29.1457C24.8761 29.0624 24.987 29.0156 25.1026 29.0156H37.2502C37.3658 29.0156 37.4766 29.0624 37.5584 29.1457C37.6401 29.229 37.686 29.3419 37.686 29.4597C37.686 29.5775 37.6401 29.6904 37.5584 29.7737C37.4766 29.857 37.3658 29.9038 37.2502 29.9038Z" fill="#E6E6E6"/>
<path id="Vector_28" d="M21.0063 25.1908C22.0276 25.1908 22.8555 24.3473 22.8555 23.3068C22.8555 22.2663 22.0276 21.4229 21.0063 21.4229C19.9851 21.4229 19.1572 22.2663 19.1572 23.3068C19.1572 24.3473 19.9851 25.1908 21.0063 25.1908Z" fill="#E6E6E6"/>
<path id="Vector_29" d="M21.0063 30.6215C22.0276 30.6215 22.8555 29.778 22.8555 28.7375C22.8555 27.697 22.0276 26.8535 21.0063 26.8535C19.9851 26.8535 19.1572 27.697 19.1572 28.7375C19.1572 29.778 19.9851 30.6215 21.0063 30.6215Z" fill="#E6E6E6"/>
<path id="Vector_30" d="M35.4523 33.8354H25.1026C24.987 33.8354 24.8761 33.7886 24.7944 33.7053C24.7127 33.6221 24.6667 33.5091 24.6667 33.3913C24.6667 33.2736 24.7127 33.1606 24.7944 33.0773C24.8761 32.9941 24.987 32.9473 25.1026 32.9473H35.4523C35.5679 32.9473 35.6787 32.9941 35.7605 33.0773C35.8422 33.1606 35.8881 33.2736 35.8881 33.3913C35.8881 33.5091 35.8422 33.6221 35.7605 33.7053C35.6787 33.7886 35.5679 33.8354 35.4523 33.8354Z" fill="#E6E6E6"/>
<path id="Vector_31" d="M37.2502 35.3335H25.1026C24.987 35.3335 24.8761 35.2867 24.7944 35.2034C24.7127 35.1201 24.6667 35.0072 24.6667 34.8894C24.6667 34.7716 24.7127 34.6587 24.7944 34.5754C24.8761 34.4921 24.987 34.4453 25.1026 34.4453H37.2502C37.3658 34.4453 37.4766 34.4921 37.5584 34.5754C37.6401 34.6587 37.686 34.7716 37.686 34.8894C37.686 35.0072 37.6401 35.1201 37.5584 35.2034C37.4766 35.2867 37.3658 35.3335 37.2502 35.3335Z" fill="#E6E6E6"/>
<path id="Vector_32" d="M21.0063 36.0512C22.0276 36.0512 22.8555 35.2077 22.8555 34.1672C22.8555 33.1267 22.0276 32.2832 21.0063 32.2832C19.9851 32.2832 19.1572 33.1267 19.1572 34.1672C19.1572 35.2077 19.9851 36.0512 21.0063 36.0512Z" fill="#E6E6E6"/>
</g>
<defs>
<clipPath id="clip0_625_11063">
<rect width="41" height="39" fill="white"/>
</clipPath>
</defs>
</svg>
