<svg width="17" height="17" viewBox="0 0 17 17" fill="none" xmlns="http://www.w3.org/2000/svg">
<path d="M8.50016 1.83301C4.81737 1.83301 1.8335 4.81688 1.8335 8.49967C1.8335 12.1825 4.81737 15.1663 8.50016 15.1663C12.183 15.1663 15.1668 12.1825 15.1668 8.49967C15.1668 4.81688 12.183 1.83301 8.50016 1.83301ZM12.3711 9.25236C12.3711 9.42978 12.226 9.57494 12.0486 9.57494H9.57543V12.0481C9.57543 12.2255 9.43027 12.3706 9.25285 12.3706H7.74747C7.57006 12.3706 7.42489 12.2255 7.42489 12.0481V9.57494H4.95178C4.77436 9.57494 4.6292 9.42978 4.6292 9.25236V7.74699C4.6292 7.56957 4.77436 7.42441 4.95178 7.42441H7.42489V4.95129C7.42489 4.77387 7.57006 4.62871 7.74747 4.62871H9.25285C9.43027 4.62871 9.57543 4.77387 9.57543 4.95129V7.42441H12.0486C12.226 7.42441 12.3711 7.56957 12.3711 7.74699V9.25236Z" fill="#FF6F6F"/>
</svg>
