<svg width="40" height="40" viewBox="0 0 40 40" fill="none" xmlns="http://www.w3.org/2000/svg">
<ellipse cx="19.9138" cy="20" rx="19.9138" ry="20" fill="#FF7074"/>
<mask id="mask0_625_10930" style="mask-type:alpha" maskUnits="userSpaceOnUse" x="10" y="11" width="19" height="18">
<rect x="10.9521" y="11" width="17.9224" height="18" fill="#D9D9D9"/>
</mask>
<g mask="url(#mask0_625_10930)">
<path d="M23.1991 26.75L22.1536 25.7L23.3297 24.5L22.1536 23.3188L23.1991 22.25L24.3939 23.45L25.5701 22.25L26.6342 23.3188L25.4394 24.5L26.6342 25.7L25.5701 26.75L24.3939 25.5688L23.1991 26.75ZM15.4327 25.25C15.6443 25.25 15.8216 25.1781 15.9648 25.0344C16.1079 24.8906 16.1795 24.7125 16.1795 24.5C16.1795 24.2875 16.1079 24.1094 15.9648 23.9656C15.8216 23.8219 15.6443 23.75 15.4327 23.75C15.2211 23.75 15.0437 23.8219 14.9006 23.9656C14.7575 24.1094 14.6859 24.2875 14.6859 24.5C14.6859 24.7125 14.7575 24.8906 14.9006 25.0344C15.0437 25.1781 15.2211 25.25 15.4327 25.25ZM15.4327 26.75C14.8104 26.75 14.2814 26.5312 13.8458 26.0938C13.4102 25.6562 13.1924 25.125 13.1924 24.5C13.1924 23.875 13.4102 23.3438 13.8458 22.9062C14.2814 22.4688 14.8104 22.25 15.4327 22.25C15.8932 22.25 16.3132 22.3781 16.6929 22.6344C17.0725 22.8906 17.3494 23.2375 17.5236 23.675C18.009 23.5375 18.4042 23.2688 18.7091 22.8687C19.0141 22.4688 19.1665 22.0125 19.1665 21.5V18.5C19.1665 17.4625 19.5306 16.5781 20.2587 15.8469C20.9868 15.1156 21.8673 14.75 22.9004 14.75H23.7591L22.583 13.5688L23.6471 12.5L26.6342 15.5L23.6471 18.5L22.583 17.45L23.7591 16.25H22.9004C22.2781 16.25 21.7491 16.4688 21.3135 16.9062C20.8779 17.3438 20.6601 17.875 20.6601 18.5V21.5C20.6601 22.4125 20.3676 23.2156 19.7826 23.9094C19.1976 24.6031 18.4571 25.0313 17.561 25.1938C17.4116 25.6563 17.1409 26.0313 16.7489 26.3188C16.3568 26.6063 15.9181 26.75 15.4327 26.75ZM14.2379 17.75L13.1924 16.7L14.3685 15.5L13.1924 14.3187L14.2379 13.25L15.4327 14.45L16.6088 13.25L17.673 14.3187L16.4782 15.5L17.673 16.7L16.6088 17.75L15.4327 16.5688L14.2379 17.75Z" fill="white"/>
</g>
</svg>
