<svg width="24" height="25" viewBox="0 0 24 25" fill="none" xmlns="http://www.w3.org/2000/svg">
<g id="help">
<mask id="mask0_200_6248" style="mask-type:alpha" maskUnits="userSpaceOnUse" x="0" y="0" width="24" height="25">
<rect id="Bounding box" y="0.5" width="24" height="24" fill="#D9D9D9"/>
</mask>
<g mask="url(#mask0_200_6248)">
<path id="help_2" d="M11.95 18.5C12.3 18.5 12.5958 18.3792 12.8375 18.1375C13.0792 17.8958 13.2 17.6 13.2 17.25C13.2 16.9 13.0792 16.6042 12.8375 16.3625C12.5958 16.1208 12.3 16 11.95 16C11.6 16 11.3042 16.1208 11.0625 16.3625C10.8208 16.6042 10.7 16.9 10.7 17.25C10.7 17.6 10.8208 17.8958 11.0625 18.1375C11.3042 18.3792 11.6 18.5 11.95 18.5ZM11.05 14.65H12.9C12.9 14.1 12.9625 13.6667 13.0875 13.35C13.2125 13.0333 13.5667 12.6 14.15 12.05C14.5833 11.6167 14.925 11.2042 15.175 10.8125C15.425 10.4208 15.55 9.95 15.55 9.4C15.55 8.46667 15.2083 7.75 14.525 7.25C13.8417 6.75 13.0333 6.5 12.1 6.5C11.15 6.5 10.3792 6.75 9.7875 7.25C9.19583 7.75 8.78333 8.35 8.55 9.05L10.2 9.7C10.2833 9.4 10.4708 9.075 10.7625 8.725C11.0542 8.375 11.5 8.2 12.1 8.2C12.6333 8.2 13.0333 8.34583 13.3 8.6375C13.5667 8.92917 13.7 9.25 13.7 9.6C13.7 9.93333 13.6 10.2458 13.4 10.5375C13.2 10.8292 12.95 11.1 12.65 11.35C11.9167 12 11.4667 12.4917 11.3 12.825C11.1333 13.1583 11.05 13.7667 11.05 14.65ZM12 22.5C10.6167 22.5 9.31667 22.2375 8.1 21.7125C6.88333 21.1875 5.825 20.475 4.925 19.575C4.025 18.675 3.3125 17.6167 2.7875 16.4C2.2625 15.1833 2 13.8833 2 12.5C2 11.1167 2.2625 9.81667 2.7875 8.6C3.3125 7.38333 4.025 6.325 4.925 5.425C5.825 4.525 6.88333 3.8125 8.1 3.2875C9.31667 2.7625 10.6167 2.5 12 2.5C13.3833 2.5 14.6833 2.7625 15.9 3.2875C17.1167 3.8125 18.175 4.525 19.075 5.425C19.975 6.325 20.6875 7.38333 21.2125 8.6C21.7375 9.81667 22 11.1167 22 12.5C22 13.8833 21.7375 15.1833 21.2125 16.4C20.6875 17.6167 19.975 18.675 19.075 19.575C18.175 20.475 17.1167 21.1875 15.9 21.7125C14.6833 22.2375 13.3833 22.5 12 22.5ZM12 20.5C14.2333 20.5 16.125 19.725 17.675 18.175C19.225 16.625 20 14.7333 20 12.5C20 10.2667 19.225 8.375 17.675 6.825C16.125 5.275 14.2333 4.5 12 4.5C9.76667 4.5 7.875 5.275 6.325 6.825C4.775 8.375 4 10.2667 4 12.5C4 14.7333 4.775 16.625 6.325 18.175C7.875 19.725 9.76667 20.5 12 20.5Z" fill="#7E7E7E"/>
</g>
</g>
</svg>
