<svg width="22" height="22" viewBox="0 0 22 22" fill="none" xmlns="http://www.w3.org/2000/svg">
<mask id="mask0_888_37794" style="mask-type:alpha" maskUnits="userSpaceOnUse" x="0" y="0" width="22" height="22">
<rect width="22" height="22" fill="#D9D9D9"/>
</mask>
<g mask="url(#mask0_888_37794)">
<path d="M10.0846 19.2045C8.23602 18.9753 6.70443 18.1694 5.48984 16.7868C4.27526 15.4041 3.66797 13.7809 3.66797 11.917C3.66797 10.9087 3.86658 9.94234 4.2638 9.01803C4.66102 8.09373 5.2263 7.28783 5.95964 6.60033L7.26589 7.90658C6.68533 8.42602 6.24609 9.02949 5.94818 9.71699C5.65026 10.4045 5.5013 11.1378 5.5013 11.917C5.5013 13.2614 5.92908 14.4493 6.78464 15.4805C7.64019 16.5118 8.74019 17.142 10.0846 17.3712V19.2045ZM11.918 19.2045V17.3712C13.2471 17.1267 14.3433 16.4927 15.2065 15.4691C16.0697 14.4455 16.5013 13.2614 16.5013 11.917C16.5013 10.3892 15.9666 9.0906 14.8971 8.02116C13.8277 6.95171 12.5291 6.41699 11.0013 6.41699H10.9326L11.9409 7.42533L10.6576 8.70866L7.44922 5.50033L10.6576 2.29199L11.9409 3.57533L10.9326 4.58366H11.0013C13.0485 4.58366 14.7826 5.29408 16.2034 6.71491C17.6242 8.13574 18.3346 9.86977 18.3346 11.917C18.3346 13.7656 17.7273 15.3812 16.5128 16.7639C15.2982 18.1465 13.7666 18.96 11.918 19.2045Z" fill="#7E7E7E"/>
</g>
</svg>
