<svg width="20" height="20" viewBox="0 0 20 20" fill="none" xmlns="http://www.w3.org/2000/svg">
<mask id="mask0_324_6186" style="mask-type:alpha" maskUnits="userSpaceOnUse" x="0" y="0" width="20" height="20">
<rect width="20" height="20" fill="#D9D9D9"/>
</mask>
<g mask="url(#mask0_324_6186)">
<path d="M13.3346 17.5C12.8763 17.5 12.4839 17.3368 12.1576 17.0104C11.8312 16.684 11.668 16.2917 11.668 15.8333V12.5C11.668 12.0417 11.8312 11.6493 12.1576 11.3229C12.4839 10.9965 12.8763 10.8333 13.3346 10.8333H16.668C17.1263 10.8333 17.5187 10.9965 17.8451 11.3229C18.1714 11.6493 18.3346 12.0417 18.3346 12.5V15.8333C18.3346 16.2917 18.1714 16.684 17.8451 17.0104C17.5187 17.3368 17.1263 17.5 16.668 17.5H13.3346ZM13.3346 15.8333H16.668V12.5H13.3346V15.8333ZM1.66797 15V13.3333H9.16797V15H1.66797ZM13.3346 9.16667C12.8763 9.16667 12.4839 9.00347 12.1576 8.67708C11.8312 8.35069 11.668 7.95833 11.668 7.5V4.16667C11.668 3.70833 11.8312 3.31597 12.1576 2.98958C12.4839 2.66319 12.8763 2.5 13.3346 2.5H16.668C17.1263 2.5 17.5187 2.66319 17.8451 2.98958C18.1714 3.31597 18.3346 3.70833 18.3346 4.16667V7.5C18.3346 7.95833 18.1714 8.35069 17.8451 8.67708C17.5187 9.00347 17.1263 9.16667 16.668 9.16667H13.3346ZM13.3346 7.5H16.668V4.16667H13.3346V7.5ZM1.66797 6.66667V5H9.16797V6.66667H1.66797Z" fill="#707070"/>
</g>
</svg>
