<svg width="18" height="21" viewBox="0 0 18 21" fill="none" xmlns="http://www.w3.org/2000/svg">
<path d="M2.58333 20.167C2.07917 20.167 1.64757 19.9875 1.28854 19.6285C0.929514 19.2694 0.75 18.8378 0.75 18.3337V7.33366C0.75 6.82949 0.929514 6.3979 1.28854 6.03887C1.64757 5.67984 2.07917 5.50033 2.58333 5.50033H3.5V0.916992H14.5V5.50033H15.4167C15.9208 5.50033 16.3524 5.67984 16.7115 6.03887C17.0705 6.3979 17.25 6.82949 17.25 7.33366V18.3337C17.25 18.8378 17.0705 19.2694 16.7115 19.6285C16.3524 19.9875 15.9208 20.167 15.4167 20.167H2.58333ZM5.33333 5.50033H12.6667V2.75033H5.33333V5.50033ZM2.58333 18.3337H15.4167V7.33366H2.58333V18.3337ZM9 17.417C10.2681 17.417 11.349 16.9701 12.2427 16.0764C13.1365 15.1826 13.5833 14.1017 13.5833 12.8337C13.5833 11.5656 13.1365 10.4847 12.2427 9.59095C11.349 8.6972 10.2681 8.25033 9 8.25033C7.73194 8.25033 6.65104 8.6972 5.75729 9.59095C4.86354 10.4847 4.41667 11.5656 4.41667 12.8337C4.41667 14.1017 4.86354 15.1826 5.75729 16.0764C6.65104 16.9701 7.73194 17.417 9 17.417ZM9 16.042C8.11389 16.042 7.35764 15.7288 6.73125 15.1024C6.10486 14.476 5.79167 13.7198 5.79167 12.8337C5.79167 11.9475 6.10486 11.1913 6.73125 10.5649C7.35764 9.93852 8.11389 9.62533 9 9.62533C9.88611 9.62533 10.6424 9.93852 11.2688 10.5649C11.8951 11.1913 12.2083 11.9475 12.2083 12.8337C12.2083 13.7198 11.8951 14.476 11.2688 15.1024C10.6424 15.7288 9.88611 16.042 9 16.042ZM10.0542 14.5295L10.6958 13.8878L9.45833 12.6503V10.542H8.54167V13.017L10.0542 14.5295Z" fill="white"/>
</svg>
