<svg width="22" height="22" viewBox="0 0 22 22" fill="none" xmlns="http://www.w3.org/2000/svg">
<mask id="mask0_193_3778" style="mask-type:alpha" maskUnits="userSpaceOnUse" x="0" y="0" width="22" height="22">
<rect width="22" height="22" fill="#D9D9D9"/>
</mask>
<g mask="url(#mask0_193_3778)">
<path d="M4.58333 20.167C4.07917 20.167 3.64757 19.9875 3.28854 19.6285C2.92951 19.2694 2.75 18.8378 2.75 18.3337V7.33366C2.75 6.82949 2.92951 6.3979 3.28854 6.03887C3.64757 5.67984 4.07917 5.50033 4.58333 5.50033H5.5V0.916992H16.5V5.50033H17.4167C17.9208 5.50033 18.3524 5.67984 18.7115 6.03887C19.0705 6.3979 19.25 6.82949 19.25 7.33366V18.3337C19.25 18.8378 19.0705 19.2694 18.7115 19.6285C18.3524 19.9875 17.9208 20.167 17.4167 20.167H4.58333ZM7.33333 5.50033H14.6667V2.75033H7.33333V5.50033ZM4.58333 18.3337H17.4167V7.33366H4.58333V18.3337ZM11 17.417C12.2681 17.417 13.349 16.9701 14.2427 16.0764C15.1365 15.1826 15.5833 14.1017 15.5833 12.8337C15.5833 11.5656 15.1365 10.4847 14.2427 9.59095C13.349 8.6972 12.2681 8.25033 11 8.25033C9.73194 8.25033 8.65104 8.6972 7.75729 9.59095C6.86354 10.4847 6.41667 11.5656 6.41667 12.8337C6.41667 14.1017 6.86354 15.1826 7.75729 16.0764C8.65104 16.9701 9.73194 17.417 11 17.417ZM11 16.042C10.1139 16.042 9.35764 15.7288 8.73125 15.1024C8.10486 14.476 7.79167 13.7198 7.79167 12.8337C7.79167 11.9475 8.10486 11.1913 8.73125 10.5649C9.35764 9.93852 10.1139 9.62533 11 9.62533C11.8861 9.62533 12.6424 9.93852 13.2688 10.5649C13.8951 11.1913 14.2083 11.9475 14.2083 12.8337C14.2083 13.7198 13.8951 14.476 13.2688 15.1024C12.6424 15.7288 11.8861 16.042 11 16.042ZM12.0542 14.5295L12.6958 13.8878L11.4583 12.6503V10.542H10.5417V13.017L12.0542 14.5295Z" fill="#7E7E7E"/>
</g>
</svg>
