<svg width="36" height="35" viewBox="0 0 36 35" fill="none" xmlns="http://www.w3.org/2000/svg">
<g id="Group 9072">
<rect id="Rectangle 14" width="36" height="35" rx="5" fill="#54C6FF"/>
<g id="list_alt">
<mask id="mask0_625_10748" style="mask-type:alpha" maskUnits="userSpaceOnUse" x="6" y="5" width="24" height="24">
<rect id="Bounding box" x="6" y="5" width="24" height="24" fill="#D9D9D9"/>
</mask>
<g mask="url(#mask0_625_10748)">
<path id="list_alt_2" d="M14 22C14.2833 22 14.5208 21.9042 14.7125 21.7125C14.9042 21.5208 15 21.2833 15 21C15 20.7167 14.9042 20.4792 14.7125 20.2875C14.5208 20.0958 14.2833 20 14 20C13.7167 20 13.4792 20.0958 13.2875 20.2875C13.0958 20.4792 13 20.7167 13 21C13 21.2833 13.0958 21.5208 13.2875 21.7125C13.4792 21.9042 13.7167 22 14 22ZM14 18C14.2833 18 14.5208 17.9042 14.7125 17.7125C14.9042 17.5208 15 17.2833 15 17C15 16.7167 14.9042 16.4792 14.7125 16.2875C14.5208 16.0958 14.2833 16 14 16C13.7167 16 13.4792 16.0958 13.2875 16.2875C13.0958 16.4792 13 16.7167 13 17C13 17.2833 13.0958 17.5208 13.2875 17.7125C13.4792 17.9042 13.7167 18 14 18ZM14 14C14.2833 14 14.5208 13.9042 14.7125 13.7125C14.9042 13.5208 15 13.2833 15 13C15 12.7167 14.9042 12.4792 14.7125 12.2875C14.5208 12.0958 14.2833 12 14 12C13.7167 12 13.4792 12.0958 13.2875 12.2875C13.0958 12.4792 13 12.7167 13 13C13 13.2833 13.0958 13.5208 13.2875 13.7125C13.4792 13.9042 13.7167 14 14 14ZM17 22H23V20H17V22ZM17 18H23V16H17V18ZM17 14H23V12H17V14ZM11 26C10.45 26 9.97917 25.8042 9.5875 25.4125C9.19583 25.0208 9 24.55 9 24V10C9 9.45 9.19583 8.97917 9.5875 8.5875C9.97917 8.19583 10.45 8 11 8H25C25.55 8 26.0208 8.19583 26.4125 8.5875C26.8042 8.97917 27 9.45 27 10V24C27 24.55 26.8042 25.0208 26.4125 25.4125C26.0208 25.8042 25.55 26 25 26H11ZM11 24H25V10H11V24Z" fill="white"/>
</g>
</g>
</g>
</svg>
