<svg width="35" height="35" viewBox="0 0 35 35" fill="none" xmlns="http://www.w3.org/2000/svg">
<g id="Group 9166">
<circle id="Ellipse 9" cx="17.5" cy="17.5" r="17.5" fill="#FF4141"/>
<g id="carry_on_bag">
<mask id="mask0_625_10657" style="mask-type:alpha" maskUnits="userSpaceOnUse" x="6" y="5" width="24" height="24">
<rect id="Bounding box" x="6" y="5" width="24" height="24" fill="#D9D9D9"/>
</mask>
<g mask="url(#mask0_625_10657)">
<path id="carry_on_bag_2" d="M22 26.5C21.5833 26.5 21.2292 26.3542 20.9375 26.0625C20.6458 25.7708 20.5 25.4167 20.5 25C20.5 24.5833 20.6458 24.2292 20.9375 23.9375C21.2292 23.6458 21.5833 23.5 22 23.5C22.4167 23.5 22.7708 23.6458 23.0625 23.9375C23.3542 24.2292 23.5 24.5833 23.5 25C23.5 25.4167 23.3542 25.7708 23.0625 26.0625C22.7708 26.3542 22.4167 26.5 22 26.5ZM14 26C13.45 26 12.9792 25.8042 12.5875 25.4125C12.1958 25.0208 12 24.55 12 24V14C12 13.45 12.1958 12.9792 12.5875 12.5875C12.9792 12.1958 13.45 12 14 12H15V26H14ZM16.5 26V12H20V9C19.45 9 18.9792 8.80417 18.5875 8.4125C18.1958 8.02083 18 7.55 18 7H22V22C21.1667 22 20.4583 22.2917 19.875 22.875C19.2917 23.4583 19 24.1667 19 25C19 25.1833 19.0125 25.3542 19.0375 25.5125C19.0625 25.6708 19.1083 25.8333 19.175 26H16.5Z" fill="white"/>
</g>
</g>
</g>
</svg>
