<svg width="35" height="35" viewBox="0 0 35 35" fill="none" xmlns="http://www.w3.org/2000/svg">
<g id="Group 9168">
<circle id="Ellipse 9" cx="17.5" cy="17.5" r="17.5" fill="#2AE21D"/>
<g id="travel_luggage_and_bags">
<mask id="mask0_625_10610" style="mask-type:alpha" maskUnits="userSpaceOnUse" x="6" y="5" width="24" height="24">
<rect id="Bounding box" x="6" y="5" width="24" height="24" fill="#D9D9D9"/>
</mask>
<g mask="url(#mask0_625_10610)">
<path id="travel_luggage_and_bags_2" d="M17 11H19V9H17V11ZM18 17C16.7333 17 15.525 16.7375 14.375 16.2125C13.225 15.6875 12.1 15.1 11 14.45V13C11 12.45 11.1958 11.9792 11.5875 11.5875C11.9792 11.1958 12.45 11 13 11H15V8C15 7.71667 15.0958 7.47917 15.2875 7.2875C15.4792 7.09583 15.7167 7 16 7H20C20.2833 7 20.5208 7.09583 20.7125 7.2875C20.9042 7.47917 21 7.71667 21 8V11H23C23.55 11 24.0208 11.1958 24.4125 11.5875C24.8042 11.9792 25 12.45 25 13V14.45C23.9 15.1 22.775 15.6875 21.625 16.2125C20.475 16.7375 19.2667 17 18 17ZM13 27V26C12.45 26 11.9792 25.8042 11.5875 25.4125C11.1958 25.0208 11 24.55 11 24V16.7C11.9333 17.2667 12.8958 17.75 13.8875 18.15C14.8792 18.55 15.9167 18.8167 17 18.95V20H19V18.95C20.0833 18.8167 21.1208 18.55 22.1125 18.15C23.1042 17.75 24.0667 17.2667 25 16.7V24C25 24.55 24.8042 25.0208 24.4125 25.4125C24.0208 25.8042 23.55 26 23 26V27H21V26H15V27H13Z" fill="white"/>
</g>
</g>
</g>
</svg>
