<svg width="31" height="46" viewBox="0 0 31 46" fill="none" xmlns="http://www.w3.org/2000/svg">
<g id="Traveller with suitcase">
<g id="Group 4">
<path id="Vector" opacity="0.3" fill-rule="evenodd" clip-rule="evenodd" d="M17.276 6.06276C23.3319 6.10098 28.8534 10.5542 30.5856 17.3496C32.2072 23.7105 28.8545 29.7851 24.351 33.817C19.3779 38.2693 12.8848 41.9573 7.71301 37.827C2.19465 33.4199 1.29645 24.5556 3.51732 17.1787C5.56549 10.3756 11.116 6.02388 17.276 6.06276Z" fill="#FEC091"/>
<path id="Vector_2" opacity="0.3" fill-rule="evenodd" clip-rule="evenodd" d="M4.39866 1.79304C6.18832 1.80393 7.82005 3.07305 8.33197 5.00964C8.81116 6.82243 7.82037 8.55361 6.48949 9.70264C5.01982 10.9715 3.10097 12.0225 1.57259 10.8454C-0.0582046 9.58947 -0.323642 7.06325 0.332675 4.96096C0.937954 3.02214 2.57825 1.78196 4.39866 1.79304Z" fill="#FEC091"/>
</g>
<g id="Group 7">
<rect id="Rectangle 23" x="2.56201" y="13.0068" width="4.52617" height="3.11174" rx="1.55587" transform="rotate(-16.7806 2.56201 13.0068)" fill="white"/>
<line id="Line 6" x1="5.09449" y1="12.9475" x2="5.58309" y2="14.5677" stroke="#25223A" stroke-width="0.5" stroke-linecap="round"/>
<rect id="Rectangle 24" x="5.93335" y="12.4326" width="0.777936" height="0.777936" rx="0.388968" transform="rotate(-16.7806 5.93335 12.4326)" fill="#FF5B59"/>
<rect id="Rectangle 25" x="6.10962" y="12.5273" width="0.49505" height="0.49505" rx="0.247525" transform="rotate(-16.7806 6.10962 12.5273)" fill="#FF5B59"/>
<rect id="Rectangle 26" x="6.28833" y="12.6221" width="0.212164" height="0.212164" rx="0.106082" transform="rotate(-16.7806 6.28833 12.6221)" fill="white"/>
<circle id="Ellipse 11" cx="6.154" cy="13.4014" r="0.25" transform="rotate(-16.7806 6.154 13.4014)" stroke="#25223A" stroke-width="0.4901"/>
<path id="Ellipse 12" d="M6.30288 13.6518C6.1159 13.7082 5.93691 13.663 5.90308 13.5508" stroke="#25223A" stroke-width="0.5" stroke-linecap="round"/>
<path id="Vector 30" d="M7.40505 14.0084C7.47105 13.8871 7.42625 13.7353 7.30498 13.6693C7.1837 13.6033 7.03189 13.6481 6.96588 13.7694L7.40505 14.0084ZM5.86709 14.5812C5.89198 14.5415 5.95078 14.4777 6.02961 14.4411C6.09863 14.4091 6.18802 14.3945 6.30721 14.4485L6.51344 13.993C6.25104 13.8742 6.00924 13.8995 5.8193 13.9875C5.63917 14.071 5.51123 14.2075 5.44343 14.3156L5.86709 14.5812ZM6.30721 14.4485C6.58775 14.5755 6.84438 14.5174 7.03415 14.4014C7.21381 14.2915 7.33977 14.1283 7.40505 14.0084L6.96588 13.7694C6.93178 13.832 6.86096 13.9212 6.7733 13.9748C6.69575 14.0222 6.6145 14.0387 6.51344 13.993L6.30721 14.4485Z" fill="#FF5B59"/>
<path id="Vector 31" d="M7.44631 14.1441C7.51231 14.0229 7.46751 13.871 7.34624 13.805C7.22496 13.739 7.07315 13.7838 7.00714 13.9051L7.44631 14.1441ZM5.90835 14.7169C5.93324 14.6772 5.99204 14.6134 6.07087 14.5769C6.13989 14.5449 6.22928 14.5302 6.34847 14.5842L6.5547 14.1287C6.2923 14.0099 6.0505 14.0352 5.86056 14.1233C5.68043 14.2068 5.55249 14.3432 5.48469 14.4514L5.90835 14.7169ZM6.34847 14.5842C6.62901 14.7112 6.88564 14.6531 7.07541 14.5371C7.25507 14.4272 7.38103 14.2641 7.44631 14.1441L7.00714 13.9051C6.97304 13.9678 6.90222 14.0569 6.81456 14.1105C6.73701 14.158 6.65576 14.1745 6.5547 14.1287L6.34847 14.5842Z" fill="#FF5B59"/>
<path id="Vector 32" d="M7.48757 14.2799C7.55357 14.1586 7.50877 14.0068 7.3875 13.9408C7.26622 13.8748 7.11441 13.9196 7.0484 14.0408L7.48757 14.2799ZM5.94961 14.8527C5.9745 14.813 6.0333 14.7492 6.11213 14.7126C6.18115 14.6806 6.27054 14.666 6.38973 14.72L6.59596 14.2645C6.33356 14.1457 6.09176 14.1709 5.90182 14.259C5.72169 14.3425 5.59375 14.479 5.52595 14.5871L5.94961 14.8527ZM6.38973 14.72C6.67026 14.847 6.9269 14.7889 7.11667 14.6728C7.29633 14.563 7.42229 14.3998 7.48757 14.2799L7.0484 14.0408C7.0143 14.1035 6.94348 14.1927 6.85582 14.2463C6.77827 14.2937 6.69702 14.3102 6.59596 14.2645L6.38973 14.72Z" fill="#FF5B59"/>
<line id="Line 7" x1="3.14203" y1="13.0879" x2="4.15294" y2="12.783" stroke="#25223A" stroke-width="0.5" stroke-linecap="round"/>
<line id="Line 8" x1="3.26581" y1="13.4941" x2="3.87046" y2="13.3118" stroke="#25223A" stroke-width="0.5" stroke-linecap="round"/>
<line id="Line 9" x1="3.3869" y1="13.9004" x2="4.39781" y2="13.5955" stroke="#25223A" stroke-width="0.5" stroke-linecap="round"/>
<line id="Line 10" x1="3.51068" y1="14.3066" x2="4.52159" y2="14.0018" stroke="#25223A" stroke-width="0.5" stroke-linecap="round"/>
<line id="Line 11" x1="3.63178" y1="14.7129" x2="4.64269" y2="14.408" stroke="#25223A" stroke-width="0.5" stroke-linecap="round"/>
<line id="Line 12" x1="3.7558" y1="15.1191" x2="4.76671" y2="14.8143" stroke="#25223A" stroke-width="0.5" stroke-linecap="round"/>
</g>
<g id="Stamp">
<path id="Subtract" fill-rule="evenodd" clip-rule="evenodd" d="M29.3632 13.9414L29.9305 14.0858C29.9268 14.1606 29.976 14.2301 30.0513 14.2492C30.1266 14.2684 30.2031 14.2309 30.2355 14.1634L30.4876 14.2276L30.4244 14.476C30.3394 14.456 30.2538 14.5078 30.2322 14.5927C30.2105 14.6777 30.261 14.764 30.3452 14.7871L30.2026 15.3476C30.1173 15.327 30.031 15.3788 30.0092 15.4641C29.9875 15.5494 30.0386 15.6362 30.1234 15.6588L29.9809 16.2187C29.8961 16.199 29.8107 16.2507 29.7891 16.3355C29.7675 16.4203 29.8178 16.5066 29.9017 16.5298L29.7591 17.0902C29.674 17.0699 29.588 17.1217 29.5663 17.2068C29.5447 17.2919 29.5954 17.3785 29.6799 17.4014L29.6401 17.5578L29.3906 17.4943C29.4125 17.4083 29.3605 17.3209 29.2746 17.299C29.1886 17.2772 29.1012 17.3291 29.0794 17.415L28.5209 17.2729L28.5209 17.2727C28.5428 17.1868 28.4908 17.0994 28.4049 17.0775C28.319 17.0556 28.2316 17.1076 28.2097 17.1935L28.2096 17.1937L27.6485 17.0509L27.6485 17.0508C27.6704 16.9649 27.6184 16.8775 27.5325 16.8556C27.4465 16.8337 27.3591 16.8857 27.3373 16.9716L27.3372 16.9717L27.0881 16.9083L27.1278 16.7522L27.1289 16.7525C27.2148 16.7744 27.3022 16.7224 27.3241 16.6365C27.346 16.5506 27.294 16.4632 27.2081 16.4413L27.207 16.441L27.3496 15.8805L27.3518 15.8811C27.4378 15.903 27.5252 15.8511 27.547 15.7651C27.5689 15.6792 27.517 15.5918 27.431 15.5699L27.4288 15.5693L27.5713 15.0095L27.572 15.0097C27.6579 15.0316 27.7453 14.9797 27.7672 14.8937C27.7891 14.8078 27.7371 14.7204 27.6512 14.6985L27.6505 14.6983L27.7931 14.1379L27.7949 14.1383C27.8809 14.1602 27.9683 14.1083 27.9901 14.0223C28.012 13.9364 27.9601 13.849 27.8741 13.8271L27.8723 13.8267L27.9355 13.5781L28.1884 13.6425C28.1848 13.717 28.234 13.7863 28.3092 13.8055C28.3844 13.8246 28.4607 13.7872 28.4932 13.7201L29.0581 13.8638C29.0543 13.9386 29.1035 14.0082 29.1789 14.0273C29.2542 14.0465 29.3307 14.0089 29.3632 13.9414Z" fill="#FF5B59"/>
<rect id="Rectangle 27" x="28.1343" y="13.9121" width="2.06179" height="2.81779" transform="rotate(14.2782 28.1343 13.9121)" fill="white"/>
<rect id="Rectangle 28" x="28.3049" y="14.3389" width="1.51831" height="2.07503" rx="0.759156" transform="rotate(14.2782 28.3049 14.3389)" fill="#26C589"/>
<path id="Vector 33" d="M27.8013 16.3433L29.8128 14.709" stroke="white"/>
<path id="Vector 35" d="M28.3462 16.7211L29.8129 15.5059" stroke="white"/>
<path id="Vector 38" d="M27.8425 15.4633L29.3093 14.248" stroke="white"/>
</g>
<ellipse id="Ellipse 3" opacity="0.5" cx="15.8222" cy="44.4773" rx="11.4628" ry="0.698954" fill="#FEC091"/>
<g id="Group 24">
<g id="Group 3">
<path id="Vector 14" d="M10.7487 32.565L12.5216 31.1488C15.4143 28.8378 16.7565 25.093 15.9902 21.4707L8.2998 29.4651L10.7487 32.565Z" fill="#27A2A1"/>
<path id="Vector 15" d="M14.1604 19.3623V19.3623C15.2218 23.5672 13.6278 27.9958 10.1301 30.5597L9.75854 30.832" stroke="white" stroke-width="4.4351"/>
<g id="Group 2">
<path id="Vector_3" fill-rule="evenodd" clip-rule="evenodd" d="M27.4688 31.4992C27.7617 31.9011 27.2565 32.4606 27.3348 32.9527C27.3826 33.2532 27.7211 33.4104 27.8188 33.6983C28.0131 34.2706 28.5843 34.9837 28.1764 35.4316C27.7887 35.8573 27.0929 35.2126 26.5273 35.1164C26.1539 35.0529 25.794 35.0659 25.4291 34.9645C24.9237 34.8242 24.2477 34.8747 23.9966 34.4137C23.749 33.9588 24.1191 33.4076 24.3207 32.9287C24.4886 32.53 24.7262 32.1777 25.0559 31.8979C25.3792 31.6234 25.7544 31.4263 26.1719 31.3573C26.6122 31.2845 27.2062 31.139 27.4688 31.4992Z" fill="#FF992D"/>
<path id="Rectangle 15" d="M24.7467 24.294L23.4705 17.5957C23.2025 16.1891 21.849 15.2628 20.4407 15.5223V15.5223C19.0204 15.784 18.0845 17.1517 18.3548 18.5704L19.6251 25.2379" stroke="#25223A" stroke-width="8.8702" stroke-linecap="round"/>
<path id="Vector_4" fill-rule="evenodd" clip-rule="evenodd" d="M27.2915 31.93C27.5218 32.2459 27.1246 32.6857 27.1862 33.0725C27.2238 33.3087 27.4899 33.4323 27.5667 33.6586C27.7195 34.1085 28.1684 34.6691 27.8478 35.0212C27.543 35.3558 26.9961 34.849 26.5514 34.7734C26.2579 34.7235 25.975 34.7337 25.6882 34.654C25.2909 34.5437 24.7594 34.5834 24.5621 34.221C24.3674 33.8634 24.6584 33.4301 24.8168 33.0537C24.9488 32.7403 25.1356 32.4633 25.3948 32.2433C25.6489 32.0276 25.9438 31.8726 26.2721 31.8184C26.6182 31.7612 27.0851 31.6468 27.2915 31.93Z" fill="#E87F0F"/>
<rect id="Rectangle 22" x="17.8838" y="25.2607" width="8.69563" height="12.4617" rx="4.34782" transform="rotate(-10.4421 17.8838 25.2607)" fill="#E87F0F"/>
<path id="Vector 42" d="M17.6553 26.3563L18.337 25.4473L18.8673 27.038L17.6553 26.3563Z" fill="#E87F0F"/>
<path id="Vector 41" d="M27.6547 36.5449L28.3364 35.6359L27.541 35.1436L27.6547 36.5449Z" fill="#E87F0F"/>
<rect id="Rectangle 14" x="17.2783" y="26.0938" width="8.69563" height="12.4617" rx="4.34782" transform="rotate(-10.4421 17.2783 26.0938)" fill="#FF992D"/>
<path id="Vector 19" opacity="0.5" d="M18.6002 33.081L17.9224 29.3389C19.5637 35.8641 22.472 37.4325 24.1786 37.429C24.3849 37.4148 24.5926 37.3884 24.8008 37.3492C24.6197 37.3991 24.4102 37.4285 24.1786 37.429C21.5188 37.6124 19.0871 35.7692 18.6002 33.081Z" fill="#E87F0F"/>
<rect id="Rectangle 16" x="19.125" y="27.1406" width="0.743983" height="9.79578" rx="0.371992" transform="rotate(-10.4421 19.125 27.1406)" fill="#E87F0F"/>
<rect id="Rectangle 17" x="21.5635" y="26.6904" width="0.743983" height="9.79578" rx="0.371992" transform="rotate(-10.4421 21.5635 26.6904)" fill="#E87F0F"/>
<rect id="Rectangle 18" x="24.0017" y="26.2412" width="0.743983" height="9.79578" rx="0.371992" transform="rotate(-10.4421 24.0017 26.2412)" fill="#E87F0F"/>
<path id="Star 7" d="M9.27646 24.9634L9.32002 25.3634L9.6092 25.5646L9.26562 25.6426L9.07505 25.997L9.03149 25.5969L8.74231 25.3957L9.08589 25.3178L9.27646 24.9634Z" fill="#FEC091"/>
<path id="Star 12" d="M17.5328 33.9018L17.5764 34.3019L17.8655 34.5031L17.522 34.581L17.3314 34.9354L17.2878 34.5354L16.9987 34.3342L17.3422 34.2562L17.5328 33.9018Z" fill="#FEC091"/>
<path id="Star 8" d="M17.1015 12.5586L17.4144 12.9545L17.8558 12.9755L17.5428 13.2873L17.5766 13.7909L17.2636 13.3949L16.8223 13.374L17.1353 13.0621L17.1015 12.5586Z" fill="#FEC091"/>
<path id="Star 11" d="M18.1319 1.19611L18.1426 1.5451L18.3791 1.73872L18.0767 1.78292L17.8879 2.07662L17.8772 1.72763L17.6407 1.53401L17.9431 1.48981L18.1319 1.19611Z" fill="#FEC091"/>
<path id="Star 10" d="M27.1581 22.5181L27.1827 23.0222L27.5296 23.2958L27.0937 23.3676L26.8285 23.797L26.804 23.2929L26.457 23.0193L26.893 22.9475L27.1581 22.5181Z" fill="#FEC091"/>
<path id="Star 9" d="M8.28125 9.23077L8.26617 9.51334L8.44408 9.68576L8.19679 9.70093L8.02438 9.92531L8.03946 9.64274L7.86155 9.47032L8.10884 9.45515L8.28125 9.23077Z" fill="#FEC091"/>
<circle id="Ellipse 4" cx="22.027" cy="38.3941" r="0.371992" transform="rotate(-10.4421 22.027 38.3941)" fill="#25223A"/>
<circle id="Ellipse 5" cx="26.2956" cy="37.608" r="0.371992" transform="rotate(-10.4421 26.2956 37.608)" fill="#25223A"/>
<path id="Rectangle 21" d="M20.0718 25.4326L23.852 24.7359C23.9594 25.3185 23.5742 25.8779 22.9916 25.9852L21.3211 26.2931C20.7385 26.4005 20.1791 26.0152 20.0718 25.4326Z" fill="#E87F0F"/>
<path id="Rectangle 20" d="M20.0728 25.4323L23.8668 24.7274C23.9403 25.1721 23.6441 25.5937 23.2008 25.6754L21.0115 26.0789C20.5738 26.1595 20.1535 25.8701 20.0728 25.4323Z" fill="white"/>
<path id="Vector 43" d="M20.2891 24.7845L20.0608 25.4694L23.8657 24.7465L23.9038 24.1377L20.2891 24.7845Z" fill="#FEC091"/>
</g>
<g id="Group 1">
<path id="Vector 10" d="M18.0546 15.2738L17.9717 15.3322V16.1275L18.8609 16.2398C19.2119 16.2842 19.5678 16.2128 19.8745 16.0364L20.0439 15.939C20.1911 15.8543 20.2819 15.6974 20.2819 15.5276C20.2819 15.3073 20.1303 15.1159 19.9158 15.0656L19.5599 14.982C19.0395 14.8599 18.4917 14.9661 18.0546 15.2738Z" fill="#E87F0F"/>
<path id="Vector 11" d="M19.2726 15.882L19.0456 15.2945C18.9682 15.0942 19.1465 14.889 19.3556 14.9377L19.9668 15.0798C20.1559 15.1238 20.2963 15.2827 20.3166 15.4758C20.336 15.6599 20.242 15.8375 20.0787 15.9249L19.7963 16.0762C19.5989 16.182 19.3533 16.091 19.2726 15.882Z" fill="#E87F0F"/>
<path id="Vector 8" d="M17.0101 19.7017L15.272 10.5996L16.1568 20.9946C16.7446 20.866 17.123 20.2927 17.0101 19.7017Z" fill="white"/>
<path id="Vector 5" d="M12.3877 36.8978V36.1436C13.4966 36.434 14.2579 36.2646 14.4999 36.1436V37.0372L16.0696 41.0124C16.1075 41.1084 16.127 41.2106 16.127 41.3138V41.4395C16.127 41.4928 16.1137 41.5453 16.0885 41.5922C15.9901 41.7749 15.7471 41.8183 15.5916 41.6809L13.8505 40.1424C12.9204 39.3205 12.3877 38.139 12.3877 36.8978Z" fill="#25223A"/>
<path id="Vector 4" d="M12.3877 36.1103V34.3281H14.4999V36.1103C13.8134 36.4535 12.8057 36.2533 12.3877 36.1103Z" fill="#E87F0F"/>
<path id="Vector 29" d="M14.5049 35.5225H12.3711L12.3932 36.1663C13.3628 36.4693 14.2145 36.28 14.5049 36.1663V35.5225Z" fill="white"/>
<path id="Vector 17" d="M6.73789 31.9945L8.05859 30.7979L9.4768 32.3631L8.1561 33.5597C7.44083 33.2815 6.9126 32.4003 6.73789 31.9945Z" fill="#E87F0F"/>
<path id="Vector 18" d="M8.76613 38.2324L6.55599 35.7984C5.55123 34.6919 5.63372 32.9803 6.74023 31.9756C7.27068 32.9918 7.90787 33.4415 8.16015 33.5393L9.65274 37.8763C9.70458 38.027 9.66174 38.194 9.5438 38.3011C9.49497 38.3454 9.4359 38.377 9.37189 38.3928L9.32904 38.4035C9.12421 38.4543 8.908 38.3886 8.76613 38.2324Z" fill="#25223A"/>
<path id="Vector 28" d="M8.15286 33.5904C7.57715 33.4389 6.97872 32.4541 6.75146 31.9996L7.1681 31.583L8.53161 33.2495L8.15286 33.5904Z" fill="white"/>
<rect id="Rectangle 16_2" x="8.48511" y="29.248" width="3.97936" height="1.29741" rx="0.648707" transform="rotate(49.8056 8.48511 29.248)" fill="#3D696B" fill-opacity="0.5"/>
<rect id="Rectangle 14_2" x="8.24854" y="29.1855" width="4.42243" height="1.18811" rx="0.594057" transform="rotate(49.8056 8.24854 29.1855)" fill="#27A2A1"/>
<path id="Vector 3" d="M11.3332 33.2062L10.6401 22.0181L16.0197 21.457L15.6236 33.2062H11.3332Z" fill="#2AB0AF"/>
<path id="Vector 7" d="M13.6656 33.0446L13.5491 21.2295H13.8345L13.9451 33.0446H13.6656Z" fill="white"/>
<path id="Rectangle 22_2" d="M10.6897 22.0388L15.9923 21.4707V22.5691L10.6897 22.8721V22.0388Z" fill="#3D696B" fill-opacity="0.5"/>
<path id="Vector 2" d="M10.1628 18.6343C10.6193 14.5706 11.4317 11.6408 12.3354 10.083C12.6193 9.59351 13.3646 9.70861 13.9299 9.68386C14.4177 9.66251 14.864 9.64764 15.0737 10.0885C15.841 11.7013 16.1149 15.4402 16.2734 18.6409C16.3578 20.345 15.0392 21.7976 13.3357 21.8922C11.4917 21.9946 9.95662 20.4696 10.1628 18.6343Z" fill="#FF5B59"/>
<path id="Vector 13" d="M10.2084 18.5944L10.4238 16.6221C10.281 18.9465 10.5352 20.2107 10.9644 20.9053C11.3206 21.2942 11.7797 21.588 12.2983 21.7422C12.6913 21.7985 13.0781 21.7808 13.3844 21.8529C13.0049 21.8845 12.6387 21.8434 12.2983 21.7422C11.818 21.6734 11.3283 21.494 10.9644 20.9053C10.4161 20.3065 10.1114 19.4822 10.2084 18.5944Z" fill="#FF2E2C"/>
<path id="Vector 9" d="M11.246 13.1571C11.5614 11.8789 12.0272 10.6687 12.477 9.87531C12.6679 9.53867 13.2373 9.5281 13.6043 9.65066C13.9832 9.77717 14.0774 10.1063 14.0001 10.4982L13.8454 11.2824C13.4346 13.3648 15.0829 15.2819 17.2034 15.1878L17.6899 15.1662C17.8443 15.1594 17.9731 15.2826 17.9731 15.4371C17.9731 16.1087 17.4814 16.6791 16.8172 16.7781L15.5904 16.9609C12.9778 17.3503 10.6132 15.7216 11.246 13.1571Z" fill="#FF2E2C"/>
<rect id="Rectangle 15_2" x="11.2952" y="32.9844" width="4.31781" height="0.378755" rx="0.189378" fill="#3D696B" fill-opacity="0.5"/>
<rect id="Rectangle 13" x="11.2649" y="33.1406" width="4.42243" height="1.18811" rx="0.594057" fill="#2AB0AF"/>
</g>
</g>
<g id="Group 15">
<path id="Vector_5" fill-rule="evenodd" clip-rule="evenodd" d="M14.9543 1.9706C15.6198 2.13096 15.9283 2.89547 16.5178 3.2458C17.1432 3.61749 18.2485 3.3805 18.4884 4.07108C18.7373 4.78745 17.7959 5.36916 17.4977 6.06616C17.2953 6.53926 17.2255 7.03005 17.0206 7.50208C16.7282 8.17596 16.7278 9.17825 16.0402 9.42489C15.3653 9.66702 14.8399 8.48005 14.126 8.54046C12.6873 8.6622 11.4507 10.4701 10.1115 9.92656C9.00942 9.47923 9.01546 7.71945 9.1825 6.53394C9.33533 5.44924 10.2487 4.68532 10.966 3.86207C11.5012 3.24786 12.0892 2.70366 12.8231 2.35561C13.4896 2.03951 14.2378 1.79798 14.9543 1.9706Z" fill="#25223A"/>
<circle id="Ellipse 1" cx="13.7659" cy="7.67458" r="1.52223" fill="#F68853"/>
<path id="Vector 12" d="M12.5811 6.72852C12.0463 7.26335 12.0134 8.96661 13.692 9.197C13.1983 8.95015 12.3754 8.16847 12.5811 6.72852Z" fill="#C86709"/>
</g>
</g>
<g id="Postcard">
<g id="Group 12">
<rect id="Rectangle 23_2" x="2.56201" y="13.0059" width="4.52617" height="3.11174" rx="1.55587" transform="rotate(-16.7806 2.56201 13.0059)" fill="white"/>
<line id="Line 6_2" x1="5.40578" y1="13.1137" x2="5.75002" y2="14.2552" stroke="#25223A" stroke-linecap="round"/>
<rect id="Rectangle 24_2" x="5.93311" y="12.4316" width="0.777936" height="0.777936" rx="0.388968" transform="rotate(-16.7806 5.93311 12.4316)" fill="#FF5B59"/>
<rect id="Rectangle 25_2" x="6.10913" y="12.5264" width="0.49505" height="0.49505" rx="0.247525" transform="rotate(-16.7806 6.10913 12.5264)" fill="#FF5B59"/>
<rect id="Rectangle 26_2" x="6.28809" y="12.6211" width="0.212164" height="0.212164" rx="0.106082" transform="rotate(-16.7806 6.28809 12.6211)" fill="white"/>
<g id="Ellipse 11_2">
</g>
<path id="Ellipse 12_2" d="M6.30264 13.6508C6.11566 13.7072 5.93666 13.662 5.90283 13.5498" stroke="#25223A" stroke-linecap="round"/>
</g>
<rect id="Rectangle 30" x="2.98853" y="13.7031" width="1.58772" height="0.0853994" rx="0.0426997" transform="rotate(-17.0743 2.98853 13.7031)" fill="#25223A"/>
<rect id="Rectangle 31" x="3.15918" y="14.2148" width="0.705802" height="0.0853994" rx="0.0426997" transform="rotate(-17.0743 3.15918 14.2148)" fill="#25223A"/>
</g>
</g>
</svg>
